<svg id="svg" version="1.1" xmlns="http://www.w3.org/2000/svg" xmlns:xlink="http://www.w3.org/1999/xlink" width="400" height="247.36196319018404" viewBox="0, 0, 400,247.36196319018404"><g id="svgg"><path id="path0" d="M193.917 10.072 C 187.139 15.198,186.557 18.349,190.756 27.167 C 195.196 36.490,191.675 43.377,182.069 44.161 C 177.929 44.499,176.876 45.132,172.709 49.791 C 170.346 52.432,168.804 52.672,163.333 51.247 C 158.481 49.983,156.704 50.119,152.842 52.050 C 146.127 55.407,148.215 70.503,155.763 73.182 C 157.302 73.728,159.906 73.778,163.833 73.336 C 171.348 72.490,172.883 73.745,173.915 81.583 C 174.392 85.203,175.614 87.150,178.442 88.800 C 181.044 90.318,182.311 90.271,184.629 88.570 C 188.055 86.057,189.248 85.848,192.126 87.259 C 197.133 89.715,199.365 92.986,198.613 96.768 C 197.857 100.571,192.903 108.491,190.022 110.503 C 184.206 114.563,182.568 115.035,174.500 114.975 C 167.995 114.927,166.433 115.215,164.486 116.819 C 163.341 117.763,161.517 122.579,160.420 127.554 C 159.643 131.079,159.316 131.494,155.672 133.579 C 151.409 136.019,150.431 138.262,151.963 142.083 C 153.356 145.559,154.709 146.284,160.500 146.662 C 171.896 147.404,175.167 150.547,177.674 163.167 C 178.906 169.371,180.527 174.500,181.254 174.500 C 181.369 174.500,181.453 174.606,181.440 174.736 C 181.406 175.082,184.054 177.263,184.901 177.586 C 185.496 177.814,186.093 177.853,188.189 177.802 C 191.165 177.730,191.023 177.777,196.863 174.931 L 200.144 173.333 201.947 171.536 C 205.466 168.030,209.296 163.078,210.054 161.054 C 211.204 157.986,211.897 155.230,212.751 150.333 C 214.270 141.630,216.318 138.136,222.911 133.000 C 230.201 127.322,231.778 125.469,233.223 120.888 C 235.455 113.812,233.101 111.007,223.521 109.331 C 220.069 108.727,219.250 108.410,218.238 107.284 C 214.776 103.434,214.782 98.939,218.252 97.242 C 219.481 96.640,220.278 96.717,224.605 97.854 C 233.922 100.302,236.642 98.317,236.661 89.056 L 236.667 86.530 237.208 86.070 C 237.957 85.434,241.281 83.887,242.190 83.750 C 244.714 83.372,247.939 85.120,250.834 88.437 C 252.575 90.431,253.318 90.879,254.927 90.902 C 256.242 90.921,256.204 90.977,255.925 89.406 C 255.796 88.679,255.566 87.146,255.413 86.000 C 251.185 54.308,230.150 25.870,200.117 11.248 C 197.458 9.953,196.306 9.307,196.182 9.042 C 195.943 8.529,195.980 8.512,193.917 10.072 M130.522 21.579 C 128.082 22.135,126.725 23.060,122.620 26.967 C 119.729 29.718,118.309 30.813,115.231 32.667 C 110.373 35.592,109.492 37.853,111.076 43.333 C 112.847 49.465,116.218 52.209,121.667 51.957 C 126.154 51.749,129.566 49.255,132.752 43.854 C 134.007 41.728,134.679 41.126,137.379 39.714 C 143.347 36.593,145.201 28.378,140.979 23.759 C 139.354 21.981,133.820 20.827,130.522 21.579 M86.000 24.225 C 86.000 24.516,85.496 25.060,84.042 26.342 C 69.674 39.002,59.333 55.201,54.256 73.000 C 53.824 74.512,53.360 75.997,53.225 76.298 C 52.626 77.629,53.378 77.850,58.757 77.924 C 62.745 77.980,63.164 78.035,66.023 78.884 C 69.879 80.029,76.440 80.486,79.806 79.843 C 88.298 78.221,89.189 77.086,89.502 67.500 C 89.763 59.532,90.232 58.162,94.143 53.941 C 99.568 48.088,99.951 44.182,95.903 35.999 C 95.019 34.212,93.902 31.875,93.422 30.805 C 91.869 27.349,90.493 25.863,87.559 24.475 C 85.958 23.719,86.000 23.725,86.000 24.225 M165.333 30.350 C 163.016 30.716,161.942 31.193,160.105 32.671 C 156.992 35.175,156.260 37.020,157.074 40.307 C 158.935 47.822,175.657 44.991,177.342 36.877 C 177.817 34.585,177.350 32.514,176.184 31.742 C 174.205 30.432,169.023 29.768,165.333 30.350 M69.683 46.953 C 70.309 47.323,70.346 47.196,69.020 49.208 C 66.675 52.766,63.495 59.514,62.601 62.828 C 61.694 66.192,61.843 65.903,61.091 65.762 C 60.348 65.623,60.343 65.729,61.255 62.334 C 62.312 58.397,65.786 51.235,68.469 47.458 C 69.114 46.551,69.048 46.578,69.683 46.953 M231.333 138.398 C 227.705 139.444,222.557 143.432,221.115 146.316 C 219.134 150.275,222.622 155.102,226.607 153.919 C 230.625 152.726,236.738 144.347,236.094 140.914 C 235.777 139.224,233.198 137.861,231.333 138.398 M233.809 139.072 C 235.897 140.158,236.076 141.661,234.505 144.917 C 232.186 149.720,228.001 153.632,225.151 153.659 C 223.001 153.680,220.816 150.721,221.035 148.085 C 221.363 144.126,230.768 137.490,233.809 139.072 M230.962 139.403 C 227.214 140.726,222.574 144.603,221.500 147.310 C 220.628 149.508,222.742 153.138,224.988 153.300 C 229.243 153.608,237.239 143.015,234.826 140.267 C 233.736 139.025,232.693 138.792,230.962 139.403 " stroke="none" fill="#80b82a" fill-rule="evenodd"></path><path id="path1" d="M327.667 1.503 C 319.012 1.954,309.053 4.467,302.087 7.958 C 301.264 8.371,300.297 8.812,299.939 8.938 C 298.822 9.332,295.195 11.467,292.547 13.289 C 274.551 25.671,265.648 43.175,267.392 62.750 C 268.255 72.442,267.935 73.821,263.479 79.602 C 262.368 81.044,260.219 84.211,257.307 88.698 C 256.432 90.046,256.429 90.044,256.190 87.750 C 255.363 79.822,252.983 70.987,249.161 61.667 C 248.954 61.163,248.637 60.375,248.456 59.917 C 244.490 49.878,233.270 34.602,224.083 26.733 C 223.075 25.869,221.688 24.669,221.000 24.065 C 216.245 19.892,206.623 13.697,199.945 10.511 C 196.306 8.775,196.405 8.813,196.383 9.144 C 196.371 9.340,197.421 9.931,200.122 11.248 C 229.996 25.810,250.822 53.789,255.330 85.417 C 255.965 89.876,256.055 90.416,256.125 90.208 C 256.282 89.739,256.500 90.048,256.500 90.741 C 256.500 92.133,256.892 92.205,261.133 91.588 C 276.284 89.384,278.546 89.901,285.156 97.083 C 292.795 105.383,296.625 108.408,304.250 112.165 C 318.478 119.175,340.041 120.470,356.852 115.324 C 357.733 115.054,358.552 114.833,358.672 114.833 C 359.522 114.833,366.126 111.960,369.216 110.245 C 377.338 105.738,385.512 98.423,390.176 91.486 C 390.721 90.676,391.167 89.970,391.167 89.917 C 391.167 89.864,391.619 89.110,392.173 88.240 C 400.112 75.765,402.222 59.459,397.661 45.818 C 393.566 33.565,386.769 23.491,377.750 16.306 C 373.793 13.153,368.660 9.856,366.377 9.000 C 365.897 8.820,364.997 8.418,364.377 8.107 C 355.272 3.536,340.308 0.844,327.667 1.503 M337.842 3.338 C 345.119 3.895,351.565 5.187,357.481 7.274 C 358.912 7.779,360.709 8.412,361.473 8.680 C 370.030 11.683,380.483 19.798,386.936 28.448 C 392.322 35.668,397.494 48.207,398.181 55.709 C 399.709 72.401,392.494 89.529,379.000 101.245 C 377.495 102.552,373.078 106.000,372.909 106.000 C 372.865 106.000,371.896 106.562,370.756 107.250 C 363.427 111.666,357.495 113.926,349.583 115.315 C 330.011 118.752,312.952 116.035,299.215 107.291 C 294.869 104.524,293.449 103.227,284.000 93.389 C 279.308 88.505,275.039 87.809,261.696 89.757 C 257.967 90.302,258.192 90.348,258.996 89.208 C 259.367 88.681,260.509 87.013,261.531 85.500 C 262.554 83.987,264.041 81.850,264.834 80.750 C 269.519 74.258,269.976 72.550,269.235 64.333 C 267.775 48.145,272.028 35.575,282.958 23.775 C 288.681 17.597,298.057 11.060,304.628 8.667 C 305.337 8.408,307.042 7.777,308.417 7.264 C 317.445 3.895,327.529 2.549,337.842 3.338 M85.232 24.708 C 82.289 26.917,74.812 34.395,72.198 37.746 C 67.696 43.517,64.249 48.576,62.366 52.179 C 62.011 52.860,61.226 54.354,60.622 55.500 C 57.136 62.116,52.312 75.387,52.993 76.488 C 53.139 76.725,53.378 76.065,54.254 73.000 C 59.349 55.175,69.674 39.002,84.042 26.342 C 85.119 25.393,86.000 24.553,86.000 24.475 C 86.000 24.240,85.758 24.313,85.232 24.708 M342.042 48.063 C 340.988 49.538,340.992 49.500,341.879 49.500 C 342.538 49.500,342.677 49.415,343.713 48.371 C 345.101 46.972,345.116 46.833,343.875 46.836 L 342.917 46.839 342.042 48.063 M335.270 48.215 C 334.782 48.571,334.960 49.701,335.535 49.902 C 336.306 50.171,336.833 49.809,336.833 49.009 C 336.833 48.093,336.009 47.674,335.270 48.215 M300.064 48.481 C 293.744 50.118,294.891 59.250,301.417 59.250 C 307.394 59.250,309.285 51.353,303.898 48.887 C 302.923 48.440,301.004 48.237,300.064 48.481 M303.132 50.097 C 305.899 51.476,306.468 54.714,304.306 56.782 C 302.252 58.748,299.157 58.222,297.769 55.673 C 295.954 52.338,299.737 48.405,303.132 50.097 M340.980 50.563 C 335.860 52.393,337.524 59.784,342.942 59.278 C 345.523 59.037,346.743 57.585,346.745 54.750 C 346.749 51.493,343.989 49.488,340.980 50.563 M311.014 51.275 C 308.372 52.248,307.452 55.688,309.267 57.808 C 310.910 59.727,314.178 59.834,315.897 58.025 C 316.809 57.064,315.779 56.241,314.771 57.126 C 313.162 58.539,310.927 58.151,309.980 56.294 C 309.020 54.412,310.424 52.345,312.667 52.339 C 313.454 52.336,315.167 53.013,315.167 53.326 C 315.167 53.602,315.594 53.529,316.023 53.180 L 316.417 52.859 315.917 52.331 C 314.808 51.160,312.613 50.687,311.014 51.275 M328.670 51.186 C 328.443 51.277,328.124 51.471,327.962 51.618 C 327.688 51.866,327.667 51.859,327.667 51.526 C 327.667 51.218,327.572 51.167,327.000 51.167 L 326.333 51.167 326.333 55.167 L 326.333 59.167 326.980 59.167 L 327.627 59.167 327.698 56.542 C 327.789 53.204,328.199 52.225,329.431 52.398 C 330.137 52.497,330.757 51.600,330.243 51.224 C 329.888 50.965,329.262 50.950,328.670 51.186 M332.607 51.412 C 332.031 51.802,332.000 51.806,332.000 51.495 C 332.000 51.223,331.885 51.167,331.333 51.167 L 330.667 51.167 330.667 55.167 L 330.667 59.167 331.333 59.167 L 332.000 59.167 332.000 56.661 C 332.000 53.401,332.551 52.135,333.858 52.397 C 334.631 52.551,335.210 51.306,334.458 51.105 C 333.744 50.914,333.210 51.002,332.607 51.412 M364.083 51.201 C 363.808 51.297,363.340 51.558,363.042 51.780 L 362.500 52.184 362.500 51.675 C 362.500 51.205,362.456 51.167,361.917 51.167 L 361.333 51.167 361.333 55.167 L 361.333 59.167 361.892 59.167 L 362.452 59.167 362.540 56.673 C 362.654 53.466,363.282 52.333,364.950 52.333 C 366.564 52.333,366.833 52.917,366.833 56.425 L 366.833 59.167 367.500 59.167 L 368.167 59.167 368.163 56.292 C 368.157 51.782,366.902 50.216,364.083 51.201 M317.865 54.042 C 317.964 58.160,318.695 59.301,321.250 59.325 C 324.002 59.351,324.833 58.017,324.833 53.575 L 324.833 51.167 324.167 51.167 L 323.500 51.167 323.500 53.672 C 323.500 57.212,323.000 58.112,321.120 57.950 C 319.509 57.811,319.169 57.044,319.168 53.542 L 319.167 51.167 318.481 51.167 L 317.796 51.167 317.865 54.042 M335.333 55.167 L 335.333 59.167 336.000 59.167 L 336.667 59.167 336.667 55.167 L 336.667 51.167 336.000 51.167 L 335.333 51.167 335.333 55.167 M352.365 54.042 C 352.464 58.160,353.195 59.301,355.750 59.325 C 358.502 59.351,359.333 58.017,359.333 53.575 L 359.333 51.167 358.667 51.167 L 358.000 51.167 358.000 53.672 C 358.000 57.053,357.526 58.000,355.833 57.998 C 354.190 57.997,353.762 57.173,353.694 53.875 L 353.638 51.167 352.967 51.167 L 352.296 51.167 352.365 54.042 M343.581 51.927 C 345.558 52.865,346.133 54.859,344.943 56.657 C 343.304 59.134,339.333 57.796,339.333 54.766 C 339.333 52.670,341.747 51.056,343.581 51.927 M320.076 65.877 C 320.031 65.992,320.015 68.411,320.039 71.252 L 320.083 76.417 320.696 76.468 C 321.246 76.513,321.315 76.474,321.363 76.090 L 321.417 75.660 322.060 76.119 C 323.350 77.041,325.776 76.836,327.034 75.700 C 330.717 72.373,326.543 66.563,322.222 69.001 L 321.333 69.503 321.333 67.585 L 321.333 65.667 320.745 65.667 C 320.421 65.667,320.120 65.761,320.076 65.877 M329.667 71.083 L 329.667 76.500 330.333 76.500 L 331.000 76.500 331.000 71.083 L 331.000 65.667 330.333 65.667 L 329.667 65.667 329.667 71.083 M365.833 69.750 L 365.833 73.833 366.500 73.833 L 367.167 73.833 367.167 69.750 L 367.167 65.667 366.500 65.667 L 365.833 65.667 365.833 69.750 M299.191 68.678 C 298.975 68.765,298.581 68.990,298.316 69.179 L 297.833 69.523 297.833 69.095 C 297.833 68.706,297.771 68.667,297.167 68.667 L 296.500 68.667 296.500 74.000 L 296.500 79.333 297.167 79.333 L 297.833 79.333 297.833 77.498 L 297.833 75.662 298.529 76.123 C 299.600 76.831,301.818 76.808,302.856 76.079 C 306.825 73.289,303.656 66.890,299.191 68.678 M307.708 68.931 C 307.187 69.342,307.167 69.345,307.167 69.012 C 307.167 68.728,307.062 68.667,306.583 68.667 L 306.000 68.667 306.000 72.583 L 306.000 76.500 306.558 76.500 L 307.116 76.500 307.210 73.937 C 307.329 70.676,307.748 69.751,309.083 69.801 C 309.676 69.824,310.334 69.072,310.080 68.662 C 309.860 68.305,308.274 68.485,307.708 68.931 M312.583 68.815 C 310.842 69.618,309.961 71.808,310.557 73.846 C 311.882 78.372,318.521 77.320,318.521 72.583 C 318.521 69.507,315.390 67.520,312.583 68.815 M334.833 68.765 C 330.861 70.483,331.943 76.461,336.260 76.642 C 338.607 76.740,341.427 74.719,339.909 74.027 C 339.298 73.749,339.193 73.776,338.719 74.339 C 337.155 76.199,333.667 75.220,333.667 72.922 C 333.667 72.873,335.204 72.833,337.083 72.833 L 340.500 72.833 340.500 72.161 C 340.500 69.581,337.334 67.684,334.833 68.765 M344.417 68.763 C 344.142 68.906,343.786 69.142,343.625 69.287 C 343.354 69.533,343.333 69.520,343.333 69.109 C 343.333 68.715,343.270 68.667,342.750 68.667 L 342.167 68.667 342.167 72.583 L 342.167 76.500 342.727 76.500 L 343.288 76.500 343.367 74.042 C 343.473 70.767,344.013 69.788,345.713 69.788 C 347.020 69.788,347.167 70.172,347.167 73.593 L 347.167 76.500 347.833 76.500 L 348.500 76.500 348.500 74.606 C 348.500 71.374,348.776 70.570,350.083 69.989 C 351.966 69.153,352.500 69.952,352.500 73.606 L 352.500 76.500 353.180 76.500 L 353.859 76.500 353.805 73.375 C 353.744 69.907,353.628 69.481,352.564 68.822 C 351.457 68.136,349.236 68.564,348.563 69.592 L 348.287 70.012 347.984 69.514 C 347.396 68.547,345.569 68.162,344.417 68.763 M357.216 69.001 C 354.555 70.527,354.727 74.919,357.503 76.335 C 358.754 76.973,360.992 76.702,361.956 75.796 L 362.333 75.442 362.333 75.971 C 362.333 76.464,362.373 76.500,362.917 76.500 L 363.500 76.500 363.500 72.583 L 363.500 68.667 362.917 68.667 C 362.373 68.667,362.333 68.702,362.333 69.196 L 362.333 69.725 361.956 69.370 C 360.872 68.352,358.649 68.178,357.216 69.001 M302.108 70.190 C 303.587 71.081,303.799 73.035,302.571 74.469 C 301.149 76.131,298.452 75.415,297.844 73.213 C 297.191 70.847,299.950 68.890,302.108 70.190 M315.667 70.087 C 317.468 71.008,317.790 73.082,316.355 74.517 C 314.565 76.307,311.500 75.049,311.500 72.525 C 311.500 70.526,313.844 69.154,315.667 70.087 M325.500 70.087 C 327.335 71.025,327.648 73.058,326.184 74.522 C 324.008 76.698,320.393 74.328,321.490 71.444 C 322.012 70.069,324.091 69.366,325.500 70.087 M337.855 70.094 C 338.102 70.222,338.461 70.526,338.652 70.769 C 339.328 71.629,339.234 71.667,336.412 71.667 L 333.825 71.667 334.077 71.180 C 334.747 69.884,336.483 69.385,337.855 70.094 M360.083 69.851 C 363.114 70.678,363.038 74.462,359.973 75.341 C 358.286 75.825,356.303 73.973,356.549 72.141 C 356.699 71.024,357.299 70.378,358.627 69.904 C 359.396 69.629,359.287 69.633,360.083 69.851 M365.766 75.028 C 365.201 75.835,365.677 76.715,366.636 76.634 C 367.471 76.564,367.876 75.892,367.495 75.208 C 367.143 74.576,366.155 74.473,365.766 75.028 M129.933 90.711 C 127.620 92.034,127.510 95.126,129.724 96.562 C 132.567 98.405,136.106 95.328,134.685 92.250 C 133.888 90.523,131.572 89.773,129.933 90.711 M175.555 91.642 C 173.875 92.223,172.459 93.974,172.739 95.125 C 172.801 95.377,172.908 95.883,172.976 96.250 C 173.082 96.814,173.411 97.648,173.996 98.833 C 174.510 99.875,178.825 100.427,178.835 99.452 C 178.837 99.341,179.096 99.083,179.412 98.878 C 179.728 98.673,180.159 98.205,180.368 97.837 C 180.578 97.470,180.835 97.169,180.939 97.168 C 181.043 97.167,181.173 96.998,181.228 96.792 C 182.114 93.488,178.833 90.509,175.555 91.642 M60.360 102.761 C 58.930 103.146,57.123 103.921,54.746 105.169 C 53.526 105.809,52.405 106.333,52.256 106.333 C 51.613 106.333,47.752 109.255,45.697 111.297 C 38.816 118.132,35.461 123.603,33.445 131.277 L 32.888 133.395 32.069 133.673 C 29.225 134.640,27.667 136.160,27.667 137.965 C 27.667 138.805,26.977 139.406,24.471 140.750 C 21.996 142.077,19.684 144.605,17.916 147.917 C 15.226 152.957,11.362 156.663,6.283 159.073 C 2.254 160.985,-0.000 163.084,0.000 164.925 C 0.000 166.714,0.671 167.422,3.145 168.244 C 3.913 168.499,4.738 168.810,4.979 168.936 C 5.220 169.062,5.740 169.165,6.136 169.166 C 6.732 169.166,6.928 169.253,7.282 169.675 C 7.896 170.404,9.219 171.021,10.397 171.128 C 11.188 171.200,11.549 171.333,12.110 171.762 C 14.458 173.554,21.124 174.548,24.500 173.608 C 28.215 172.575,33.271 169.300,35.601 166.417 C 36.045 165.867,37.044 164.629,37.820 163.667 C 39.329 161.794,41.479 158.606,41.881 157.643 C 42.447 156.289,43.681 155.948,44.577 156.898 C 45.620 158.005,46.090 160.391,46.336 165.833 C 46.539 170.326,46.703 171.115,47.657 172.199 C 49.376 174.152,53.603 175.208,57.583 174.677 C 60.227 174.325,60.619 174.043,60.939 172.258 C 61.390 169.738,61.460 169.909,58.667 166.677 C 55.348 162.836,55.072 162.238,53.900 156.337 C 53.092 152.268,53.128 152.394,52.035 149.833 C 50.495 146.225,49.245 143.980,47.883 142.375 L 47.141 141.500 47.695 141.499 C 51.988 141.492,50.650 136.694,45.686 134.296 C 44.713 133.826,43.884 133.416,43.845 133.385 C 43.748 133.309,44.383 130.955,45.028 129.000 C 46.503 124.530,49.367 119.607,52.303 116.496 C 52.824 115.944,53.274 115.401,53.304 115.288 C 53.479 114.627,55.897 112.723,58.640 111.086 C 62.352 108.872,63.975 106.571,63.996 103.492 C 64.003 102.457,62.565 102.168,60.360 102.761 M252.646 105.608 C 251.829 106.593,253.349 110.608,255.220 112.406 C 256.064 113.217,258.424 114.833,258.764 114.833 C 259.866 114.833,265.043 120.080,267.151 123.333 C 269.355 126.735,273.242 135.981,272.642 136.395 C 272.610 136.417,272.043 136.643,271.383 136.896 C 266.196 138.885,264.353 143.997,268.627 144.536 C 268.981 144.580,268.946 144.662,268.094 145.792 C 267.080 147.136,265.460 150.239,264.192 153.262 C 263.252 155.507,263.081 156.107,262.262 160.083 C 261.341 164.549,260.675 166.235,259.189 167.860 C 255.577 171.813,255.137 172.665,255.508 175.000 C 255.753 176.547,255.775 176.591,256.462 176.886 C 259.433 178.160,265.281 177.699,267.757 175.995 C 269.522 174.781,269.741 174.068,269.986 168.750 C 270.296 162.024,271.042 159.452,272.750 159.224 C 273.713 159.095,274.098 159.482,275.208 161.690 C 278.399 168.039,285.153 174.296,290.917 176.243 C 294.566 177.476,302.250 176.584,304.255 174.694 C 304.676 174.297,304.946 174.203,305.881 174.128 C 307.209 174.022,308.672 173.372,309.204 172.651 C 309.476 172.284,309.698 172.167,310.120 172.167 C 310.427 172.167,310.956 172.047,311.297 171.901 C 311.638 171.755,312.292 171.523,312.750 171.385 C 315.109 170.676,316.341 169.581,316.465 168.081 C 316.624 166.173,314.609 164.404,308.369 160.970 C 303.732 158.417,302.636 157.345,299.372 152.167 C 296.154 147.063,294.006 144.641,291.484 143.276 C 289.083 141.977,288.667 141.615,288.667 140.826 C 288.667 139.230,287.270 137.793,284.781 136.824 L 283.600 136.364 283.231 134.891 C 282.222 130.850,280.097 126.021,277.922 122.827 C 274.391 117.643,272.625 115.750,266.825 110.940 C 265.327 109.697,259.440 106.501,257.747 106.012 C 255.484 105.357,253.016 105.162,252.646 105.608 M154.833 107.191 C 151.957 107.666,148.987 112.528,150.471 114.333 L 150.813 114.750 151.448 114.417 C 151.886 114.187,152.187 113.858,152.417 113.358 C 153.800 110.349,154.398 109.672,155.785 109.547 C 157.241 109.416,158.442 110.583,159.497 113.154 C 160.828 116.397,162.257 116.552,162.243 113.453 C 162.229 110.283,160.247 107.924,157.024 107.240 C 156.415 107.111,155.879 107.013,155.833 107.022 C 155.787 107.032,155.337 107.107,154.833 107.191 M43.387 133.981 C 47.741 135.142,50.885 138.569,49.292 140.416 C 48.284 141.585,46.735 141.328,45.147 139.730 C 44.475 139.054,43.850 138.500,43.759 138.500 C 43.667 138.500,44.097 139.008,44.713 139.629 C 45.329 140.250,45.833 140.798,45.833 140.847 C 45.833 140.896,46.197 141.314,46.642 141.776 C 49.716 144.965,52.231 150.416,53.483 156.603 C 54.601 162.126,55.037 163.204,57.123 165.601 C 57.850 166.436,58.954 167.771,59.576 168.568 L 60.708 170.018 60.517 171.504 C 60.274 173.404,60.264 173.425,59.488 173.735 C 57.263 174.626,52.799 174.455,50.250 173.383 C 47.726 172.322,47.154 171.328,46.974 167.688 C 46.572 159.601,46.115 157.268,44.715 156.174 L 44.250 155.811 46.083 155.883 C 47.265 155.929,47.680 155.907,47.250 155.820 C 46.883 155.746,45.744 155.682,44.718 155.676 L 42.852 155.667 42.277 156.208 C 41.961 156.506,41.425 157.313,41.086 158.000 C 39.456 161.300,34.528 167.287,31.675 169.433 C 27.332 172.700,22.432 174.062,17.875 173.268 C 14.873 172.746,12.167 171.627,12.167 170.908 C 12.167 170.775,12.050 170.667,11.908 170.667 C 11.412 170.667,11.126 169.582,11.344 168.526 C 11.831 166.162,12.257 165.888,19.667 163.172 C 26.147 160.797,28.821 159.331,31.408 156.737 C 33.173 154.967,35.862 151.167,35.349 151.167 C 35.249 151.167,35.167 151.227,35.167 151.300 C 35.167 151.775,32.611 155.267,31.357 156.506 C 28.635 159.194,25.790 160.731,18.583 163.404 C 13.635 165.239,12.612 165.720,11.967 166.517 C 11.323 167.313,10.884 169.137,11.137 169.961 C 11.378 170.748,11.268 170.833,10.224 170.664 C 6.994 170.141,5.953 167.372,8.235 165.369 C 9.831 163.968,11.648 162.972,15.758 161.248 C 21.319 158.914,25.366 156.098,26.676 153.649 C 26.999 153.046,26.683 153.340,25.654 154.599 C 23.622 157.085,21.592 158.426,16.284 160.785 C 8.715 164.149,6.769 165.596,6.769 167.861 L 6.769 168.667 6.144 168.667 C 5.007 168.667,4.215 167.976,3.945 166.750 C 3.878 166.444,3.870 166.446,3.853 166.781 C 3.842 166.981,3.906 167.337,3.996 167.572 C 4.426 168.704,1.329 167.194,0.697 165.964 C -0.312 163.997,1.359 162.327,7.917 158.751 C 11.230 156.944,11.731 156.578,13.722 154.504 C 15.263 152.898,15.997 151.872,19.408 146.555 C 21.090 143.934,23.042 142.041,25.398 140.747 C 27.723 139.470,28.166 139.068,28.170 138.225 C 28.179 136.782,29.235 135.488,31.078 134.663 C 32.375 134.083,33.000 133.931,33.000 134.195 C 33.000 134.311,33.088 134.278,33.208 134.117 C 33.724 133.424,40.937 133.328,43.387 133.981 M282.399 136.645 C 282.757 136.735,283.103 136.898,283.170 137.006 C 283.253 137.139,283.326 137.146,283.400 137.027 C 283.537 136.806,284.482 137.127,285.859 137.861 C 287.472 138.720,288.330 139.965,288.332 141.450 C 288.334 142.101,288.731 142.425,291.083 143.688 C 293.351 144.906,295.280 146.806,297.100 149.615 C 297.824 150.732,298.992 152.532,299.694 153.615 C 301.938 157.073,304.356 159.505,306.782 160.745 C 316.065 165.489,318.250 168.337,314.119 170.314 C 312.533 171.073,312.257 171.126,312.408 170.644 C 313.176 168.183,311.591 165.818,308.290 164.496 C 304.247 162.878,302.152 161.583,299.454 159.036 L 297.583 157.271 299.417 159.143 C 301.928 161.707,303.975 162.969,308.625 164.823 C 310.053 165.392,310.835 166.092,312.078 167.917 C 313.136 169.471,312.021 171.667,310.173 171.667 L 309.532 171.667 309.621 171.004 C 309.918 168.783,307.690 167.012,300.870 164.051 C 295.163 161.574,292.879 160.102,290.788 157.554 C 289.788 156.336,289.513 156.074,289.814 156.625 C 291.216 159.192,294.541 161.514,300.500 164.086 C 308.348 167.474,310.774 169.791,308.899 172.109 C 307.972 173.255,304.663 174.372,305.082 173.398 C 305.534 172.348,305.267 170.585,304.495 169.519 C 303.851 168.631,302.383 167.936,297.250 166.089 C 288.847 163.065,285.455 160.785,282.371 156.087 C 281.049 154.074,280.758 153.737,281.504 155.083 C 284.481 160.454,287.613 162.676,297.408 166.365 C 303.501 168.659,304.042 168.943,304.665 170.164 C 305.360 171.525,305.199 173.667,304.403 173.667 C 304.262 173.667,304.190 173.737,304.243 173.822 C 304.421 174.110,303.172 174.874,301.730 175.359 C 295.871 177.327,290.007 176.297,284.740 172.373 C 281.828 170.204,276.513 163.650,275.110 160.500 C 274.886 159.996,274.433 159.347,274.104 159.058 L 273.506 158.533 271.167 158.569 C 269.517 158.594,268.768 158.667,268.623 158.819 C 268.455 158.994,268.573 159.016,269.250 158.937 C 272.437 158.568,272.245 158.527,271.421 159.400 C 270.286 160.604,269.724 163.508,269.510 169.263 C 269.330 174.138,268.944 174.957,266.252 176.178 C 263.621 177.371,258.084 177.478,256.381 176.370 C 256.270 176.297,256.060 175.502,255.915 174.602 L 255.652 172.966 256.320 172.108 C 256.687 171.636,257.780 170.324,258.750 169.192 C 261.300 166.213,261.770 165.117,262.838 159.663 C 264.130 153.065,266.598 148.069,270.804 143.533 C 271.850 142.406,272.670 141.448,272.627 141.405 C 272.584 141.362,271.998 141.907,271.324 142.616 L 270.099 143.905 269.091 143.959 C 266.766 144.085,266.046 142.363,267.525 140.214 C 268.722 138.474,271.692 136.958,274.917 136.441 C 275.750 136.308,281.705 136.470,282.399 136.645 M230.967 139.060 C 227.547 140.291,223.273 143.598,221.679 146.247 C 219.582 149.733,222.954 154.709,226.544 153.428 C 229.864 152.244,234.722 146.211,235.496 142.311 C 235.994 139.801,233.628 138.103,230.967 139.060 M233.607 139.345 C 235.644 140.331,235.798 141.759,234.208 144.916 C 231.115 151.059,225.953 154.783,223.378 152.729 C 222.528 152.051,221.278 149.584,221.278 148.585 C 221.278 144.748,230.497 137.839,233.607 139.345 M16.917 156.102 C 14.308 158.605,11.984 160.033,7.860 161.666 C 6.180 162.331,3.833 164.601,3.833 165.561 C 3.833 165.655,4.045 165.398,4.304 164.991 C 5.496 163.116,6.219 162.563,8.992 161.406 C 13.036 159.718,14.596 158.694,17.330 155.931 C 19.422 153.816,19.205 153.906,16.917 156.102 M165.232 196.117 L 163.380 196.177 163.255 197.547 C 163.187 198.300,163.082 203.342,163.022 208.750 C 162.898 219.905,162.994 219.203,161.502 219.862 C 160.652 220.238,160.470 220.405,160.093 221.147 C 159.707 221.909,159.603 222.000,159.121 222.000 C 156.793 222.000,155.540 223.500,154.980 226.958 C 154.794 228.109,154.763 228.167,154.338 228.167 C 153.203 228.167,152.844 229.619,153.525 231.452 C 155.113 235.728,171.322 244.184,182.250 246.438 C 189.349 247.902,191.881 247.617,198.542 244.604 L 199.500 244.171 199.500 243.241 C 199.500 242.328,199.312 241.747,198.909 241.417 C 198.791 241.320,198.666 240.617,198.611 239.750 C 198.391 236.277,197.078 233.727,194.952 232.642 C 193.755 232.032,185.462 230.741,183.667 230.886 C 182.606 230.972,182.548 230.955,180.892 230.070 C 179.962 229.573,179.014 229.167,178.787 229.167 C 178.481 229.167,178.318 229.031,178.157 228.645 C 178.039 228.357,177.769 227.918,177.558 227.668 L 177.176 227.213 178.880 226.416 C 183.444 224.280,184.397 223.466,184.302 221.784 L 184.236 220.618 183.350 219.803 C 180.833 217.488,179.235 217.889,177.658 221.232 C 176.916 222.804,176.785 222.713,176.501 220.427 C 176.113 217.303,174.938 215.667,173.084 215.667 C 170.731 215.667,170.242 218.613,172.136 221.374 C 172.669 222.152,173.719 224.167,173.591 224.167 C 173.281 224.167,170.850 222.419,170.699 222.087 C 170.595 221.860,170.430 221.016,170.333 220.212 C 170.171 218.878,169.412 214.209,168.957 211.750 C 168.658 210.131,168.725 200.543,169.047 198.982 C 169.631 196.149,169.406 195.980,165.232 196.117 M136.000 196.274 C 135.434 196.430,135.383 197.011,135.632 200.514 C 136.502 212.780,135.612 224.047,133.680 225.242 C 133.592 225.296,133.741 224.907,134.011 224.378 C 135.427 221.603,134.605 219.162,132.394 219.577 C 131.399 219.763,130.950 220.379,130.256 222.506 C 129.914 223.557,129.341 224.973,128.984 225.653 C 128.626 226.333,128.326 227.045,128.318 227.236 C 128.309 227.427,128.122 226.587,127.903 225.370 C 127.118 221.023,126.996 220.834,124.950 220.834 C 122.785 220.833,122.054 222.137,122.776 224.711 C 123.087 225.822,124.237 226.941,126.625 228.457 C 127.290 228.879,127.833 229.285,127.833 229.360 C 127.833 229.642,126.120 230.366,125.665 230.275 C 125.028 230.147,123.628 230.552,122.970 231.054 C 122.414 231.478,122.413 231.478,121.998 231.155 C 121.067 230.430,118.882 230.082,116.603 230.295 C 115.527 230.396,114.821 230.372,114.020 230.207 C 111.214 229.629,108.216 231.187,106.930 233.892 C 106.325 235.165,105.921 236.767,106.093 237.216 C 106.161 237.392,106.043 237.623,105.759 237.869 C 105.262 238.300,104.965 240.657,105.300 241.510 C 105.681 242.480,110.989 245.717,113.791 246.687 L 115.417 247.250 120.000 247.250 C 132.288 247.250,142.081 244.864,146.409 240.816 C 148.770 238.608,149.689 235.863,148.169 235.559 C 147.672 235.459,147.667 235.447,147.661 234.354 C 147.643 230.894,146.306 228.000,144.725 228.000 C 144.356 228.000,144.333 227.940,144.331 226.958 C 144.328 225.610,144.091 225.167,143.127 224.706 C 142.136 224.232,142.207 224.696,142.089 217.917 C 141.887 206.247,141.496 198.350,141.081 197.554 C 140.946 197.295,140.835 196.950,140.834 196.788 C 140.833 196.264,137.371 195.896,136.000 196.274 M173.833 216.583 C 174.899 217.135,175.573 218.526,175.850 220.750 C 175.941 221.483,176.163 222.388,176.341 222.761 C 176.739 223.589,176.741 223.454,176.313 224.861 L 175.960 226.024 175.464 225.554 C 175.191 225.295,174.592 224.333,174.133 223.417 C 173.673 222.500,173.115 221.507,172.892 221.211 C 171.431 219.268,171.272 217.018,172.559 216.499 C 173.078 216.289,173.293 216.304,173.833 216.583 M181.978 219.679 C 184.863 221.605,184.381 222.751,179.681 225.149 C 176.576 226.733,176.748 226.719,177.173 225.353 C 177.353 224.776,177.500 224.150,177.500 223.961 C 177.500 222.519,178.927 219.895,180.040 219.292 C 180.771 218.895,180.820 218.905,181.978 219.679 M133.708 220.692 C 134.896 222.096,131.635 228.674,129.657 228.863 C 128.596 228.964,128.596 227.744,129.656 226.073 C 129.916 225.664,130.455 224.305,130.855 223.054 C 131.766 220.201,132.664 219.458,133.708 220.692 M126.091 221.701 C 126.528 221.900,126.594 222.138,127.257 225.917 C 127.715 228.524,127.805 228.406,126.218 227.277 C 124.187 225.831,123.725 225.334,123.410 224.253 C 122.765 222.034,124.079 220.784,126.091 221.701 M160.422 223.916 C 163.950 228.604,170.162 230.953,174.001 229.052 C 174.850 228.631,175.123 228.561,175.311 228.717 C 175.499 228.874,175.587 228.850,175.733 228.604 C 175.834 228.433,176.041 228.135,176.192 227.940 L 176.468 227.586 177.067 228.222 C 177.825 229.025,177.829 229.010,176.789 229.466 C 175.096 230.208,172.501 233.728,172.893 234.749 C 173.097 235.279,173.442 234.936,174.114 233.536 C 175.295 231.075,177.452 229.108,178.078 229.920 C 178.316 230.228,178.348 230.231,178.554 229.967 C 178.803 229.647,178.816 229.652,180.574 230.727 C 181.118 231.061,181.636 231.333,181.724 231.333 C 181.811 231.333,181.588 231.547,181.227 231.809 C 180.425 232.390,178.500 234.497,178.500 234.795 C 178.500 235.404,179.056 235.104,180.259 233.846 C 181.842 232.188,182.436 231.796,183.145 231.937 C 183.558 232.020,183.667 231.985,183.667 231.771 C 183.667 231.406,184.356 231.418,187.140 231.834 C 188.363 232.017,189.413 232.168,189.473 232.170 C 189.534 232.172,189.079 232.352,188.462 232.569 C 185.945 233.458,181.498 237.699,183.125 237.660 C 183.285 237.656,183.699 237.286,184.045 236.837 C 187.734 232.052,194.029 231.234,196.598 235.205 C 197.229 236.181,197.818 238.161,197.937 239.705 L 198.045 241.116 197.064 241.209 C 196.481 241.265,195.297 241.612,194.143 242.066 C 188.879 244.137,182.448 243.111,173.500 238.771 C 171.384 237.744,170.946 237.474,164.041 232.933 C 158.813 229.494,157.697 228.836,156.371 228.409 L 155.493 228.126 155.593 227.521 C 156.085 224.577,156.838 223.272,158.299 222.831 C 159.284 222.534,159.442 222.615,160.422 223.916 M145.264 228.982 C 146.196 229.550,147.103 232.545,146.967 234.604 L 146.917 235.372 145.500 235.775 C 144.721 235.996,142.883 236.594,141.417 237.103 C 139.950 237.612,138.300 238.181,137.750 238.369 C 137.200 238.556,136.037 238.971,135.167 239.292 C 123.203 243.691,117.355 244.382,112.230 242.003 C 106.422 239.308,105.223 236.158,108.687 232.694 C 112.453 228.928,116.737 230.592,119.671 236.958 C 120.062 237.806,120.427 238.499,120.483 238.497 C 121.611 238.469,119.254 233.663,117.224 231.853 L 116.317 231.045 117.284 230.941 C 119.130 230.742,121.761 231.438,121.954 232.177 C 121.996 232.338,122.167 232.505,122.334 232.549 C 122.727 232.651,123.567 234.122,124.019 235.500 C 124.431 236.754,124.507 236.868,124.809 236.682 C 125.190 236.446,124.322 233.828,123.475 232.658 L 123.024 232.036 123.409 231.674 C 123.998 231.120,125.252 230.785,125.521 231.109 C 125.656 231.271,125.891 231.330,126.176 231.273 C 126.993 231.110,127.656 231.962,128.653 234.458 C 129.489 236.550,129.860 237.059,130.097 236.441 C 130.181 236.222,129.153 233.431,128.491 232.083 C 128.311 231.717,127.940 231.267,127.666 231.083 C 127.060 230.678,127.052 230.606,127.583 230.364 C 127.951 230.196,128.000 230.212,128.000 230.504 C 128.000 230.722,128.112 230.833,128.333 230.833 C 128.556 230.833,128.667 230.722,128.667 230.500 C 128.667 230.317,128.742 230.167,128.833 230.167 C 128.925 230.167,129.000 230.054,129.000 229.917 C 129.000 229.183,130.249 229.634,130.927 230.612 C 131.900 232.014,132.464 232.250,134.839 232.250 L 136.762 232.250 138.506 231.380 C 139.465 230.902,140.737 230.235,141.333 229.898 C 143.439 228.707,144.434 228.475,145.264 228.982 " stroke="none" fill="#711e27" fill-rule="evenodd"></path><path id="path2" d="M148.132 0.085 C 148.105 0.110,147.071 0.178,145.833 0.237 C 143.744 0.337,141.146 0.569,140.167 0.743 C 139.938 0.784,139.375 0.862,138.917 0.915 C 131.285 1.807,121.462 4.458,113.194 7.857 C 111.850 8.409,110.512 8.932,110.222 9.018 C 108.653 9.484,100.195 13.986,97.442 15.821 C 95.756 16.945,94.342 17.833,94.240 17.833 C 94.192 17.833,94.062 17.912,93.951 18.007 C 93.841 18.103,93.128 18.591,92.368 19.091 C 90.924 20.041,90.858 20.088,90.140 20.704 C 89.896 20.912,88.940 21.677,88.015 22.402 C 87.090 23.127,86.333 23.736,86.333 23.757 C 86.333 23.777,87.035 24.141,87.892 24.567 C 90.687 25.954,91.967 27.412,93.660 31.136 C 94.188 32.299,95.264 34.563,96.051 36.167 C 100.106 44.438,99.630 48.071,93.633 54.626 C 90.307 58.262,89.782 59.956,89.504 67.955 C 89.190 76.979,88.347 78.119,80.828 79.692 C 76.214 80.658,70.068 80.242,65.000 78.622 C 63.462 78.130,63.291 78.112,59.000 77.990 C 54.166 77.853,52.870 77.655,52.972 77.069 C 53.009 76.860,52.972 76.807,52.866 76.917 C 52.445 77.348,51.733 83.019,51.479 87.949 C 51.247 92.445,51.807 105.784,52.249 106.297 C 52.271 106.324,53.781 105.591,55.603 104.669 C 63.369 100.741,65.770 101.631,62.864 107.359 C 61.944 109.171,61.623 109.454,58.111 111.541 C 55.962 112.818,53.046 115.170,53.234 115.475 C 53.272 115.536,53.351 116.474,53.410 117.558 C 53.469 118.643,53.548 119.842,53.585 120.224 C 53.754 121.964,53.820 122.903,53.920 125.000 C 53.979 126.242,54.143 127.623,54.285 128.083 C 54.657 129.284,59.237 138.132,61.015 141.083 C 61.673 142.176,62.333 143.400,62.333 143.527 C 62.333 143.723,63.976 146.630,67.570 152.795 C 71.762 159.984,72.994 161.479,82.944 171.443 C 85.525 174.029,87.925 176.337,88.277 176.572 C 88.629 176.808,89.442 177.418,90.083 177.928 C 91.610 179.142,94.813 181.359,96.963 182.690 C 97.906 183.273,98.881 183.879,99.130 184.036 C 99.379 184.194,99.808 184.433,100.083 184.568 C 100.358 184.704,100.883 184.978,101.250 185.179 C 101.617 185.380,102.036 185.602,102.182 185.674 C 102.328 185.745,103.940 186.554,105.765 187.471 C 111.229 190.217,119.184 193.309,123.000 194.170 C 123.504 194.284,124.479 194.524,125.167 194.704 C 128.239 195.509,133.752 196.711,135.167 196.886 C 135.308 196.903,135.439 196.762,135.468 196.559 C 135.515 196.230,135.652 196.192,137.165 196.083 C 139.863 195.890,140.996 196.177,141.003 197.054 C 141.007 197.734,141.206 197.802,144.085 198.105 C 147.205 198.434,158.440 198.544,161.534 198.277 L 163.152 198.137 163.201 197.110 L 163.250 196.083 165.982 196.037 C 168.972 195.987,169.333 196.087,169.333 196.961 C 169.333 197.440,169.327 197.441,173.167 196.739 C 187.744 194.076,203.211 187.652,214.000 179.777 C 214.596 179.342,215.780 178.483,216.633 177.868 C 219.665 175.679,220.652 174.889,223.102 172.685 C 225.593 170.445,229.884 166.318,230.671 165.405 C 234.912 160.489,237.453 157.384,238.805 155.467 C 239.597 154.345,243.796 147.716,244.327 146.750 C 244.630 146.200,244.933 145.675,245.001 145.583 C 245.361 145.098,248.833 137.997,248.833 137.745 C 248.833 137.687,249.423 136.164,250.143 134.361 C 252.773 127.778,254.651 121.053,255.677 114.541 L 255.893 113.166 254.964 112.291 C 253.134 110.570,251.633 106.288,252.583 105.500 C 252.837 105.289,255.218 105.349,256.194 105.590 C 256.627 105.697,256.642 105.676,256.756 104.763 C 256.980 102.965,256.730 92.001,256.445 91.167 C 256.304 90.754,256.184 90.548,256.178 90.708 C 256.169 90.946,256.011 91.000,255.324 91.000 C 253.424 91.000,253.136 90.832,250.500 88.181 C 245.948 83.603,243.554 82.883,239.482 84.868 C 236.672 86.238,236.695 86.200,236.714 89.452 C 236.764 98.293,233.920 100.305,224.750 97.920 C 219.687 96.603,218.828 96.605,217.345 97.938 C 215.113 99.944,215.098 102.724,217.301 105.946 C 218.933 108.332,219.360 108.559,223.548 109.272 C 232.359 110.772,234.880 113.149,233.785 118.927 C 232.786 124.197,230.688 127.023,223.833 132.330 C 216.081 138.332,214.385 141.233,212.575 151.583 C 210.942 160.927,209.160 164.301,202.090 171.444 L 200.083 173.470 197.250 174.831 C 193.532 176.617,191.288 177.570,190.192 177.830 C 188.970 178.119,185.506 177.920,184.583 177.507 C 183.883 177.193,181.333 175.086,181.333 174.821 C 181.333 174.736,181.193 174.526,181.021 174.354 C 180.155 173.489,178.871 169.299,177.668 163.417 C 175.075 150.742,171.897 147.502,161.399 146.828 C 155.014 146.419,153.666 145.830,152.262 142.837 C 150.187 138.416,151.044 136.151,155.828 133.418 C 159.346 131.408,159.629 131.046,160.353 127.636 C 161.369 122.845,163.184 117.975,164.343 116.928 C 166.239 115.215,167.762 114.906,174.022 114.965 C 182.337 115.043,183.881 114.620,189.616 110.692 C 192.136 108.967,194.241 106.173,196.733 101.250 C 199.731 95.326,199.413 92.548,195.379 89.417 C 190.913 85.951,188.551 85.680,185.179 88.248 C 182.586 90.221,181.515 90.393,179.155 89.215 C 175.467 87.375,174.587 86.008,173.697 80.743 C 172.484 73.574,170.973 72.488,163.527 73.435 C 157.803 74.163,155.095 73.634,152.833 71.346 C 150.083 68.563,148.710 64.539,148.877 59.750 C 149.035 55.214,150.109 53.292,153.333 51.769 C 156.997 50.039,158.457 49.953,163.263 51.184 C 169.497 52.780,170.304 52.563,173.950 48.304 C 176.462 45.370,178.475 44.354,182.324 44.082 C 191.452 43.434,195.140 36.105,190.751 27.333 C 186.423 18.681,187.160 14.828,194.085 9.920 C 195.942 8.604,195.860 8.769,194.875 8.326 C 186.307 4.465,172.639 1.027,163.417 0.413 C 162.500 0.351,161.487 0.269,161.167 0.230 C 160.525 0.151,148.211 0.014,148.132 0.085 M105.501 19.789 C 106.462 21.011,105.258 22.810,103.736 22.428 C 102.516 22.122,102.050 20.495,102.930 19.616 C 103.655 18.890,104.858 18.971,105.501 19.789 M137.541 21.915 C 139.583 22.439,140.582 22.995,141.348 24.034 C 145.181 29.236,143.230 36.709,137.200 39.912 C 134.697 41.242,133.933 41.941,132.703 44.036 C 129.478 49.522,126.193 51.813,121.333 51.964 C 115.336 52.150,111.732 48.461,110.398 40.770 C 109.739 36.971,110.787 35.374,116.149 32.005 C 118.915 30.267,120.319 29.145,123.231 26.347 C 128.481 21.300,131.502 20.364,137.541 21.915 M96.988 23.772 C 97.938 24.980,96.681 26.555,95.340 25.837 C 94.973 25.640,94.641 24.769,94.782 24.370 C 95.155 23.311,96.367 22.983,96.988 23.772 M171.000 30.172 C 176.819 30.785,178.625 32.988,177.170 37.699 C 175.495 43.122,166.011 46.442,159.896 43.747 C 156.188 42.112,155.517 37.210,158.565 34.025 C 161.841 30.602,165.197 29.562,171.000 30.172 M133.369 90.696 C 135.836 92.061,135.670 95.682,133.085 96.856 C 131.550 97.553,129.448 97.003,128.569 95.675 C 126.487 92.529,130.032 88.852,133.369 90.696 M178.744 91.592 C 179.553 91.930,180.620 92.921,181.021 93.708 C 181.588 94.818,181.649 97.167,181.112 97.167 C 180.998 97.167,180.778 97.381,180.624 97.643 C 180.469 97.906,180.052 98.382,179.699 98.701 C 179.345 99.021,179.010 99.400,178.955 99.544 C 178.534 100.641,174.101 99.925,173.731 98.700 C 173.684 98.544,173.463 98.021,173.239 97.538 C 173.016 97.055,172.833 96.472,172.833 96.244 C 172.833 96.016,172.748 95.692,172.643 95.524 C 172.187 94.794,173.088 92.943,174.311 92.097 C 175.634 91.183,177.309 90.992,178.744 91.592 M134.083 99.528 C 138.677 100.668,139.016 106.526,134.610 108.653 C 129.312 111.210,123.122 107.425,124.917 102.725 C 125.928 100.078,130.239 98.575,134.083 99.528 M177.846 101.491 C 183.574 103.274,183.588 110.048,177.865 111.174 C 173.267 112.078,169.091 109.504,169.109 105.775 C 169.126 102.302,173.523 100.146,177.846 101.491 M158.597 107.649 C 161.081 108.811,162.736 111.562,162.443 114.039 C 162.141 116.593,160.646 116.155,159.400 113.148 C 158.098 110.007,156.187 108.889,154.422 110.234 C 153.905 110.629,152.667 112.748,152.667 113.239 C 152.667 113.683,151.388 114.694,150.897 114.638 C 148.838 114.402,150.732 108.955,153.357 107.564 C 154.686 106.860,156.991 106.897,158.597 107.649 M48.167 136.750 C 48.478 137.071,48.770 137.333,48.815 137.333 C 48.861 137.333,48.644 137.071,48.333 136.750 C 48.022 136.429,47.730 136.167,47.685 136.167 C 47.639 136.167,47.856 136.429,48.167 136.750 M233.930 138.580 C 236.731 139.975,236.817 142.376,234.220 146.661 C 228.915 155.416,222.150 156.689,220.485 149.246 C 219.760 146.009,225.248 140.463,231.250 138.368 C 232.112 138.067,233.049 138.141,233.930 138.580 M268.458 143.951 C 268.665 143.991,269.002 143.991,269.208 143.951 C 269.415 143.911,269.246 143.879,268.833 143.879 C 268.421 143.879,268.252 143.911,268.458 143.951 M13.411 155.042 L 12.417 156.083 13.458 155.089 C 14.426 154.164,14.576 154.000,14.453 154.000 C 14.427 154.000,13.959 154.469,13.411 155.042 M17.246 155.542 L 15.917 156.917 17.292 155.587 C 18.048 154.856,18.667 154.237,18.667 154.212 C 18.667 154.091,18.481 154.265,17.246 155.542 M18.091 155.326 L 17.265 156.250 18.166 155.381 C 18.662 154.903,19.034 154.487,18.992 154.457 C 18.951 154.427,18.545 154.818,18.091 155.326 M24.410 155.708 L 23.583 156.583 24.458 155.756 C 24.940 155.301,25.333 154.908,25.333 154.881 C 25.333 154.757,25.179 154.895,24.410 155.708 M24.667 156.083 C 24.262 156.496,23.968 156.833,24.014 156.833 C 24.060 156.833,24.428 156.496,24.833 156.083 C 25.238 155.671,25.532 155.333,25.486 155.333 C 25.440 155.333,25.072 155.671,24.667 156.083 M289.408 156.181 C 289.346 156.281,289.384 156.450,289.491 156.556 C 289.640 156.704,289.657 156.674,289.564 156.429 C 289.466 156.172,289.499 156.131,289.730 156.219 C 289.901 156.285,289.976 156.263,289.915 156.165 C 289.781 155.948,289.547 155.955,289.408 156.181 M16.573 156.875 L 16.083 157.417 16.625 156.927 C 16.923 156.658,17.167 156.414,17.167 156.385 C 17.167 156.257,17.029 156.370,16.573 156.875 M299.333 158.750 C 300.201 159.621,300.948 160.333,300.993 160.333 C 301.039 160.333,300.367 159.621,299.500 158.750 C 298.633 157.879,297.886 157.167,297.840 157.167 C 297.794 157.167,298.466 157.879,299.333 158.750 M302.750 157.833 C 303.108 158.200,303.438 158.500,303.484 158.500 C 303.530 158.500,303.275 158.200,302.917 157.833 C 302.559 157.467,302.228 157.167,302.182 157.167 C 302.137 157.167,302.392 157.467,302.750 157.833 M298.750 158.833 C 299.571 159.658,300.281 160.333,300.326 160.333 C 300.372 160.333,299.738 159.658,298.917 158.833 C 298.095 158.008,297.386 157.333,297.340 157.333 C 297.294 157.333,297.929 158.008,298.750 158.833 M271.044 158.453 C 271.297 158.491,271.672 158.490,271.877 158.451 C 272.082 158.411,271.875 158.380,271.417 158.381 C 270.958 158.382,270.791 158.415,271.044 158.453 M269.542 165.250 C 269.544 165.617,269.578 165.747,269.618 165.540 C 269.658 165.332,269.656 165.032,269.615 164.873 C 269.573 164.714,269.540 164.883,269.542 165.250 M310.167 165.219 C 310.167 165.248,310.410 165.491,310.708 165.760 L 311.250 166.250 310.760 165.708 C 310.304 165.203,310.167 165.090,310.167 165.219 M3.539 166.167 C 3.539 166.487,3.573 166.619,3.615 166.458 C 3.657 166.298,3.657 166.035,3.615 165.875 C 3.573 165.715,3.539 165.846,3.539 166.167 M4.039 166.167 C 4.039 166.487,4.073 166.619,4.115 166.458 C 4.157 166.298,4.157 166.035,4.115 165.875 C 4.073 165.715,4.039 165.846,4.039 166.167 M269.389 168.000 C 269.389 168.688,269.419 168.969,269.455 168.625 C 269.491 168.281,269.491 167.719,269.455 167.375 C 269.419 167.031,269.389 167.313,269.389 168.000 M47.039 167.667 C 47.039 167.987,47.073 168.119,47.115 167.958 C 47.157 167.798,47.157 167.535,47.115 167.375 C 47.073 167.215,47.039 167.346,47.039 167.667 M7.039 167.833 C 7.039 168.154,7.073 168.285,7.115 168.125 C 7.157 167.965,7.157 167.702,7.115 167.542 C 7.073 167.381,7.039 167.512,7.039 167.833 M308.000 167.719 C 308.000 167.748,308.244 167.991,308.542 168.260 L 309.083 168.750 308.594 168.208 C 308.138 167.703,308.000 167.590,308.000 167.719 M10.294 170.618 C 10.501 170.658,10.801 170.656,10.960 170.615 C 11.120 170.573,10.950 170.540,10.583 170.542 C 10.217 170.544,10.086 170.578,10.294 170.618 M269.209 172.250 C 269.211 172.617,269.245 172.747,269.285 172.540 C 269.324 172.332,269.323 172.032,269.281 171.873 C 269.239 171.714,269.207 171.883,269.209 172.250 " stroke="none" fill="#abebeb" fill-rule="evenodd"></path><path id="path3" d="M149.044 0.120 C 149.297 0.158,149.672 0.157,149.877 0.117 C 150.082 0.078,149.875 0.046,149.417 0.048 C 148.958 0.049,148.791 0.081,149.044 0.120 M157.211 0.120 C 157.464 0.158,157.839 0.157,158.044 0.117 C 158.249 0.078,158.042 0.046,157.583 0.048 C 157.125 0.049,156.957 0.081,157.211 0.120 M103.805 19.131 C 102.602 19.281,102.030 21.045,102.902 21.917 C 103.663 22.678,104.709 22.665,105.431 21.886 C 106.490 20.742,105.420 18.928,103.805 19.131 M95.221 23.708 C 94.741 24.241,94.655 24.585,94.858 25.165 C 95.326 26.507,97.333 26.146,97.333 24.720 C 97.333 23.520,95.976 22.869,95.221 23.708 M67.806 48.640 C 65.268 52.506,62.229 58.956,61.314 62.414 C 60.878 64.062,60.544 65.433,60.572 65.461 C 60.709 65.598,61.671 65.794,61.730 65.696 C 61.767 65.634,62.140 64.305,62.559 62.744 C 63.480 59.311,66.546 52.767,68.856 49.306 C 70.277 47.177,70.246 47.376,69.249 46.795 C 69.157 46.741,68.507 47.572,67.806 48.640 M35.917 133.609 C 35.642 133.641,35.017 133.711,34.528 133.764 C 33.956 133.826,33.545 133.972,33.371 134.174 C 33.184 134.393,33.042 134.438,32.902 134.321 C 32.645 134.108,31.297 134.608,30.152 135.343 C 28.942 136.119,28.488 136.791,28.343 138.024 C 28.196 139.271,28.079 139.387,25.563 140.794 C 22.330 142.603,21.175 143.904,17.169 150.250 C 14.392 154.649,12.630 156.342,8.583 158.503 C 0.835 162.641,-1.098 165.001,1.684 166.928 C 2.616 167.575,4.063 168.095,3.857 167.710 C 2.740 165.624,4.764 162.686,8.250 161.333 C 12.231 159.787,14.058 158.642,16.709 156.030 C 18.288 154.474,18.708 154.142,18.875 154.314 C 19.043 154.485,18.713 154.881,17.186 156.346 C 14.555 158.869,12.458 160.170,8.197 161.919 C 4.529 163.425,2.807 167.218,5.261 168.388 C 6.341 168.903,6.630 168.790,6.616 167.860 C 6.583 165.672,9.029 163.714,14.875 161.246 C 21.213 158.571,23.998 156.695,26.347 153.517 C 26.685 153.060,27.000 152.968,27.000 153.327 C 27.000 153.404,26.505 154.080,25.899 154.830 C 23.820 157.406,21.576 158.836,15.194 161.653 C 8.209 164.737,6.070 166.795,7.542 169.017 C 8.344 170.228,11.402 171.141,10.985 170.045 C 10.864 169.726,10.868 169.269,10.999 168.518 C 11.435 166.016,12.012 165.608,18.481 163.231 C 28.315 159.617,30.687 158.023,34.180 152.675 C 35.481 150.685,36.029 150.625,34.824 152.605 C 31.601 157.901,28.521 160.053,19.126 163.571 C 12.895 165.904,12.456 166.124,11.912 167.175 C 11.230 168.495,11.290 170.500,12.013 170.500 C 12.220 170.500,12.333 170.615,12.333 170.826 C 12.333 171.987,17.721 173.453,21.397 173.293 C 25.515 173.113,30.984 170.459,34.101 167.127 C 36.613 164.441,39.925 159.976,40.994 157.832 C 41.291 157.237,41.804 156.469,42.134 156.125 L 42.734 155.500 44.594 155.500 C 46.980 155.500,48.000 155.636,48.000 155.955 C 48.000 156.159,47.744 156.179,46.392 156.077 L 44.783 155.957 45.225 156.536 C 46.279 157.917,46.765 160.463,47.016 165.917 C 47.223 170.403,47.284 170.708,48.176 171.721 C 49.971 173.760,55.140 174.761,58.807 173.779 C 60.020 173.455,60.121 173.308,60.354 171.554 L 60.557 170.025 59.288 168.448 C 58.591 167.581,57.525 166.319,56.920 165.644 C 55.134 163.652,54.510 162.090,53.500 157.083 C 52.252 150.898,49.654 145.191,46.598 141.920 C 46.086 141.372,45.667 140.883,45.667 140.832 C 45.667 140.782,45.179 140.257,44.583 139.667 C 43.987 139.076,43.500 138.535,43.500 138.463 C 43.500 138.101,44.022 138.459,45.260 139.667 C 47.763 142.110,50.513 140.997,49.187 138.078 C 48.548 136.670,45.452 134.485,43.720 134.218 C 43.370 134.164,43.008 134.062,42.917 133.991 C 42.448 133.628,37.872 133.378,35.917 133.609 M274.583 136.686 C 274.125 136.767,273.611 136.914,273.442 137.012 C 273.273 137.110,273.095 137.151,273.048 137.104 C 272.491 136.547,268.146 139.300,267.326 140.729 C 265.609 143.724,268.594 145.083,271.232 142.508 C 272.090 141.670,272.664 141.229,272.792 141.308 C 272.929 141.392,272.645 141.778,271.914 142.503 C 271.319 143.092,270.833 143.624,270.833 143.685 C 270.833 143.745,270.396 144.250,269.861 144.805 C 266.771 148.012,264.288 153.440,262.996 159.813 C 261.897 165.231,261.498 166.163,259.056 169.004 C 258.152 170.056,257.062 171.374,256.632 171.934 L 255.852 172.951 256.006 174.101 C 256.307 176.330,256.286 176.278,256.986 176.558 C 260.085 177.798,265.667 177.016,267.868 175.034 C 269.054 173.965,269.166 173.515,269.341 169.075 C 269.578 163.054,270.071 160.589,271.302 159.271 L 271.750 158.792 270.417 158.906 C 269.683 158.968,268.941 159.034,268.768 159.051 C 268.594 159.069,268.421 158.995,268.383 158.887 C 268.281 158.599,269.613 158.426,271.763 158.447 L 273.610 158.465 274.201 159.024 C 274.526 159.332,275.033 160.071,275.328 160.667 C 279.418 168.924,287.989 175.841,294.667 176.274 C 298.090 176.497,303.541 175.107,304.081 173.875 C 304.172 173.669,304.328 173.500,304.429 173.500 C 304.972 173.500,305.132 172.171,304.746 170.871 C 304.240 169.169,303.590 168.765,298.250 166.832 C 290.007 163.847,287.826 162.684,284.819 159.667 C 283.308 158.151,280.833 154.772,280.833 154.224 C 280.833 153.689,281.313 154.083,281.917 155.116 C 284.966 160.328,287.989 162.451,297.391 165.984 C 302.741 167.994,303.805 168.484,304.476 169.248 C 305.319 170.209,305.772 172.346,305.314 173.203 C 304.800 174.164,308.143 172.968,308.887 171.925 C 310.425 169.770,308.056 167.516,301.167 164.583 C 296.502 162.597,294.579 161.528,292.393 159.705 C 290.645 158.247,288.967 155.994,289.635 156.001 C 289.698 156.002,290.200 156.572,290.750 157.268 C 292.967 160.076,294.665 161.147,302.051 164.399 C 307.785 166.923,310.269 169.074,309.767 171.077 C 309.636 171.598,310.300 171.670,311.215 171.233 C 313.654 170.070,311.864 166.248,308.226 164.850 C 304.328 163.351,301.861 161.813,299.138 159.184 C 297.559 157.660,297.300 157.342,297.557 157.240 C 297.798 157.145,298.261 157.511,299.724 158.958 C 302.309 161.515,304.392 162.791,308.664 164.436 C 311.261 165.436,313.214 168.177,312.689 170.081 C 312.462 170.903,312.413 170.885,313.587 170.411 C 314.993 169.844,315.833 168.922,315.833 167.948 C 315.833 166.335,314.325 165.091,308.308 161.740 C 303.432 159.024,301.874 157.461,298.180 151.582 C 295.185 146.817,293.961 145.509,290.833 143.734 C 288.514 142.419,288.043 141.963,288.030 141.025 C 288.007 139.332,285.722 137.328,283.735 137.259 C 283.444 137.249,283.101 137.153,282.973 137.047 C 282.403 136.573,276.614 136.324,274.583 136.686 " stroke="none" fill="#fbfbfb" fill-rule="evenodd"></path><path id="path4" d="M190.911 12.542 L 189.917 13.583 190.958 12.589 C 191.531 12.041,192.000 11.573,192.000 11.547 C 192.000 11.424,191.836 11.574,190.911 12.542 M140.333 23.052 C 140.333 23.081,140.577 23.325,140.875 23.594 L 141.417 24.083 140.927 23.542 C 140.471 23.037,140.333 22.923,140.333 23.052 M124.740 24.875 L 124.250 25.417 124.792 24.927 C 125.090 24.658,125.333 24.414,125.333 24.385 C 125.333 24.257,125.196 24.370,124.740 24.875 M167.958 30.122 C 168.348 30.157,168.985 30.157,169.375 30.122 C 169.765 30.087,169.446 30.058,168.667 30.058 C 167.887 30.058,167.569 30.087,167.958 30.122 M140.075 37.875 L 139.417 38.583 140.125 37.925 C 140.515 37.562,140.833 37.243,140.833 37.216 C 140.833 37.090,140.688 37.216,140.075 37.875 M110.212 39.167 C 110.212 39.579,110.245 39.748,110.284 39.542 C 110.324 39.335,110.324 38.998,110.284 38.792 C 110.245 38.585,110.212 38.754,110.212 39.167 M175.242 40.708 L 174.583 41.417 175.292 40.758 C 175.681 40.395,176.000 40.077,176.000 40.050 C 176.000 39.923,175.855 40.050,175.242 40.708 M164.877 44.786 C 165.131 44.825,165.506 44.824,165.711 44.784 C 165.916 44.744,165.708 44.713,165.250 44.714 C 164.792 44.716,164.624 44.748,164.877 44.786 M174.991 47.125 L 174.417 47.750 175.042 47.176 C 175.385 46.860,175.667 46.578,175.667 46.551 C 175.667 46.423,175.526 46.543,174.991 47.125 M129.242 48.542 L 128.583 49.250 129.292 48.591 C 129.950 47.978,130.077 47.833,129.950 47.833 C 129.923 47.833,129.605 48.152,129.242 48.542 M113.500 48.719 C 113.500 48.748,113.744 48.991,114.042 49.260 L 114.583 49.750 114.094 49.208 C 113.638 48.703,113.500 48.590,113.500 48.719 M172.573 49.875 L 172.083 50.417 172.625 49.927 C 173.130 49.471,173.243 49.333,173.115 49.333 C 173.086 49.333,172.842 49.577,172.573 49.875 M93.742 54.375 L 93.083 55.083 93.792 54.425 C 94.450 53.812,94.577 53.667,94.450 53.667 C 94.423 53.667,94.105 53.985,93.742 54.375 M89.539 65.000 C 89.539 65.321,89.573 65.452,89.615 65.292 C 89.657 65.131,89.657 64.869,89.615 64.708 C 89.573 64.548,89.539 64.679,89.539 65.000 M166.625 73.121 C 166.923 73.158,167.410 73.158,167.708 73.121 C 168.006 73.084,167.762 73.053,167.167 73.053 C 166.571 73.053,166.327 73.084,166.625 73.121 M158.875 73.786 C 159.127 73.824,159.540 73.824,159.792 73.786 C 160.044 73.748,159.837 73.717,159.333 73.717 C 158.829 73.717,158.623 73.748,158.875 73.786 M60.708 77.948 C 60.869 77.990,61.131 77.990,61.292 77.948 C 61.452 77.906,61.321 77.872,61.000 77.872 C 60.679 77.872,60.548 77.906,60.708 77.948 M75.542 80.288 C 75.885 80.324,76.448 80.324,76.792 80.288 C 77.135 80.252,76.854 80.223,76.167 80.223 C 75.479 80.223,75.198 80.252,75.542 80.288 M242.458 83.784 C 242.665 83.824,243.002 83.824,243.208 83.784 C 243.415 83.745,243.246 83.712,242.833 83.712 C 242.421 83.712,242.252 83.745,242.458 83.784 M237.001 86.249 C 236.786 86.478,236.641 86.693,236.680 86.727 C 236.718 86.761,236.924 86.574,237.138 86.311 C 237.615 85.723,237.531 85.685,237.001 86.249 M249.500 87.083 C 249.811 87.404,250.103 87.667,250.149 87.667 C 250.195 87.667,249.978 87.404,249.667 87.083 C 249.356 86.763,249.064 86.500,249.018 86.500 C 248.972 86.500,249.189 86.763,249.500 87.083 M175.667 86.719 C 175.667 86.748,175.910 86.991,176.208 87.260 L 176.750 87.750 176.260 87.208 C 175.804 86.703,175.667 86.590,175.667 86.719 M236.718 89.917 C 236.719 90.467,236.750 90.672,236.787 90.372 C 236.825 90.072,236.824 89.622,236.786 89.372 C 236.748 89.122,236.717 89.367,236.718 89.917 M256.183 90.208 C 256.239 90.913,256.467 91.229,256.483 90.625 C 256.493 90.281,256.425 90.000,256.333 90.000 C 256.242 90.000,256.174 90.094,256.183 90.208 M131.125 90.284 C 131.331 90.324,131.669 90.324,131.875 90.284 C 132.081 90.245,131.912 90.212,131.500 90.212 C 131.087 90.212,130.919 90.245,131.125 90.284 M129.750 90.640 C 127.569 91.970,127.344 95.467,129.373 96.514 C 129.647 96.655,129.595 96.555,129.184 96.146 C 127.492 94.465,127.882 91.775,129.979 90.668 C 130.311 90.492,130.508 90.345,130.417 90.341 C 130.325 90.338,130.025 90.472,129.750 90.640 M176.708 91.282 C 176.869 91.323,177.131 91.323,177.292 91.282 C 177.452 91.240,177.321 91.205,177.000 91.205 C 176.679 91.205,176.548 91.240,176.708 91.282 M175.062 91.653 C 174.684 91.825,174.318 92.056,174.250 92.167 C 174.182 92.277,174.320 92.240,174.558 92.084 C 174.796 91.928,175.312 91.701,175.704 91.578 C 176.096 91.456,176.267 91.352,176.083 91.348 C 175.900 91.344,175.441 91.481,175.062 91.653 M177.681 91.393 C 177.719 91.426,177.975 91.503,178.250 91.565 C 178.615 91.647,178.683 91.631,178.500 91.508 C 178.275 91.355,177.513 91.249,177.681 91.393 M179.449 92.149 C 179.815 92.414,180.320 92.883,180.571 93.191 C 180.822 93.498,180.947 93.589,180.850 93.392 C 180.646 92.979,179.202 91.667,178.952 91.667 C 178.859 91.667,179.083 91.884,179.449 92.149 M134.635 92.083 C 134.719 92.267,134.830 92.529,134.881 92.667 C 134.961 92.883,134.975 92.881,134.987 92.657 C 134.994 92.514,134.883 92.251,134.741 92.074 C 134.486 91.755,134.484 91.755,134.635 92.083 M173.430 92.884 C 172.649 93.908,172.248 95.325,172.667 95.583 C 172.758 95.640,172.836 95.926,172.839 96.218 C 172.842 96.511,172.960 96.938,173.101 97.167 C 173.268 97.440,173.316 97.469,173.239 97.250 C 173.175 97.067,173.071 96.614,173.009 96.244 C 172.948 95.874,172.838 95.475,172.765 95.358 C 172.541 94.995,172.820 94.054,173.412 93.174 C 174.052 92.223,174.063 92.055,173.430 92.884 M135.048 93.750 C 135.049 94.208,135.081 94.376,135.120 94.123 C 135.158 93.869,135.157 93.494,135.117 93.289 C 135.078 93.084,135.046 93.292,135.048 93.750 M134.748 95.006 C 134.685 95.206,134.362 95.681,134.031 96.060 C 133.433 96.745,133.432 96.747,133.979 96.250 C 134.539 95.742,135.090 94.868,134.944 94.722 C 134.900 94.678,134.812 94.805,134.748 95.006 M198.712 95.333 C 198.712 95.746,198.745 95.915,198.784 95.708 C 198.824 95.502,198.824 95.165,198.784 94.958 C 198.745 94.752,198.712 94.921,198.712 95.333 M181.362 95.583 C 181.344 96.042,181.290 96.604,181.243 96.833 L 181.157 97.250 181.336 96.840 C 181.435 96.615,181.488 96.052,181.455 95.590 L 181.395 94.750 181.362 95.583 M173.564 98.214 C 173.681 98.560,173.865 98.917,173.972 99.005 C 174.112 99.121,174.120 99.110,174.000 98.967 C 173.908 98.857,173.833 98.646,173.833 98.499 C 173.833 98.351,173.725 98.085,173.592 97.907 C 173.378 97.620,173.375 97.655,173.564 98.214 M130.532 99.342 C 126.532 99.874,124.509 101.674,124.695 104.534 C 124.926 108.060,128.780 110.300,132.833 109.264 C 140.738 107.244,138.655 98.263,130.532 99.342 M176.544 100.120 C 176.797 100.158,177.172 100.157,177.377 100.117 C 177.582 100.078,177.375 100.046,176.917 100.048 C 176.458 100.049,176.291 100.081,176.544 100.120 M215.542 101.583 C 215.544 101.950,215.578 102.080,215.618 101.873 C 215.658 101.666,215.656 101.366,215.615 101.206 C 215.573 101.047,215.540 101.217,215.542 101.583 M173.000 101.396 C 169.596 102.333,168.216 104.995,169.637 107.882 C 172.229 113.147,182.139 112.235,182.163 106.729 C 182.179 102.903,177.474 100.164,173.000 101.396 M62.410 102.458 C 63.048 102.490,63.685 102.607,63.826 102.717 C 64.052 102.892,64.055 102.881,63.855 102.625 C 63.670 102.390,63.397 102.340,62.438 102.366 L 61.250 102.399 62.410 102.458 M59.198 102.947 C 58.803 103.087,58.509 103.231,58.545 103.267 C 58.581 103.303,59.017 103.188,59.513 103.012 C 60.010 102.835,60.304 102.691,60.167 102.692 C 60.029 102.693,59.593 102.807,59.198 102.947 M252.589 108.083 C 252.644 108.358,252.872 108.958,253.097 109.417 C 253.551 110.345,253.485 110.082,252.887 108.583 C 252.668 108.033,252.534 107.808,252.589 108.083 M160.417 109.000 C 160.775 109.367,161.105 109.667,161.151 109.667 C 161.197 109.667,160.941 109.367,160.583 109.000 C 160.225 108.633,159.895 108.333,159.849 108.333 C 159.803 108.333,160.059 108.633,160.417 109.000 M154.917 109.763 C 154.067 110.206,152.828 111.788,152.839 112.417 C 152.841 112.508,153.080 112.144,153.371 111.608 C 154.532 109.468,156.173 109.074,157.792 110.547 C 158.299 111.009,158.453 111.098,158.240 110.805 C 157.411 109.665,155.970 109.213,154.917 109.763 M253.750 110.833 C 253.892 111.108,254.046 111.333,254.092 111.333 C 254.138 111.333,254.059 111.108,253.917 110.833 C 253.774 110.558,253.621 110.333,253.575 110.333 C 253.529 110.333,253.608 110.558,253.750 110.833 M57.458 111.762 C 56.835 112.100,56.873 112.241,57.500 111.917 C 57.775 111.774,58.000 111.623,58.000 111.579 C 58.000 111.472,57.982 111.478,57.458 111.762 M254.317 111.719 C 254.576 112.043,255.833 113.070,255.833 112.957 C 255.833 112.918,255.440 112.557,254.958 112.156 C 254.477 111.754,254.189 111.558,254.317 111.719 M150.042 113.250 C 150.044 113.617,150.078 113.747,150.118 113.540 C 150.158 113.332,150.156 113.032,150.115 112.873 C 150.073 112.714,150.040 112.883,150.042 113.250 M162.383 113.500 C 162.383 114.004,162.415 114.210,162.453 113.958 C 162.491 113.706,162.491 113.294,162.453 113.042 C 162.415 112.790,162.383 112.996,162.383 113.500 M53.909 114.542 L 53.250 115.250 53.958 114.591 C 54.617 113.978,54.743 113.833,54.617 113.833 C 54.590 113.833,54.271 114.152,53.909 114.542 M173.208 114.948 C 173.369 114.990,173.631 114.990,173.792 114.948 C 173.952 114.906,173.821 114.872,173.500 114.872 C 173.179 114.872,173.048 114.906,173.208 114.948 M30.417 134.985 C 29.958 135.250,29.358 135.718,29.084 136.025 L 28.584 136.583 29.167 136.050 C 29.488 135.756,30.162 135.289,30.667 135.011 C 31.171 134.733,31.508 134.505,31.417 134.505 C 31.325 134.504,30.875 134.720,30.417 134.985 M219.079 136.375 L 217.917 137.583 219.125 136.421 C 220.247 135.342,220.409 135.167,220.287 135.167 C 220.262 135.167,219.718 135.710,219.079 136.375 M47.250 135.783 C 47.787 136.331,48.867 137.185,48.500 136.771 C 48.271 136.512,47.858 136.146,47.583 135.957 C 47.308 135.768,47.158 135.689,47.250 135.783 M276.633 136.457 C 277.394 136.488,278.594 136.488,279.300 136.457 C 280.006 136.426,279.383 136.401,277.917 136.401 C 276.450 136.401,275.872 136.427,276.633 136.457 M273.833 136.675 C 273.552 136.770,273.688 136.785,274.250 136.720 C 274.708 136.667,275.115 136.596,275.153 136.562 C 275.284 136.445,274.250 136.533,273.833 136.675 M281.127 136.618 C 281.334 136.658,281.634 136.656,281.794 136.615 C 281.953 136.573,281.783 136.540,281.417 136.542 C 281.050 136.544,280.920 136.578,281.127 136.618 M272.165 137.073 C 271.393 137.357,269.500 138.315,269.500 138.421 C 269.500 138.467,269.969 138.266,270.542 137.975 C 271.115 137.684,271.996 137.312,272.500 137.148 C 273.004 136.985,273.267 136.853,273.083 136.854 C 272.900 136.856,272.487 136.954,272.165 137.073 M283.324 137.095 C 283.183 137.265,283.180 137.333,283.313 137.333 C 283.416 137.333,283.500 137.259,283.500 137.167 C 283.500 137.076,283.894 137.151,284.375 137.334 C 285.333 137.698,285.572 137.747,285.129 137.489 C 284.337 137.027,283.527 136.850,283.324 137.095 M49.323 138.219 C 49.608 138.974,49.535 139.906,49.150 140.436 L 48.801 140.917 49.252 140.428 C 49.742 139.897,49.802 138.399,49.350 137.952 C 49.189 137.793,49.183 137.849,49.323 138.219 M286.167 138.037 C 286.167 138.069,286.523 138.389,286.958 138.747 C 287.394 139.105,287.600 139.225,287.417 139.014 C 287.093 138.641,286.167 137.917,286.167 138.037 M43.601 138.471 C 43.554 138.547,43.969 139.053,44.523 139.596 C 45.077 140.139,45.594 140.733,45.671 140.917 C 45.768 141.145,45.816 141.170,45.823 140.995 C 45.829 140.855,45.349 140.261,44.758 139.675 C 44.167 139.088,43.721 138.547,43.768 138.471 C 43.815 138.395,43.816 138.333,43.770 138.333 C 43.724 138.333,43.648 138.395,43.601 138.471 M44.660 139.208 C 45.350 139.944,45.500 140.077,45.500 139.951 C 45.500 139.925,45.144 139.568,44.708 139.160 L 43.917 138.417 44.660 139.208 M151.205 139.000 C 151.205 139.321,151.240 139.452,151.282 139.292 C 151.323 139.131,151.323 138.869,151.282 138.708 C 151.240 138.548,151.205 138.679,151.205 139.000 M268.073 139.542 L 267.583 140.083 268.125 139.594 C 268.630 139.138,268.743 139.000,268.615 139.000 C 268.586 139.000,268.342 139.244,268.073 139.542 M287.802 139.750 C 287.886 139.933,287.997 140.196,288.048 140.333 C 288.128 140.549,288.142 140.548,288.154 140.324 C 288.161 140.181,288.050 139.918,287.907 139.740 C 287.652 139.422,287.651 139.422,287.802 139.750 M288.209 141.250 C 288.211 141.617,288.245 141.747,288.285 141.540 C 288.324 141.332,288.323 141.032,288.281 140.873 C 288.239 140.714,288.207 140.883,288.209 141.250 M271.411 142.375 L 270.417 143.417 271.458 142.422 C 272.426 141.498,272.576 141.333,272.453 141.333 C 272.427 141.333,271.959 141.802,271.411 142.375 M271.673 142.579 L 270.595 143.750 271.748 142.631 C 272.382 142.016,272.867 141.489,272.826 141.460 C 272.784 141.432,272.265 141.935,271.673 142.579 M22.073 143.208 C 21.066 144.248,19.794 145.711,20.514 145.000 C 21.325 144.200,23.379 142.000,23.316 142.000 C 23.275 142.000,22.716 142.544,22.073 143.208 M291.000 143.724 C 291.000 143.766,291.416 144.036,291.925 144.323 C 292.433 144.610,293.435 145.386,294.150 146.048 L 295.451 147.250 294.092 145.917 C 292.976 144.821,291.000 143.420,291.000 143.724 M269.817 144.629 C 269.407 145.062,268.925 145.604,268.745 145.833 C 268.565 146.063,268.921 145.728,269.535 145.090 C 270.150 144.452,270.632 143.910,270.608 143.886 C 270.583 143.861,270.228 144.196,269.817 144.629 M49.951 146.745 C 50.197 147.247,50.426 147.629,50.460 147.595 C 50.535 147.520,49.695 145.833,49.582 145.833 C 49.539 145.833,49.705 146.244,49.951 146.745 M158.375 146.615 C 158.535 146.657,158.798 146.657,158.958 146.615 C 159.119 146.573,158.987 146.539,158.667 146.539 C 158.346 146.539,158.215 146.573,158.375 146.615 M160.544 146.786 C 160.797 146.825,161.172 146.824,161.377 146.784 C 161.582 146.744,161.375 146.713,160.917 146.714 C 160.458 146.716,160.291 146.748,160.544 146.786 M50.514 147.917 C 50.514 148.008,50.658 148.346,50.833 148.667 C 51.009 148.987,51.153 149.175,51.153 149.083 C 51.153 148.992,51.009 148.654,50.833 148.333 C 50.658 148.012,50.514 147.825,50.514 147.917 M220.372 148.500 C 220.372 148.821,220.406 148.952,220.448 148.792 C 220.490 148.631,220.490 148.369,220.448 148.208 C 220.406 148.048,220.372 148.179,220.372 148.500 M296.500 148.917 C 296.784 149.329,297.054 149.667,297.099 149.667 C 297.145 149.667,296.950 149.329,296.667 148.917 C 296.383 148.504,296.113 148.167,296.067 148.167 C 296.021 148.167,296.216 148.504,296.500 148.917 M51.178 149.417 C 51.178 149.508,51.286 149.771,51.417 150.000 C 51.548 150.229,51.655 150.342,51.655 150.250 C 51.655 150.158,51.548 149.896,51.417 149.667 C 51.286 149.438,51.178 149.325,51.178 149.417 M297.534 150.431 C 297.745 150.805,298.051 151.293,298.216 151.514 C 298.380 151.736,298.343 151.610,298.132 151.236 C 297.922 150.861,297.615 150.374,297.451 150.152 C 297.287 149.931,297.324 150.056,297.534 150.431 M298.754 152.428 C 298.909 152.709,299.184 153.121,299.365 153.344 L 299.694 153.750 299.413 153.239 C 299.258 152.958,298.983 152.545,298.802 152.322 L 298.472 151.917 298.754 152.428 M26.320 153.624 L 25.917 154.081 26.309 153.749 C 26.525 153.566,26.731 153.435,26.767 153.458 C 26.857 153.515,26.878 153.323,26.792 153.237 C 26.754 153.199,26.542 153.373,26.320 153.624 M13.330 154.958 L 11.917 156.417 13.375 155.004 C 14.177 154.227,14.833 153.570,14.833 153.545 C 14.833 153.424,14.642 153.604,13.330 154.958 M26.335 154.081 C 26.222 154.218,26.072 154.295,26.003 154.252 C 25.934 154.209,25.737 154.342,25.564 154.546 C 25.251 154.916,25.251 154.916,25.597 154.625 C 25.788 154.464,25.982 154.371,26.028 154.417 C 26.075 154.464,26.249 154.352,26.416 154.168 C 26.582 153.984,26.678 153.833,26.630 153.833 C 26.581 153.833,26.448 153.945,26.335 154.081 M33.748 154.003 C 33.691 154.096,33.582 154.134,33.507 154.088 C 33.432 154.041,33.160 154.284,32.902 154.627 C 32.644 154.969,31.949 155.756,31.356 156.375 C 30.764 156.994,30.342 157.500,30.418 157.500 C 30.495 157.500,30.377 157.706,30.155 157.958 C 29.757 158.410,29.760 158.409,30.286 157.933 C 30.581 157.667,30.790 157.398,30.751 157.335 C 30.712 157.272,30.977 156.931,31.340 156.577 C 32.091 155.844,32.234 155.969,31.542 156.752 C 31.290 157.037,31.513 156.816,32.039 156.260 C 32.981 155.264,34.100 153.833,33.937 153.833 C 33.891 153.833,33.806 153.910,33.748 154.003 M280.940 154.115 C 280.882 154.174,281.031 154.566,281.272 154.986 C 281.778 155.866,282.081 156.243,281.898 155.764 C 281.809 155.530,281.833 155.480,281.988 155.576 C 282.155 155.679,282.160 155.632,282.012 155.355 C 281.908 155.162,281.741 155.021,281.641 155.043 C 281.540 155.065,281.420 154.979,281.374 154.852 C 281.319 154.701,281.361 154.664,281.495 154.747 C 281.653 154.845,281.658 154.795,281.516 154.529 C 281.297 154.120,281.086 153.969,280.940 154.115 M18.017 154.899 C 17.622 155.302,17.306 155.696,17.316 155.774 C 17.325 155.853,17.240 155.917,17.125 155.917 C 17.010 155.917,16.917 156.029,16.917 156.167 C 16.917 156.304,16.823 156.417,16.708 156.417 C 16.442 156.417,14.783 157.838,14.905 157.961 C 14.956 158.011,14.904 158.172,14.790 158.318 C 14.607 158.554,14.616 158.557,14.879 158.351 C 15.042 158.224,15.134 158.079,15.085 158.029 C 14.971 157.915,15.840 157.000,16.062 157.000 C 16.154 157.000,16.010 157.244,15.743 157.542 C 15.476 157.840,16.050 157.310,17.018 156.364 C 17.986 155.418,18.778 154.537,18.778 154.406 C 18.778 154.099,18.845 154.055,18.017 154.899 M33.026 154.967 C 32.744 155.323,32.381 155.721,32.221 155.849 C 32.060 155.978,32.260 155.655,32.665 155.132 C 33.070 154.608,33.433 154.211,33.471 154.249 C 33.509 154.287,33.309 154.610,33.026 154.967 M300.333 154.833 C 300.529 155.108,300.727 155.333,300.773 155.333 C 300.819 155.333,300.696 155.108,300.500 154.833 C 300.304 154.558,300.106 154.333,300.061 154.333 C 300.015 154.333,300.138 154.558,300.333 154.833 M18.667 154.551 C 18.667 154.578,18.385 154.860,18.042 155.176 L 17.417 155.750 17.991 155.125 C 18.526 154.543,18.667 154.423,18.667 154.551 M25.668 154.915 C 25.555 155.051,25.408 155.129,25.341 155.088 C 25.274 155.047,24.964 155.277,24.651 155.601 C 24.339 155.924,23.688 156.494,23.204 156.868 C 22.721 157.241,22.364 157.586,22.411 157.633 C 22.458 157.681,22.404 157.839,22.290 157.985 C 22.176 158.131,22.346 158.053,22.667 157.812 C 22.988 157.571,23.251 157.309,23.253 157.229 C 23.257 156.986,23.509 156.667,23.697 156.667 C 23.809 156.667,23.798 156.759,23.667 156.917 C 23.172 157.513,23.683 157.074,24.833 155.917 C 25.516 155.229,26.030 154.667,25.975 154.667 C 25.919 154.667,25.781 154.778,25.668 154.915 M24.667 155.917 C 24.262 156.329,23.893 156.667,23.847 156.667 C 23.801 156.667,24.095 156.329,24.500 155.917 C 24.905 155.504,25.274 155.167,25.319 155.167 C 25.365 155.167,25.072 155.504,24.667 155.917 M44.380 155.623 C 44.818 155.657,45.493 155.657,45.880 155.622 C 46.267 155.587,45.908 155.559,45.083 155.559 C 44.258 155.560,43.942 155.588,44.380 155.623 M46.167 155.836 C 45.577 155.934,45.684 155.949,46.667 155.908 C 47.491 155.874,47.775 155.903,47.500 155.995 L 47.083 156.133 47.556 156.150 C 47.864 156.161,48.004 156.094,47.959 155.958 C 47.878 155.711,47.201 155.665,46.167 155.836 M42.102 156.181 C 41.661 156.529,41.077 157.466,41.215 157.604 C 41.256 157.644,41.384 157.447,41.500 157.166 C 41.616 156.885,41.945 156.471,42.231 156.246 C 42.516 156.021,42.704 155.836,42.647 155.835 C 42.591 155.834,42.346 155.990,42.102 156.181 M44.333 155.885 C 44.333 155.914,44.577 156.113,44.875 156.328 L 45.417 156.719 45.013 156.276 C 44.667 155.898,44.333 155.706,44.333 155.885 M289.500 156.311 C 289.500 156.537,290.194 157.362,290.297 157.258 C 290.348 157.208,290.546 157.297,290.736 157.458 C 291.083 157.750,291.083 157.750,290.765 157.374 C 290.590 157.167,290.409 157.035,290.364 157.081 C 290.251 157.193,289.833 156.834,289.833 156.626 C 289.833 156.534,289.965 156.561,290.125 156.685 C 290.362 156.869,290.358 156.842,290.099 156.539 C 289.774 156.158,289.500 156.054,289.500 156.311 M282.645 157.137 C 282.853 157.428,283.070 157.667,283.128 157.667 C 283.186 157.667,283.143 157.577,283.033 157.467 C 282.770 157.204,282.776 156.947,283.042 157.100 C 283.163 157.170,283.192 157.157,283.111 157.068 C 283.035 156.985,282.922 156.916,282.861 156.914 C 282.800 156.913,282.641 156.843,282.509 156.759 C 282.376 156.675,282.438 156.845,282.645 157.137 M297.500 157.294 C 297.500 157.365,298.379 158.283,299.454 159.336 C 300.529 160.389,301.190 161.006,300.923 160.708 C 300.656 160.410,300.506 160.167,300.590 160.167 C 300.674 160.167,300.071 159.492,299.250 158.667 C 297.849 157.259,297.500 156.985,297.500 157.294 M299.167 158.750 C 299.942 159.529,300.538 160.167,300.493 160.167 C 300.447 160.167,299.775 159.529,299.000 158.750 C 298.225 157.971,297.628 157.333,297.674 157.333 C 297.720 157.333,298.392 157.971,299.167 158.750 M290.653 157.876 C 290.875 158.127,291.096 158.293,291.143 158.246 C 291.190 158.199,291.534 158.443,291.906 158.788 C 292.567 159.401,292.565 159.397,291.844 158.628 C 291.437 158.195,291.068 157.876,291.024 157.921 C 290.980 157.965,290.788 157.870,290.597 157.710 C 290.343 157.497,290.358 157.542,290.653 157.876 M263.000 158.750 C 262.886 159.354,262.826 159.882,262.868 159.923 C 262.909 159.965,263.034 159.502,263.146 158.896 C 263.258 158.289,263.317 157.762,263.278 157.723 C 263.239 157.684,263.114 158.146,263.000 158.750 M14.333 158.250 C 14.219 158.387,14.182 158.500,14.250 158.500 C 14.318 158.500,14.271 158.631,14.145 158.792 C 13.937 159.057,13.943 159.062,14.212 158.851 C 14.375 158.724,14.469 158.581,14.422 158.533 C 14.375 158.486,14.420 158.347,14.522 158.224 C 14.624 158.101,14.670 158.000,14.624 158.000 C 14.578 158.000,14.447 158.112,14.333 158.250 M285.000 159.417 C 285.591 160.012,286.111 160.500,286.157 160.500 C 286.203 160.500,285.757 160.012,285.167 159.417 C 284.576 158.821,284.055 158.333,284.010 158.333 C 283.964 158.333,284.409 158.821,285.000 159.417 M39.874 159.833 C 39.400 160.567,39.044 161.167,39.083 161.167 C 39.167 161.167,40.362 159.417,40.647 158.875 C 41.043 158.126,40.717 158.529,39.874 159.833 M271.000 158.731 C 271.000 158.767,271.225 158.829,271.500 158.869 C 271.775 158.909,272.000 158.880,272.000 158.804 C 272.000 158.729,271.775 158.667,271.500 158.667 C 271.225 158.667,271.000 158.696,271.000 158.731 M271.301 159.292 C 271.008 159.634,270.787 160.000,270.875 160.000 C 270.909 160.000,271.104 159.775,271.307 159.500 C 271.709 158.957,271.705 158.822,271.301 159.292 M284.833 159.750 C 285.144 160.071,285.436 160.333,285.482 160.333 C 285.528 160.333,285.311 160.071,285.000 159.750 C 284.689 159.429,284.397 159.167,284.351 159.167 C 284.305 159.167,284.522 159.429,284.833 159.750 M25.833 160.667 C 25.512 160.842,25.310 160.989,25.383 160.993 C 25.560 161.002,26.500 160.513,26.500 160.412 C 26.500 160.303,26.490 160.307,25.833 160.667 M286.624 160.849 C 286.737 160.995,286.789 161.156,286.738 161.207 C 286.645 161.300,287.312 161.844,288.244 162.436 C 288.556 162.635,288.685 162.665,288.595 162.520 C 288.496 162.359,288.523 162.315,288.685 162.374 C 288.812 162.420,288.898 162.542,288.876 162.643 C 288.853 162.745,289.203 163.015,289.652 163.243 C 290.910 163.880,290.644 163.284,289.350 162.567 C 288.776 162.249,288.360 162.076,288.426 162.182 C 288.501 162.303,288.459 162.347,288.315 162.299 C 288.188 162.257,288.083 162.141,288.083 162.042 C 288.083 161.942,288.015 161.799,287.932 161.722 C 287.842 161.640,287.834 161.678,287.913 161.813 C 288.005 161.972,287.974 162.017,287.815 161.959 C 287.688 161.913,287.600 161.798,287.620 161.703 C 287.640 161.609,287.527 161.431,287.370 161.308 C 287.111 161.105,287.106 161.112,287.312 161.375 C 287.438 161.535,287.466 161.667,287.374 161.667 C 287.163 161.667,286.808 161.248,286.922 161.133 C 286.969 161.086,286.875 160.943,286.712 160.815 C 286.450 160.609,286.440 160.613,286.624 160.849 M15.500 161.000 C 15.278 161.144,15.278 161.162,15.500 161.167 C 15.722 161.171,15.722 161.190,15.500 161.333 C 15.362 161.422,15.325 161.495,15.417 161.495 C 15.721 161.495,16.130 161.173,15.833 161.167 C 15.611 161.162,15.611 161.144,15.833 161.000 C 15.971 160.911,16.008 160.838,15.917 160.838 C 15.825 160.838,15.637 160.911,15.500 161.000 M9.167 161.167 C 9.373 161.300,9.375 161.329,9.181 161.331 C 9.051 161.332,8.984 161.373,9.032 161.421 C 9.080 161.469,9.248 161.458,9.407 161.397 C 9.703 161.284,9.473 161.005,9.083 161.005 C 8.992 161.005,9.029 161.078,9.167 161.167 M294.924 161.178 C 295.017 161.328,294.974 161.359,294.777 161.284 C 294.382 161.132,294.434 161.286,294.853 161.511 C 295.132 161.660,295.179 161.655,295.076 161.488 C 294.983 161.338,295.026 161.308,295.223 161.383 C 295.618 161.535,295.566 161.380,295.147 161.156 C 294.868 161.007,294.821 161.011,294.924 161.178 M23.980 161.318 C 24.160 161.432,24.130 161.489,23.843 161.580 C 23.640 161.645,23.508 161.731,23.549 161.771 C 23.590 161.812,23.823 161.755,24.067 161.644 C 24.487 161.453,24.398 161.172,23.917 161.172 C 23.825 161.172,23.854 161.237,23.980 161.318 M301.975 161.606 C 302.661 162.218,303.644 162.712,303.602 162.424 C 303.582 162.288,303.501 162.118,303.423 162.046 C 303.344 161.975,303.334 162.010,303.400 162.125 C 303.546 162.379,303.417 162.390,302.984 162.158 C 302.805 162.062,302.698 161.917,302.748 161.836 C 302.798 161.756,302.751 161.635,302.644 161.569 C 302.515 161.489,302.493 161.521,302.581 161.663 C 302.669 161.805,302.636 161.851,302.482 161.799 C 302.354 161.757,302.250 161.641,302.250 161.542 C 302.250 161.442,302.182 161.299,302.098 161.222 C 302.010 161.142,301.997 161.171,302.066 161.292 C 302.198 161.521,301.994 161.573,301.738 161.375 C 301.649 161.306,301.756 161.410,301.975 161.606 M2.500 162.060 C 1.996 162.460,1.396 163.003,1.167 163.266 C 0.938 163.530,1.126 163.409,1.585 162.997 C 2.044 162.586,2.681 162.047,3.001 161.799 C 3.321 161.552,3.546 161.346,3.500 161.341 C 3.454 161.337,3.004 161.661,2.500 162.060 M14.167 161.583 C 13.914 161.727,13.849 161.825,14.000 161.830 C 14.222 161.837,14.222 161.856,14.000 162.000 C 13.608 162.254,14.035 162.182,14.500 161.917 C 14.752 161.773,14.818 161.675,14.667 161.670 C 14.444 161.663,14.444 161.644,14.667 161.500 C 15.059 161.246,14.631 161.318,14.167 161.583 M38.406 161.945 C 38.150 162.282,38.025 162.504,38.129 162.440 C 38.342 162.308,39.064 161.333,38.948 161.333 C 38.907 161.333,38.663 161.609,38.406 161.945 M22.833 161.667 C 22.611 161.810,22.611 161.829,22.833 161.833 C 23.056 161.838,23.056 161.856,22.833 162.000 C 22.696 162.089,22.658 162.162,22.750 162.162 C 23.054 162.162,23.463 161.839,23.167 161.833 C 22.944 161.829,22.944 161.810,23.167 161.667 C 23.304 161.578,23.342 161.505,23.250 161.505 C 23.158 161.505,22.971 161.578,22.833 161.667 M308.167 161.578 C 308.167 161.624,308.542 161.851,309.000 162.083 C 309.458 162.316,309.833 162.468,309.833 162.422 C 309.833 162.376,309.458 162.149,309.000 161.917 C 308.542 161.684,308.167 161.532,308.167 161.578 M295.333 161.742 C 295.333 161.876,298.357 163.365,298.447 163.276 C 298.490 163.232,298.360 163.145,298.157 163.080 C 297.932 163.009,297.861 162.919,297.974 162.849 C 298.078 162.785,297.681 162.499,297.067 162.196 C 296.466 161.900,296.022 161.734,296.080 161.829 C 296.215 162.047,296.065 162.047,295.656 161.827 C 295.478 161.733,295.333 161.694,295.333 161.742 M22.023 161.982 C 21.831 162.104,21.831 162.143,22.023 162.231 C 22.148 162.288,22.025 162.295,21.750 162.246 C 21.378 162.179,21.314 162.200,21.500 162.326 C 21.706 162.465,21.709 162.495,21.514 162.497 C 21.384 162.499,21.319 162.541,21.370 162.592 C 21.420 162.642,21.714 162.573,22.022 162.439 C 22.331 162.304,22.471 162.187,22.333 162.178 C 22.111 162.163,22.111 162.144,22.333 162.000 C 22.471 161.911,22.508 161.838,22.417 161.838 C 22.325 161.838,22.148 161.903,22.023 161.982 M46.714 162.583 C 46.716 163.042,46.748 163.209,46.786 162.956 C 46.825 162.703,46.824 162.328,46.784 162.123 C 46.744 161.918,46.713 162.125,46.714 162.583 M262.055 163.206 C 261.858 163.964,261.646 164.733,261.585 164.917 C 261.495 165.190,261.506 165.202,261.647 164.986 C 261.870 164.643,262.540 162.204,262.469 161.991 C 262.440 161.902,262.253 162.448,262.055 163.206 M6.081 162.463 C 5.805 162.712,5.651 162.860,5.739 162.792 C 6.074 162.531,6.206 162.681,5.920 162.996 C 5.756 163.177,5.569 163.292,5.503 163.252 C 5.355 163.161,4.670 163.880,4.118 164.706 C 3.792 165.193,3.702 165.538,3.705 166.289 L 3.709 167.250 3.922 166.365 C 4.176 165.312,4.721 164.447,5.899 163.231 C 6.378 162.737,6.690 162.332,6.593 162.331 C 6.496 162.329,6.529 162.256,6.667 162.167 C 6.804 162.078,6.842 162.006,6.750 162.007 C 6.658 162.008,6.357 162.213,6.081 162.463 M11.833 162.656 C 11.146 163.008,10.583 163.392,10.583 163.509 C 10.583 163.626,10.479 163.757,10.352 163.799 C 10.191 163.853,10.163 163.807,10.262 163.647 C 10.352 163.501,10.222 163.532,9.910 163.730 C 8.937 164.349,8.328 164.857,8.408 164.985 C 8.452 165.057,8.266 165.329,7.994 165.589 C 7.722 165.849,7.498 165.992,7.494 165.906 C 7.491 165.820,7.341 165.927,7.161 166.143 C 6.981 166.360,6.836 166.622,6.840 166.727 C 6.844 166.831,6.960 166.708,7.098 166.453 C 7.236 166.199,7.409 166.027,7.482 166.072 C 7.554 166.117,7.865 165.894,8.173 165.577 C 8.480 165.260,8.671 165.000,8.596 165.000 C 8.521 165.000,8.553 164.887,8.667 164.750 C 8.959 164.397,9.257 164.437,8.979 164.792 C 8.772 165.055,8.778 165.061,9.036 164.859 C 9.194 164.736,9.306 164.558,9.286 164.463 C 9.266 164.369,9.354 164.254,9.482 164.208 C 9.641 164.150,9.671 164.195,9.580 164.353 C 9.501 164.489,9.509 164.526,9.598 164.444 C 9.682 164.368,9.750 164.224,9.750 164.125 C 9.750 164.026,9.854 163.910,9.982 163.867 C 10.109 163.825,10.166 163.866,10.108 163.960 C 10.051 164.053,10.821 163.707,11.820 163.190 C 12.902 162.630,13.558 162.201,13.443 162.128 C 13.177 161.959,13.229 161.942,11.833 162.656 M297.167 162.417 C 297.579 162.638,297.842 162.818,297.750 162.818 C 297.658 162.818,297.246 162.638,296.833 162.417 C 296.421 162.196,296.158 162.015,296.250 162.015 C 296.342 162.015,296.754 162.196,297.167 162.417 M12.167 162.833 C 11.479 163.191,10.842 163.484,10.750 163.484 C 10.658 163.484,11.146 163.191,11.833 162.833 C 12.521 162.476,13.158 162.183,13.250 162.183 C 13.342 162.183,12.854 162.476,12.167 162.833 M20.689 162.482 C 20.498 162.604,20.498 162.643,20.689 162.731 C 20.814 162.788,20.692 162.795,20.417 162.746 C 20.022 162.675,19.970 162.696,20.167 162.843 C 20.370 162.994,20.344 163.013,20.030 162.944 C 19.485 162.823,18.561 163.159,18.859 163.369 C 19.011 163.476,18.922 163.494,18.583 163.425 C 18.215 163.350,18.149 163.368,18.333 163.492 C 18.540 163.632,18.542 163.662,18.347 163.664 C 18.217 163.666,18.149 163.705,18.195 163.751 C 18.241 163.797,18.524 163.750,18.822 163.646 C 19.234 163.502,19.311 163.418,19.141 163.297 C 18.980 163.183,19.026 163.162,19.301 163.222 C 19.787 163.329,21.280 162.840,20.998 162.665 C 20.844 162.570,20.850 162.519,21.023 162.450 C 21.148 162.400,21.175 162.355,21.083 162.349 C 20.992 162.343,20.814 162.403,20.689 162.482 M310.026 162.565 C 310.184 162.747,313.333 164.654,313.333 164.568 C 313.333 164.482,311.925 163.580,310.750 162.914 C 310.292 162.653,309.966 162.497,310.026 162.565 M289.833 163.000 C 290.154 163.176,290.342 163.319,290.250 163.319 C 290.158 163.319,289.821 163.176,289.500 163.000 C 289.179 162.824,288.992 162.681,289.083 162.681 C 289.175 162.681,289.512 162.824,289.833 163.000 M303.833 162.756 C 303.833 162.811,304.545 163.188,305.414 163.595 C 306.907 164.292,307.558 164.527,307.000 164.167 C 306.778 164.023,306.778 164.004,307.000 163.996 C 307.137 163.990,306.987 163.842,306.667 163.667 C 306.069 163.339,305.551 163.210,306.000 163.500 C 306.356 163.730,305.944 163.710,305.420 163.471 C 305.175 163.360,305.066 163.229,305.167 163.167 C 305.267 163.105,305.157 162.973,304.911 162.861 C 304.664 162.748,304.523 162.736,304.583 162.832 C 304.716 163.047,304.563 163.046,304.156 162.827 C 303.978 162.733,303.833 162.700,303.833 162.756 M298.833 163.167 C 299.056 163.310,299.056 163.329,298.833 163.337 C 298.682 163.342,298.748 163.439,299.000 163.583 C 299.465 163.849,299.892 163.920,299.500 163.667 C 299.278 163.523,299.278 163.504,299.500 163.497 C 299.651 163.492,299.586 163.394,299.333 163.250 C 298.869 162.984,298.441 162.913,298.833 163.167 M5.171 163.792 C 4.975 164.044,4.594 164.583,4.324 164.991 C 4.054 165.398,3.833 165.675,3.833 165.605 C 3.833 165.370,4.207 164.754,4.783 164.042 C 5.408 163.268,5.749 163.049,5.171 163.792 M291.000 163.583 C 291.258 163.731,291.321 163.826,291.167 163.834 C 291.029 163.842,291.179 163.989,291.500 164.162 C 291.838 164.345,292.258 164.442,292.500 164.392 C 292.790 164.332,292.849 164.354,292.694 164.463 C 292.437 164.645,292.907 164.911,293.183 164.740 C 293.460 164.569,294.079 164.847,293.814 165.023 C 293.661 165.125,293.752 165.143,294.083 165.075 C 294.419 165.007,294.510 165.025,294.361 165.130 C 294.183 165.256,294.195 165.309,294.427 165.397 C 294.585 165.458,294.754 165.469,294.802 165.421 C 294.850 165.373,294.783 165.332,294.653 165.331 C 294.467 165.329,294.462 165.299,294.630 165.193 C 294.772 165.103,294.432 164.897,293.630 164.587 C 292.963 164.328,292.063 163.940,291.631 163.725 C 290.776 163.299,290.326 163.198,291.000 163.583 M17.273 163.700 C 16.903 163.835,16.847 163.910,17.023 164.035 C 17.187 164.151,17.143 164.172,16.864 164.110 C 16.337 163.994,15.387 164.326,15.692 164.519 C 15.877 164.637,15.875 164.662,15.681 164.664 C 15.551 164.666,15.484 164.706,15.532 164.754 C 15.580 164.802,15.748 164.791,15.907 164.731 C 16.138 164.642,16.151 164.589,15.972 164.462 C 15.815 164.351,15.863 164.329,16.136 164.390 C 16.682 164.510,17.606 164.175,17.308 163.965 C 17.156 163.857,17.244 163.839,17.583 163.908 C 17.910 163.975,18.004 163.957,17.856 163.859 C 17.664 163.731,17.664 163.693,17.856 163.617 C 18.275 163.450,17.756 163.524,17.273 163.700 M300.000 163.667 C 300.222 163.810,300.222 163.829,300.000 163.837 C 299.849 163.842,299.914 163.939,300.167 164.083 C 300.631 164.349,301.059 164.420,300.667 164.167 C 300.444 164.023,300.444 164.004,300.667 163.997 C 300.818 163.992,300.752 163.894,300.500 163.750 C 300.035 163.484,299.608 163.413,300.000 163.667 M46.895 165.333 C 46.895 166.296,46.923 166.690,46.956 166.208 C 46.990 165.727,46.990 164.940,46.956 164.458 C 46.923 163.977,46.895 164.371,46.895 165.333 M292.000 164.083 C 292.229 164.214,292.342 164.322,292.250 164.322 C 292.158 164.322,291.896 164.214,291.667 164.083 C 291.438 163.952,291.325 163.845,291.417 163.845 C 291.508 163.845,291.771 163.952,292.000 164.083 M56.020 164.445 C 56.485 165.064,59.238 168.361,59.812 168.986 C 60.030 169.223,59.922 169.042,59.572 168.583 C 58.927 167.737,56.977 165.411,56.104 164.447 L 55.624 163.917 56.020 164.445 M301.167 164.167 C 301.389 164.310,301.389 164.329,301.167 164.337 C 301.015 164.342,301.081 164.439,301.333 164.583 C 301.798 164.849,302.226 164.920,301.833 164.667 C 301.611 164.523,301.611 164.504,301.833 164.497 C 301.985 164.492,301.919 164.394,301.667 164.250 C 301.202 163.984,300.774 163.913,301.167 164.167 M307.500 164.148 C 307.722 164.308,307.722 164.329,307.500 164.333 C 307.279 164.338,307.279 164.357,307.499 164.496 C 307.635 164.582,307.935 164.612,308.165 164.563 C 308.455 164.501,308.515 164.521,308.361 164.630 C 308.058 164.844,308.484 165.011,309.026 164.891 C 309.312 164.828,309.355 164.848,309.186 164.967 C 309.002 165.098,309.029 165.153,309.322 165.246 C 309.524 165.310,309.946 165.589,310.261 165.865 C 310.576 166.142,310.833 166.310,310.833 166.238 C 310.833 166.167,311.040 166.290,311.292 166.513 L 311.750 166.917 311.347 166.459 C 311.125 166.207,310.907 166.038,310.862 166.083 C 310.742 166.202,310.324 165.817,310.415 165.670 C 310.457 165.601,310.331 165.403,310.134 165.231 C 309.937 165.058,309.839 165.023,309.915 165.153 C 310.021 165.332,309.984 165.363,309.764 165.278 C 309.604 165.217,309.423 165.166,309.361 165.164 C 309.300 165.163,309.348 165.100,309.467 165.024 C 309.664 164.899,309.040 164.587,307.583 164.084 C 307.315 163.991,307.299 164.004,307.500 164.148 M14.861 164.646 C 14.685 164.758,14.698 164.810,14.927 164.897 C 15.085 164.958,15.254 164.969,15.302 164.921 C 15.350 164.873,15.283 164.832,15.153 164.831 C 14.958 164.829,14.961 164.800,15.167 164.667 C 15.304 164.578,15.342 164.505,15.250 164.505 C 15.158 164.505,14.983 164.569,14.861 164.646 M302.500 164.750 C 302.752 164.894,302.818 164.992,302.667 164.997 C 302.372 165.007,302.776 165.328,303.083 165.328 C 303.175 165.328,303.137 165.256,303.000 165.167 C 302.778 165.023,302.778 165.004,303.000 164.997 C 303.272 164.987,302.536 164.512,302.250 164.512 C 302.158 164.512,302.271 164.619,302.500 164.750 M13.833 165.083 C 13.581 165.227,13.515 165.325,13.667 165.330 C 13.889 165.337,13.889 165.356,13.667 165.500 C 13.274 165.754,13.702 165.682,14.167 165.417 C 14.419 165.273,14.485 165.175,14.333 165.170 C 14.111 165.163,14.111 165.144,14.333 165.000 C 14.726 164.746,14.298 164.818,13.833 165.083 M295.144 165.302 C 295.336 165.435,295.336 165.475,295.144 165.557 C 295.019 165.610,295.142 165.613,295.417 165.563 C 295.756 165.502,295.845 165.524,295.694 165.630 C 295.515 165.757,295.526 165.808,295.750 165.893 C 296.157 166.050,296.287 166.019,296.000 165.833 C 295.778 165.690,295.778 165.671,296.000 165.664 C 296.222 165.657,296.222 165.641,296.000 165.515 C 295.615 165.298,294.869 165.112,295.144 165.302 M314.911 166.000 C 315.360 166.504,315.761 166.954,315.803 167.000 C 315.844 167.046,315.799 166.933,315.702 166.750 C 315.606 166.567,315.204 166.117,314.810 165.750 C 314.105 165.093,314.106 165.096,314.911 166.000 M12.907 165.578 C 12.729 165.713,12.654 165.825,12.740 165.828 C 12.825 165.831,12.683 166.056,12.422 166.327 C 12.162 166.599,11.891 166.785,11.819 166.741 C 11.748 166.697,11.635 166.749,11.569 166.856 C 11.494 166.978,11.521 167.007,11.641 166.933 C 11.874 166.788,11.887 166.992,11.667 167.333 C 11.534 167.539,11.505 167.542,11.503 167.347 C 11.501 167.217,11.456 167.155,11.401 167.210 C 11.347 167.264,11.373 167.433,11.458 167.586 C 11.590 167.822,11.646 167.786,11.827 167.348 C 11.945 167.064,12.310 166.595,12.640 166.306 C 13.375 165.660,13.597 165.056,12.907 165.578 M261.034 166.087 C 260.834 166.497,260.706 166.833,260.749 166.833 C 260.862 166.833,261.535 165.480,261.460 165.404 C 261.425 165.369,261.233 165.677,261.034 166.087 M279.069 166.458 C 279.485 166.985,280.133 167.754,280.508 168.167 C 280.883 168.579,280.574 168.148,279.821 167.208 C 279.069 166.269,278.421 165.500,278.382 165.500 C 278.343 165.500,278.652 165.931,279.069 166.458 M269.542 166.417 C 269.544 166.783,269.578 166.914,269.618 166.706 C 269.658 166.499,269.656 166.199,269.615 166.040 C 269.573 165.880,269.540 166.050,269.542 166.417 M297.000 166.000 C 297.206 166.133,297.208 166.162,297.014 166.164 C 296.884 166.166,296.817 166.206,296.865 166.254 C 296.913 166.302,297.082 166.291,297.240 166.231 C 297.536 166.117,297.306 165.838,296.917 165.838 C 296.825 165.838,296.862 165.911,297.000 166.000 M305.757 166.345 C 305.850 166.495,305.807 166.526,305.611 166.450 C 305.216 166.299,305.267 166.453,305.687 166.677 C 305.966 166.827,306.013 166.822,305.909 166.655 C 305.817 166.505,305.859 166.474,306.056 166.550 C 306.451 166.701,306.399 166.547,305.980 166.323 C 305.701 166.173,305.654 166.178,305.757 166.345 M33.746 167.542 L 32.583 168.750 33.792 167.588 C 34.914 166.508,35.076 166.333,34.954 166.333 C 34.928 166.333,34.385 166.877,33.746 167.542 M4.014 166.861 C 4.006 167.014,3.955 167.277,3.901 167.445 C 3.819 167.699,3.832 167.708,3.982 167.500 C 4.081 167.362,4.163 167.329,4.164 167.426 C 4.166 167.524,4.283 167.749,4.426 167.926 C 4.671 168.232,4.674 168.228,4.486 167.843 C 4.377 167.619,4.229 167.244,4.158 167.010 C 4.085 166.770,4.022 166.705,4.014 166.861 M307.734 167.625 C 307.909 167.831,307.989 168.000,307.911 168.000 C 307.834 168.000,307.965 168.206,308.202 168.458 C 308.439 168.710,308.790 169.179,308.982 169.500 C 309.175 169.821,309.344 169.990,309.358 169.875 C 309.424 169.334,309.401 169.250,309.181 169.250 C 309.051 169.250,308.910 169.146,308.867 169.018 C 308.816 168.864,308.861 168.831,309.004 168.919 C 309.146 169.007,309.177 168.985,309.098 168.856 C 309.031 168.749,308.918 168.698,308.846 168.742 C 308.691 168.838,307.957 168.098,308.083 167.973 C 308.130 167.925,308.000 167.744,307.793 167.568 L 307.417 167.250 307.734 167.625 M47.052 169.083 C 47.053 169.633,47.084 169.838,47.121 169.539 C 47.158 169.239,47.157 168.789,47.119 168.539 C 47.081 168.288,47.051 168.533,47.052 169.083 M315.846 168.352 C 315.839 168.499,315.637 168.910,315.396 169.264 C 315.156 169.618,315.086 169.803,315.241 169.674 C 315.620 169.360,316.039 168.524,315.940 168.280 C 315.894 168.167,315.854 168.197,315.846 168.352 M312.375 169.083 C 312.377 169.450,312.411 169.580,312.451 169.373 C 312.491 169.166,312.490 168.866,312.448 168.706 C 312.406 168.547,312.374 168.717,312.375 169.083 M312.705 169.000 C 312.705 169.321,312.740 169.452,312.782 169.292 C 312.823 169.131,312.823 168.869,312.782 168.708 C 312.740 168.548,312.705 168.679,312.705 169.000 M7.333 169.052 C 7.333 169.081,7.577 169.325,7.875 169.594 L 8.417 170.083 7.927 169.542 C 7.471 169.037,7.333 168.923,7.333 169.052 M282.250 170.141 C 282.892 170.811,283.717 171.591,284.083 171.874 C 284.844 172.463,284.812 172.430,282.667 170.413 C 281.192 169.026,281.163 169.007,282.250 170.141 M303.961 169.347 C 304.308 169.742,304.940 169.974,304.726 169.628 C 304.675 169.545,304.590 169.521,304.537 169.574 C 304.485 169.627,304.248 169.500,304.012 169.293 L 303.583 168.917 303.961 169.347 M269.392 170.583 C 269.392 171.408,269.420 171.767,269.455 171.380 C 269.490 170.993,269.490 170.318,269.456 169.880 C 269.422 169.442,269.393 169.758,269.392 170.583 M60.278 169.667 C 60.385 169.805,60.504 170.180,60.543 170.501 L 60.613 171.083 60.640 170.479 C 60.658 170.077,60.569 169.797,60.375 169.645 C 60.121 169.446,60.108 169.449,60.278 169.667 M30.375 170.186 C 29.807 170.550,29.623 170.794,30.125 170.518 C 30.507 170.308,31.106 169.845,31.000 169.841 C 30.954 169.840,30.673 169.995,30.375 170.186 M47.173 170.342 C 47.166 170.645,48.036 172.066,48.347 172.259 C 48.465 172.331,48.362 172.130,48.120 171.813 C 47.878 171.495,47.567 170.976,47.430 170.659 C 47.292 170.343,47.177 170.200,47.173 170.342 M12.180 170.849 C 12.173 170.995,12.335 171.258,12.542 171.433 C 12.913 171.747,12.914 171.747,12.647 171.417 C 12.498 171.233,12.335 170.971,12.285 170.833 C 12.207 170.621,12.191 170.624,12.180 170.849 M28.167 171.417 C 27.571 171.729,27.142 171.987,27.213 171.992 C 27.390 172.003,29.333 171.015,29.333 170.914 C 29.333 170.802,29.372 170.785,28.167 171.417 M311.048 171.352 C 310.946 171.454,310.556 171.509,310.181 171.473 C 309.807 171.437,309.500 171.466,309.500 171.537 C 309.500 171.766,310.906 171.664,311.240 171.411 C 311.418 171.277,311.489 171.167,311.399 171.167 C 311.308 171.167,311.150 171.250,311.048 171.352 M60.372 171.833 C 60.372 172.154,60.406 172.285,60.448 172.125 C 60.490 171.965,60.490 171.702,60.448 171.542 C 60.406 171.381,60.372 171.512,60.372 171.833 M305.045 172.167 C 305.045 172.579,305.078 172.748,305.118 172.542 C 305.157 172.335,305.157 171.998,305.118 171.792 C 305.078 171.585,305.045 171.754,305.045 172.167 M305.379 172.167 C 305.379 172.579,305.411 172.748,305.451 172.542 C 305.491 172.335,305.491 171.998,305.451 171.792 C 305.411 171.585,305.379 171.754,305.379 172.167 M13.086 171.838 C 13.180 171.989,14.694 172.528,14.781 172.441 C 14.813 172.409,14.427 172.231,13.922 172.045 C 13.418 171.859,13.042 171.766,13.086 171.838 M256.078 172.409 C 255.835 172.727,255.674 173.118,255.717 173.284 C 255.788 173.558,255.796 173.556,255.814 173.266 C 255.825 173.091,256.025 172.697,256.258 172.391 C 256.492 172.084,256.646 171.833,256.600 171.833 C 256.554 171.833,256.319 172.092,256.078 172.409 M25.750 172.512 C 25.383 172.688,25.271 172.786,25.500 172.729 C 25.972 172.611,26.838 172.177,26.583 172.186 C 26.492 172.189,26.117 172.336,25.750 172.512 M200.740 172.708 L 200.250 173.250 200.792 172.760 C 201.297 172.304,201.410 172.167,201.281 172.167 C 201.252 172.167,201.009 172.410,200.740 172.708 M49.083 172.735 C 49.358 172.972,49.652 173.165,49.736 173.166 C 49.917 173.167,49.915 173.165,49.167 172.682 L 48.583 172.306 49.083 172.735 M284.946 172.513 C 285.152 172.764,286.167 173.402,286.167 173.282 C 286.167 173.243,285.848 173.001,285.458 172.744 C 285.069 172.487,284.838 172.383,284.946 172.513 M15.250 172.667 C 15.433 172.745,15.696 172.810,15.833 172.810 C 15.991 172.810,15.960 172.757,15.750 172.667 C 15.567 172.588,15.304 172.523,15.167 172.523 C 15.009 172.523,15.040 172.576,15.250 172.667 M24.083 173.028 C 23.808 173.120,22.496 173.256,21.167 173.331 L 18.750 173.468 21.167 173.419 C 22.756 173.386,23.840 173.283,24.333 173.118 C 24.746 172.979,24.971 172.865,24.833 172.864 C 24.696 172.863,24.358 172.937,24.083 173.028 M305.101 173.264 C 305.046 173.409,305.000 173.559,305.000 173.597 C 305.000 173.722,306.407 173.647,306.750 173.504 C 306.952 173.420,306.705 173.401,306.121 173.456 C 305.276 173.536,305.172 173.514,305.264 173.274 C 305.322 173.123,305.331 173.000,305.286 173.000 C 305.240 173.000,305.157 173.119,305.101 173.264 M17.875 173.282 C 18.035 173.323,18.298 173.323,18.458 173.282 C 18.619 173.240,18.487 173.205,18.167 173.205 C 17.846 173.205,17.715 173.240,17.875 173.282 M50.333 173.417 C 50.563 173.548,50.862 173.655,51.000 173.654 C 51.137 173.654,50.998 173.544,50.689 173.410 C 49.979 173.102,49.789 173.106,50.333 173.417 M59.000 173.704 C 58.387 173.922,57.366 174.072,55.917 174.157 C 53.843 174.278,53.815 174.284,55.250 174.307 C 57.034 174.335,58.653 174.098,59.578 173.671 C 60.443 173.272,60.169 173.288,59.000 173.704 M286.333 173.408 C 286.333 173.454,286.558 173.608,286.833 173.750 C 287.108 173.892,287.333 173.971,287.333 173.925 C 287.333 173.879,287.108 173.726,286.833 173.583 C 286.558 173.441,286.333 173.362,286.333 173.408 M51.623 173.838 C 51.829 173.921,52.391 174.027,52.873 174.075 C 53.737 174.160,53.734 174.157,52.667 173.924 C 51.419 173.651,51.092 173.624,51.623 173.838 M187.792 177.955 C 188.181 177.990,188.819 177.990,189.208 177.955 C 189.598 177.920,189.279 177.892,188.500 177.892 C 187.721 177.892,187.402 177.920,187.792 177.955 M137.796 196.122 C 138.188 196.157,138.788 196.157,139.129 196.121 C 139.471 196.085,139.150 196.057,138.417 196.057 C 137.683 196.058,137.404 196.087,137.796 196.122 M163.235 196.228 C 163.187 196.354,163.176 196.860,163.210 197.353 L 163.272 198.250 163.303 197.214 L 163.333 196.178 165.208 196.124 L 167.083 196.071 165.203 196.036 C 163.740 196.008,163.303 196.051,163.235 196.228 M168.000 196.064 C 168.000 196.100,168.221 196.161,168.491 196.201 C 168.761 196.241,168.944 196.212,168.898 196.137 C 168.815 196.003,168.000 195.937,168.000 196.064 M135.460 196.578 C 135.417 196.805,135.446 196.950,135.524 196.902 C 135.603 196.853,135.667 196.711,135.667 196.586 C 135.667 196.460,135.798 196.323,135.958 196.282 C 136.189 196.221,136.176 196.201,135.894 196.186 C 135.641 196.172,135.516 196.285,135.460 196.578 " stroke="none" fill="#978e8f" fill-rule="evenodd"></path></g></svg>