<svg id="svg" version="1.1" xmlns="http://www.w3.org/2000/svg" xmlns:xlink="http://www.w3.org/1999/xlink" width="400" height="268.9165186500888" viewBox="0, 0, 400,268.9165186500888"><g id="svgg"><path id="path0" d="M177.070 10.865 C 169.093 16.436,168.232 20.141,172.717 29.616 C 177.740 40.229,174.218 47.323,163.384 48.410 C 158.790 48.871,157.689 49.540,153.239 54.572 C 150.758 57.377,148.980 57.630,142.895 56.042 C 137.864 54.730,136.192 54.854,132.037 56.846 C 128.053 58.757,126.457 63.689,127.786 69.982 C 129.622 78.678,133.611 81.234,143.558 80.088 C 151.660 79.155,153.146 80.292,154.522 88.479 C 155.431 93.887,156.445 95.401,160.470 97.359 C 162.872 98.528,164.211 98.286,166.950 96.189 C 170.038 93.825,172.004 93.737,175.488 95.807 C 182.242 99.819,183.095 103.140,179.299 110.657 C 175.968 117.255,173.984 119.475,168.500 122.739 C 164.649 125.031,163.292 125.294,155.240 125.304 C 147.669 125.314,146.389 125.557,144.316 127.377 C 143.045 128.493,141.237 133.238,140.049 138.572 C 139.090 142.877,138.843 143.207,134.974 145.370 C 130.184 148.047,129.154 150.245,130.702 154.486 C 132.183 158.544,133.505 159.268,140.354 159.767 C 152.671 160.666,156.134 164.119,158.792 178.153 C 159.934 184.180,161.898 190.213,162.627 189.934 C 162.800 189.867,162.848 189.923,162.778 190.107 C 162.659 190.417,165.222 192.698,166.252 193.198 C 168.095 194.094,172.261 193.720,175.358 192.381 C 182.751 189.184,184.364 188.008,188.913 182.503 C 194.125 176.195,194.948 174.231,196.802 163.677 C 198.558 153.683,200.496 150.559,209.069 143.898 C 216.040 138.482,218.200 135.635,219.426 130.247 C 220.802 124.193,218.286 121.027,210.978 119.619 C 209.678 119.369,207.791 119.006,206.784 118.814 C 204.314 118.343,203.533 117.946,202.468 116.624 C 199.484 112.920,199.095 109.604,201.351 107.107 C 202.868 105.428,204.383 105.317,209.063 106.541 C 219.791 109.347,222.438 107.688,222.687 98.002 L 222.777 94.494 223.422 93.928 C 224.193 93.250,227.331 91.738,228.516 91.472 C 231.348 90.838,234.867 92.772,238.587 97.008 C 240.083 98.711,240.847 99.112,242.596 99.112 L 243.872 99.112 243.872 98.401 C 243.872 97.779,243.821 97.691,243.466 97.691 C 243.074 97.691,243.044 97.581,242.671 94.795 C 237.973 59.783,216.172 29.873,183.393 13.469 C 181.048 12.296,179.151 11.258,179.178 11.163 C 179.233 10.964,178.664 9.947,178.498 9.947 C 178.436 9.947,177.794 10.360,177.070 10.865 M107.726 23.805 C 105.212 24.310,103.261 25.589,99.488 29.209 C 96.295 32.272,94.684 33.561,91.876 35.298 C 85.329 39.348,84.556 41.106,86.429 47.683 C 87.976 53.113,91.073 56.256,95.471 56.856 C 101.254 57.646,106.004 54.748,109.998 47.992 C 111.250 45.874,112.044 45.138,114.435 43.876 C 117.510 42.253,118.840 41.021,119.885 38.825 C 122.734 32.836,120.994 26.050,116.237 24.602 C 113.492 23.765,109.694 23.410,107.726 23.805 M59.133 26.949 C 59.032 27.214,58.984 27.567,59.027 27.731 C 59.081 27.938,58.603 28.461,57.484 29.420 C 42.370 42.356,30.303 61.426,24.959 80.817 C 24.703 81.745,24.454 82.639,24.406 82.804 C 24.357 82.969,24.146 83.129,23.936 83.159 C 23.606 83.207,23.095 84.258,23.302 84.462 C 23.684 84.836,26.572 85.130,29.663 85.108 C 33.442 85.082,34.447 85.202,36.856 85.962 C 43.880 88.179,53.929 87.891,59.008 85.326 C 62.072 83.778,63.042 80.631,63.052 72.198 C 63.057 68.299,63.609 65.413,64.772 63.200 C 65.367 62.067,65.816 61.506,68.931 58.000 C 74.031 52.261,74.179 48.287,69.642 38.899 C 68.485 36.505,67.220 33.868,66.831 33.037 C 65.455 30.101,63.741 28.350,60.980 27.061 C 59.438 26.341,59.365 26.337,59.133 26.949 M144.760 33.489 C 140.152 34.326,135.986 38.293,136.027 41.805 C 136.078 46.127,137.775 47.953,142.508 48.779 C 148.899 49.894,156.732 46.134,158.204 41.245 C 158.955 38.749,158.546 36.079,157.248 35.009 C 155.408 33.492,149.021 32.715,144.760 33.489 M41.402 51.459 C 42.080 51.859,42.103 51.780,40.701 53.869 C 38.200 57.598,34.759 64.914,33.769 68.610 L 32.901 71.847 32.231 71.805 C 31.863 71.782,31.528 71.729,31.487 71.689 C 31.008 71.209,33.326 64.620,35.527 60.205 C 37.461 56.324,40.476 51.155,40.806 51.155 C 40.850 51.155,41.119 51.292,41.402 51.459 M20.721 102.074 C 20.454 102.341,20.658 102.447,21.653 102.559 C 23.782 102.800,29.952 107.984,33.088 112.167 C 34.687 114.300,35.517 115.963,37.565 121.137 C 39.956 127.176,42.239 131.722,42.665 131.296 C 42.792 131.169,42.647 130.778,42.196 130.037 C 41.098 128.228,39.551 124.819,37.657 120.030 C 35.243 113.928,34.027 111.982,30.293 108.252 C 25.965 103.927,21.651 101.143,20.721 102.074 M20.693 106.261 C 20.523 110.606,20.477 110.404,21.605 110.336 C 25.414 110.105,25.645 114.864,22.113 120.782 L 21.530 121.758 21.780 123.446 C 22.736 129.886,24.645 137.486,26.752 143.239 L 27.552 145.423 28.385 145.251 C 29.460 145.028,29.488 144.995,29.856 143.546 C 30.968 139.169,34.563 135.948,36.346 137.731 L 36.955 138.340 37.723 137.509 C 39.757 135.311,41.097 133.756,41.671 132.927 L 42.301 132.018 41.240 130.174 C 39.934 127.904,38.962 125.755,36.927 120.635 C 35.046 115.902,34.313 114.454,32.749 112.373 C 29.689 108.302,23.428 103.020,21.662 103.020 L 20.820 103.020 20.693 106.261 M106.666 108.458 C 101.732 109.348,99.613 113.191,102.134 116.672 C 105.685 121.574,115.325 119.192,115.335 113.410 C 115.342 109.602,111.737 107.543,106.666 108.458 M110.301 108.716 C 113.288 109.200,114.922 110.845,114.918 113.364 C 114.909 119.333,104.699 121.156,102.009 115.669 C 100.311 112.204,102.773 109.229,107.815 108.654 C 108.959 108.523,109.142 108.528,110.301 108.716 M153.641 110.556 C 149.012 111.847,147.895 116.285,151.393 119.482 C 154.596 122.409,161.128 121.815,162.974 118.429 C 165.436 113.911,159.517 108.919,153.641 110.556 M159.147 111.166 C 164.410 113.197,164.416 119.365,159.157 120.706 C 154.204 121.968,149.412 118.983,149.786 114.868 C 150.086 111.550,155.054 109.585,159.147 111.166 M216.252 150.956 C 212.171 152.435,207.219 156.441,205.743 159.458 C 204.073 162.871,206.777 167.844,210.302 167.843 C 214.172 167.841,220.532 161.064,221.952 155.428 C 222.796 152.080,219.749 149.689,216.252 150.956 M219.903 151.662 C 222.164 153.116,222.132 154.970,219.773 159.059 C 215.472 166.515,209.806 169.379,207.110 165.461 C 205.016 162.416,205.314 160.155,208.214 157.091 C 212.422 152.646,217.654 150.216,219.903 151.662 M216.061 152.018 C 212.116 153.575,207.787 157.226,206.467 160.110 C 205.112 163.069,207.852 167.314,210.857 166.911 C 215.209 166.328,222.994 155.631,220.949 153.045 C 219.672 151.429,218.289 151.139,216.061 152.018 M37.247 164.520 C 41.769 171.552,48.065 179.146,53.819 184.508 L 56.217 186.743 56.421 183.543 C 56.600 180.741,56.867 179.011,57.288 177.931 C 57.357 177.753,57.328 177.620,57.219 177.620 C 57.115 177.620,56.207 176.955,55.202 176.142 C 52.579 174.020,51.243 173.091,48.135 171.227 C 44.565 169.086,38.894 165.267,37.591 164.127 C 37.029 163.635,36.535 163.233,36.494 163.233 C 36.453 163.233,36.792 163.812,37.247 164.520 M57.556 178.400 C 56.856 180.241,56.340 187.211,56.903 187.211 C 57.092 187.211,57.172 186.629,57.264 184.591 C 57.400 181.608,57.655 179.564,57.996 178.743 C 58.195 178.264,58.192 178.165,57.973 178.081 C 57.811 178.019,57.656 178.138,57.556 178.400 " stroke="none" fill="#80b82a" fill-rule="evenodd"></path><path id="path1" d="M319.897 2.312 C 285.263 5.197,258.109 29.774,256.121 60.036 C 255.910 63.247,255.947 64.515,256.421 70.249 C 257.130 78.831,256.744 80.318,252.167 86.645 C 249.189 90.762,244.768 97.445,244.443 98.323 C 243.737 100.227,244.532 100.514,248.832 99.903 C 265.015 97.604,268.428 98.199,274.088 104.305 C 281.279 112.062,282.939 113.670,286.524 116.348 C 301.886 127.826,324.829 131.855,347.621 127.079 C 384.475 119.357,407.962 83.316,397.505 50.533 C 388.605 22.631,366.404 5.663,334.636 2.482 C 332.141 2.232,322.229 2.118,319.897 2.312 M333.659 4.095 C 364.848 6.676,387.427 23.862,396.070 51.599 C 401.488 68.989,397.056 88.413,384.222 103.528 C 370.884 119.236,352.129 127.265,328.774 127.265 C 307.284 127.265,292.002 121.016,278.814 106.838 C 271.146 98.595,269.806 97.663,264.890 97.150 C 261.951 96.844,255.672 97.248,249.399 98.147 C 247.700 98.391,246.285 98.564,246.253 98.532 C 246.155 98.434,251.244 90.853,253.586 87.607 C 258.527 80.761,258.950 78.872,257.910 68.295 C 254.274 31.306,290.584 0.532,333.659 4.095 M375.255 53.730 L 374.425 54.885 375.095 54.885 C 375.684 54.885,375.904 54.745,376.909 53.730 L 378.054 52.575 377.070 52.575 L 376.086 52.575 375.255 53.730 M312.223 53.197 C 311.893 53.923,312.271 54.529,313.055 54.529 C 313.839 54.529,314.218 53.923,313.887 53.197 C 313.726 52.845,313.554 52.753,313.055 52.753 C 312.556 52.753,312.384 52.845,312.223 53.197 M367.673 54.529 L 367.673 56.128 366.963 56.128 C 366.292 56.128,366.252 56.157,366.252 56.661 C 366.252 57.164,366.292 57.194,366.963 57.194 L 367.673 57.194 367.673 60.835 L 367.673 64.476 368.295 64.476 L 368.917 64.476 368.917 60.835 L 368.917 57.194 369.716 57.194 C 370.485 57.194,370.515 57.174,370.515 56.661 C 370.515 56.148,370.485 56.128,369.716 56.128 L 368.917 56.128 368.917 54.529 L 368.917 52.931 368.295 52.931 L 367.673 52.931 367.673 54.529 M276.911 53.491 C 274.074 54.609,272.590 57.915,273.599 60.874 C 275.464 66.346,284.704 65.795,285.213 60.182 L 285.307 59.147 282.796 59.147 L 280.284 59.147 280.284 59.680 L 280.284 60.213 282.060 60.213 C 284.117 60.213,284.191 60.296,283.335 61.644 C 281.089 65.181,274.611 63.213,274.602 58.990 C 274.593 54.837,279.531 52.841,282.982 55.603 C 283.774 56.237,283.845 56.242,284.350 55.705 L 284.747 55.282 283.967 54.643 C 282.143 53.148,279.060 52.645,276.911 53.491 M288.550 56.502 L 287.922 57.053 287.922 56.590 C 287.922 56.180,287.851 56.128,287.300 56.128 L 286.679 56.128 286.679 60.302 L 286.679 64.476 287.300 64.476 L 287.922 64.476 287.922 62.265 C 287.922 58.580,288.507 57.100,289.947 57.140 C 290.697 57.162,291.418 56.281,290.834 56.056 C 290.098 55.774,289.172 55.955,288.550 56.502 M293.673 56.475 C 289.865 58.659,291.343 64.654,295.691 64.654 C 296.955 64.654,297.903 64.324,298.623 63.634 L 299.112 63.166 299.112 63.821 C 299.112 64.430,299.149 64.476,299.645 64.476 L 300.178 64.476 300.178 60.302 L 300.178 56.128 299.645 56.128 C 299.149 56.128,299.112 56.174,299.112 56.783 L 299.112 57.438 298.623 56.970 C 297.409 55.807,295.220 55.588,293.673 56.475 M304.796 56.320 C 301.286 57.909,301.310 62.912,304.834 64.379 C 306.408 65.034,308.984 64.588,310.169 63.455 C 311.204 62.466,310.264 61.758,309.119 62.665 C 307.282 64.120,304.748 63.629,303.722 61.619 C 302.130 58.499,306.472 55.579,309.174 57.951 C 309.818 58.516,310.657 58.449,310.657 57.833 C 310.657 56.438,306.758 55.432,304.796 56.320 M318.028 56.188 C 314.590 57.749,314.614 62.967,318.067 64.414 C 319.349 64.951,321.573 64.607,322.511 63.726 L 322.913 63.348 322.913 63.912 C 322.913 64.438,322.955 64.476,323.535 64.476 L 324.156 64.476 324.156 60.302 L 324.156 56.128 323.535 56.128 C 322.963 56.128,322.913 56.171,322.913 56.657 L 322.913 57.186 322.100 56.613 C 321.153 55.946,319.046 55.726,318.028 56.188 M326.714 56.554 C 325.392 57.876,325.911 59.477,328.063 60.720 C 329.790 61.717,330.028 62.601,328.758 63.299 C 328.126 63.646,327.543 63.523,326.611 62.846 C 326.147 62.508,325.484 63.364,325.874 63.797 C 327.039 65.092,329.704 64.877,330.453 63.427 C 331.166 62.049,330.636 60.807,328.905 59.798 C 327.030 58.705,326.733 58.069,327.746 57.316 L 328.227 56.958 329.147 57.436 C 330.061 57.909,330.728 57.796,330.728 57.167 C 330.728 56.037,327.695 55.574,326.714 56.554 M339.520 56.245 C 339.227 56.399,338.768 56.731,338.499 56.982 L 338.011 57.438 338.011 56.783 C 338.011 56.153,337.987 56.128,337.389 56.128 L 336.767 56.128 336.767 61.812 L 336.767 67.496 337.389 67.496 L 338.011 67.496 338.011 65.331 L 338.011 63.166 338.499 63.634 C 341.093 66.119,345.648 63.999,345.648 60.306 C 345.648 57.257,342.085 54.895,339.520 56.245 M349.645 56.283 C 346.375 57.776,346.237 62.611,349.419 64.197 C 352.480 65.722,355.795 63.698,355.795 60.302 C 355.795 57.055,352.569 54.947,349.645 56.283 M359.099 56.496 L 358.437 57.042 358.437 56.585 C 358.437 56.196,358.358 56.128,357.904 56.128 L 357.371 56.128 357.371 60.302 L 357.371 64.476 357.877 64.476 L 358.383 64.476 358.483 61.747 C 358.612 58.225,359.308 56.766,360.690 57.127 C 361.073 57.228,361.740 56.442,361.542 56.123 C 361.285 55.706,359.778 55.937,359.099 56.496 M312.433 60.302 L 312.433 64.476 313.055 64.476 L 313.677 64.476 313.677 60.302 L 313.677 56.128 313.055 56.128 L 312.433 56.128 312.433 60.302 M371.944 59.014 C 371.956 63.533,372.675 64.654,375.559 64.654 C 378.521 64.654,379.209 63.609,379.215 59.103 L 379.218 56.128 378.707 56.128 L 378.195 56.128 378.119 58.925 C 378.018 62.637,377.553 63.468,375.577 63.468 C 373.587 63.468,373.179 62.704,373.179 58.979 L 373.179 56.128 372.558 56.128 L 371.936 56.128 371.944 59.014 M296.674 57.204 C 300.010 58.131,299.808 62.692,296.397 63.483 C 294.721 63.872,292.718 62.125,292.718 60.275 C 292.718 58.255,294.758 56.672,296.674 57.204 M321.331 57.469 C 322.000 57.815,322.690 58.689,322.905 59.464 C 323.870 62.939,319.136 65.056,317.205 62.012 C 315.457 59.255,318.438 55.973,321.331 57.469 M341.968 57.204 C 342.802 57.436,343.848 58.335,344.165 59.095 C 345.109 61.354,342.849 64.051,340.542 63.419 C 337.292 62.530,337.151 58.138,340.342 57.220 C 341.144 56.990,341.194 56.989,341.968 57.204 M352.948 57.469 C 354.056 58.042,354.856 59.650,354.608 60.805 C 353.947 63.874,350.014 64.504,348.683 61.754 C 347.339 58.979,350.237 56.067,352.948 57.469 M357.549 75.844 L 357.549 80.284 358.171 80.284 L 358.792 80.284 358.792 75.844 L 358.792 71.403 358.171 71.403 L 357.549 71.403 357.549 75.844 M297.854 71.760 C 292.416 72.681,291.296 80.292,296.241 82.721 C 298.394 83.778,301.621 83.357,303.352 81.793 C 304.197 81.030,304.230 80.902,303.688 80.463 C 303.297 80.147,303.279 80.152,302.599 80.766 C 299.796 83.299,295.232 81.973,294.492 78.411 C 293.583 74.034,299.090 71.037,302.413 74.101 C 303.176 74.804,303.205 74.814,303.640 74.529 C 304.240 74.136,304.201 73.851,303.459 73.199 C 301.969 71.891,300.028 71.392,297.854 71.760 M308.830 74.667 C 306.313 75.369,304.941 78.588,306.166 80.918 C 308.320 85.015,314.409 83.585,314.409 78.983 C 314.409 75.900,311.759 73.850,308.830 74.667 M319.316 74.629 C 318.950 74.730,318.410 75.037,318.117 75.311 L 317.584 75.809 317.584 75.204 C 317.584 74.632,317.551 74.600,316.963 74.600 L 316.341 74.600 316.341 78.863 L 316.341 83.126 316.963 83.126 L 317.584 83.126 317.584 80.588 C 317.584 77.059,318.278 75.755,320.154 75.755 C 321.713 75.755,322.022 76.527,322.024 80.417 L 322.025 83.126 322.631 83.126 L 323.237 83.126 323.297 80.297 C 323.351 77.758,323.395 77.416,323.729 76.966 C 324.381 76.087,325.224 75.624,325.991 75.725 C 327.443 75.915,327.706 76.633,327.708 80.417 L 327.709 83.126 328.352 83.126 L 328.996 83.126 328.915 79.973 C 328.825 76.497,328.678 75.888,327.746 75.103 C 326.588 74.129,324.925 74.317,323.679 75.563 L 322.930 76.313 322.723 75.814 C 322.310 74.816,320.682 74.250,319.316 74.629 M334.369 74.624 C 333.979 74.716,333.359 75.031,332.993 75.325 L 332.327 75.860 332.327 75.230 C 332.327 74.629,332.299 74.600,331.705 74.600 L 331.083 74.600 331.083 80.373 L 331.083 86.146 331.705 86.146 L 332.327 86.146 332.327 84.075 C 332.327 82.107,332.342 82.019,332.641 82.290 C 333.711 83.258,335.875 83.580,337.215 82.971 C 342.036 80.782,339.526 73.419,334.369 74.624 M343.754 74.681 C 343.444 74.816,343.025 75.093,342.821 75.296 L 342.451 75.666 342.451 75.133 C 342.451 74.643,342.402 74.600,341.829 74.600 L 341.208 74.600 341.208 78.863 L 341.208 83.126 341.808 83.126 L 342.409 83.126 342.485 80.329 C 342.580 76.832,343.212 75.454,344.592 75.730 C 345.328 75.877,345.879 74.857,345.203 74.600 C 344.608 74.374,344.439 74.383,343.754 74.681 M349.169 74.671 C 346.097 75.498,344.988 79.388,347.130 81.821 C 348.681 83.583,351.190 83.836,352.964 82.410 L 353.641 81.866 353.641 82.496 C 353.641 83.078,353.682 83.126,354.174 83.126 L 354.707 83.126 354.707 78.863 L 354.707 74.600 354.174 74.600 C 353.668 74.600,353.641 74.638,353.641 75.332 L 353.641 76.063 352.951 75.439 C 351.945 74.530,350.660 74.269,349.169 74.671 M311.286 76.000 C 314.325 77.380,313.666 81.752,310.379 82.024 C 309.186 82.123,308.536 81.867,307.738 80.985 C 305.516 78.524,308.283 74.636,311.286 76.000 M336.544 75.939 C 338.794 76.879,339.252 79.690,337.419 81.300 C 335.861 82.667,333.352 82.116,332.489 80.216 C 331.298 77.593,333.910 74.838,336.544 75.939 M351.821 76.043 C 353.682 76.944,354.217 79.414,352.880 80.936 C 351.681 82.302,349.600 82.466,348.340 81.294 C 345.634 78.776,348.509 74.439,351.821 76.043 M357.549 81.528 C 356.858 82.219,357.306 83.304,358.282 83.304 C 358.877 83.304,359.147 82.990,359.147 82.301 C 359.147 81.328,358.205 80.872,357.549 81.528 M107.325 98.639 C 104.209 99.768,103.905 103.989,106.831 105.494 C 109.283 106.756,112.176 105.232,112.398 102.560 C 112.630 99.759,109.950 97.687,107.325 98.639 M156.217 101.818 C 152.323 103.218,149.264 109.591,152.487 109.591 C 153.424 109.591,153.623 109.375,154.422 107.480 C 155.834 104.130,157.004 103.546,158.856 105.264 C 159.774 106.114,159.942 106.552,160.036 108.334 C 160.199 111.443,162.769 111.249,162.765 108.128 C 162.760 103.958,159.365 100.687,156.217 101.818 M20.366 104.624 C 20.301 105.824,20.249 107.668,20.249 108.723 L 20.249 110.641 19.638 110.930 C 18.335 111.548,10.737 119.624,8.118 123.174 C 1.886 131.621,-1.603 144.614,0.963 149.824 C 4.244 156.488,14.194 159.247,27.619 157.216 C 30.320 156.807,30.270 156.790,30.718 158.265 C 31.305 160.199,32.198 160.924,33.995 160.924 C 34.577 160.924,34.695 161.008,35.129 161.736 C 38.442 167.293,42.959 173.422,47.427 178.421 C 49.350 180.574,56.216 187.389,56.461 187.389 C 56.533 187.389,56.685 185.770,56.797 183.792 C 56.974 180.673,57.260 178.782,57.655 178.127 C 57.694 178.064,58.212 178.163,58.807 178.349 C 62.160 179.392,65.666 178.231,72.163 173.925 C 76.393 171.121,77.859 169.196,78.236 165.949 C 78.359 164.883,78.386 164.840,79.900 163.281 C 82.743 160.353,83.837 157.812,83.837 154.140 C 83.837 152.574,83.845 152.544,84.577 151.465 C 86.646 148.419,86.556 145.741,84.301 143.216 L 83.538 142.362 83.860 141.652 C 85.063 139.000,83.311 136.561,78.628 134.372 C 73.337 131.898,67.851 133.169,66.921 137.084 C 66.666 138.160,66.838 138.160,63.854 137.077 C 58.143 135.002,56.124 133.163,56.351 130.240 C 56.446 129.006,56.633 128.377,58.335 123.560 C 61.385 114.931,60.324 107.861,55.635 105.562 C 51.171 103.374,49.067 106.445,46.793 118.472 C 45.489 125.367,43.797 130.628,42.657 131.333 C 42.190 131.621,39.903 127.042,37.565 121.137 C 34.856 114.293,33.707 112.397,30.021 108.689 C 26.508 105.155,23.152 102.720,21.565 102.555 L 20.483 102.442 20.366 104.624 M23.908 104.021 C 30.861 108.983,33.772 112.697,36.927 120.635 C 38.962 125.755,39.934 127.904,41.240 130.174 L 42.301 132.018 41.671 132.927 C 41.097 133.756,39.757 135.311,37.723 137.509 L 36.955 138.340 36.346 137.731 C 34.563 135.948,30.968 139.169,29.856 143.546 C 29.488 144.995,29.460 145.028,28.385 145.251 L 27.552 145.423 26.752 143.239 C 24.645 137.486,22.736 129.886,21.780 123.446 L 21.530 121.758 22.113 120.782 C 25.645 114.864,25.414 110.105,21.605 110.336 C 20.477 110.404,20.523 110.606,20.693 106.261 L 20.820 103.020 21.662 103.020 C 22.402 103.020,22.677 103.142,23.908 104.021 M55.560 105.966 C 57.758 107.062,59.446 110.410,59.766 114.313 C 59.978 116.897,59.323 119.647,56.755 126.943 C 54.687 132.820,56.890 135.583,65.675 138.133 C 66.285 138.310,66.785 138.555,66.785 138.677 C 66.785 138.954,67.087 138.970,67.178 138.697 C 67.222 138.566,67.806 138.729,68.836 139.157 C 69.711 139.522,70.628 139.859,70.875 139.906 C 71.272 139.983,76.683 138.829,76.888 138.624 C 77.139 138.374,76.563 138.458,74.255 139.009 C 71.127 139.757,70.836 139.770,69.716 139.204 C 69.227 138.957,68.480 138.652,68.054 138.527 C 67.118 138.251,67.030 138.063,67.331 136.983 C 68.298 133.515,73.730 132.472,78.643 134.811 C 84.549 137.623,85.201 140.074,81.329 144.900 C 80.657 145.738,80.110 146.509,80.114 146.613 C 80.123 146.853,80.925 145.938,82.204 144.227 C 82.752 143.495,83.232 142.855,83.270 142.806 C 83.410 142.627,84.730 144.292,85.184 145.219 C 86.088 147.067,85.522 149.977,83.950 151.569 C 83.643 151.880,83.275 152.361,83.132 152.638 C 82.691 153.489,79.986 155.705,76.909 157.736 C 73.465 160.011,73.207 160.195,73.459 160.205 C 74.065 160.230,79.987 156.135,81.920 154.354 C 83.563 152.840,83.482 152.842,83.478 154.307 C 83.470 157.611,81.877 161.048,79.256 163.420 C 76.968 165.491,75.518 166.505,72.291 168.293 C 70.180 169.462,70.247 169.418,70.368 169.539 C 70.509 169.680,73.960 167.759,75.977 166.419 L 77.798 165.209 77.798 165.893 C 77.798 168.633,76.154 170.757,71.757 173.699 C 63.373 179.308,60.038 179.665,54.989 175.493 C 53.020 173.865,51.146 172.577,48.135 170.782 C 39.529 165.651,36.325 162.950,33.748 158.658 C 32.381 156.381,31.972 155.833,31.972 156.280 C 31.972 156.364,32.491 157.298,33.126 158.355 C 34.364 160.416,34.451 160.639,33.970 160.507 C 33.799 160.460,33.364 160.372,33.004 160.311 C 32.116 160.162,31.568 159.462,31.090 157.871 C 30.876 157.156,30.548 156.452,30.362 156.306 C 29.301 155.473,29.201 147.622,30.202 143.801 C 31.376 139.320,34.933 136.131,36.348 138.290 C 36.628 138.718,36.619 138.765,36.105 139.483 C 34.766 141.356,33.033 146.359,33.723 146.359 C 33.816 146.359,33.947 145.939,34.014 145.426 C 34.271 143.471,35.356 140.882,36.489 139.520 C 36.910 139.014,36.932 139.007,36.939 139.387 C 36.942 139.607,37.031 139.787,37.137 139.787 C 37.254 139.787,37.286 139.594,37.219 139.288 C 37.120 138.840,37.332 138.541,39.259 136.401 C 43.987 131.152,45.303 128.290,46.976 119.627 C 48.658 110.912,49.272 108.833,50.753 106.827 C 51.790 105.424,53.763 105.070,55.560 105.966 M107.815 108.654 C 102.773 109.229,100.311 112.204,102.009 115.669 C 104.699 121.156,114.909 119.333,114.918 113.364 C 114.922 110.845,113.288 109.200,110.301 108.716 C 109.142 108.528,108.959 108.523,107.815 108.654 M127.770 108.986 C 126.705 110.612,127.780 114.050,129.826 115.561 C 133.519 118.288,138.296 116.164,138.842 111.553 C 139.127 109.146,137.303 109.251,136.204 111.704 C 134.505 115.499,131.911 115.260,130.281 111.157 C 129.323 108.745,128.433 107.975,127.770 108.986 M153.488 110.994 C 147.102 112.882,149.296 120.586,156.315 120.917 C 160.420 121.112,163.091 119.293,163.091 116.303 C 163.091 112.336,158.164 109.613,153.488 110.994 M240.187 115.006 C 239.457 115.534,239.718 117.207,240.934 119.805 C 241.972 122.021,242.481 122.494,246.313 124.796 C 252.801 128.695,257.780 135.512,260.739 144.546 C 262.164 148.897,262.123 148.597,261.323 148.856 C 259.405 149.478,256.946 151.057,255.957 152.300 C 254.170 154.550,254.947 157.194,257.397 157.194 L 258.258 157.194 257.038 158.800 C 254.215 162.519,251.689 168.579,250.711 173.979 C 249.865 178.655,248.990 180.890,247.236 182.863 C 245.210 185.141,242.984 188.004,242.984 188.330 C 242.984 188.884,243.353 191.180,243.537 191.769 C 244.216 193.950,253.095 193.755,256.370 191.488 C 258.394 190.087,258.635 189.389,258.808 184.442 C 259.072 176.899,259.855 173.836,261.643 173.355 C 262.760 173.054,263.324 173.475,264.271 175.319 C 268.949 184.421,277.986 191.803,285.096 192.330 C 289.060 192.624,294.010 191.634,295.948 190.159 C 296.502 189.737,296.984 189.542,297.691 189.453 C 299.348 189.244,300.350 188.824,301.188 187.987 C 301.877 187.298,302.053 187.211,302.775 187.211 C 303.221 187.211,303.799 187.096,304.058 186.956 C 304.317 186.815,305.058 186.532,305.703 186.328 C 308.599 185.410,309.892 183.719,309.161 181.805 C 308.570 180.256,306.273 178.538,300.708 175.481 C 295.331 172.527,294.559 171.697,288.547 162.397 C 286.741 159.604,284.634 157.540,282.238 156.219 C 279.615 154.772,279.218 154.452,279.218 153.786 C 279.218 151.696,277.470 149.904,274.483 148.935 L 273.567 148.638 273.169 147.010 C 270.959 137.972,265.678 129.688,257.853 122.985 C 252.013 117.983,242.200 113.551,240.187 115.006 M22.849 131.172 C 23.662 134.783,24.735 138.516,26.079 142.407 C 26.661 144.092,27.086 145.476,27.023 145.482 C 26.412 145.543,25.493 145.677,23.535 145.992 C 18.946 146.731,13.876 146.684,11.880 145.886 C 9.736 145.028,9.805 140.441,12.029 135.987 C 13.643 132.754,18.670 125.044,19.163 125.044 C 19.348 125.044,19.546 124.925,19.602 124.778 C 19.659 124.631,19.907 124.512,20.154 124.512 C 20.609 124.512,20.755 124.270,20.423 124.066 C 20.309 123.995,20.357 123.747,20.555 123.389 C 21.193 122.232,21.191 122.227,21.710 125.337 C 21.985 126.983,22.498 129.609,22.849 131.172 M70.700 142.153 C 70.696 142.233,70.949 142.670,71.262 143.125 C 72.783 145.336,73.178 149.535,71.896 149.870 C 71.663 149.931,71.624 150.015,71.756 150.174 C 71.884 150.329,71.754 150.953,71.315 152.294 C 70.711 154.138,70.541 154.959,70.835 154.609 C 70.913 154.516,71.287 153.468,71.666 152.278 L 72.355 150.116 74.062 149.575 C 75.939 148.980,79.751 147.186,79.751 146.898 C 79.751 146.798,78.892 147.146,77.842 147.672 C 76.078 148.555,74.091 149.351,72.993 149.614 L 72.539 149.723 72.808 148.402 C 73.126 146.843,72.947 145.626,72.178 144.106 C 71.715 143.191,70.714 141.868,70.700 142.153 M272.122 148.847 C 272.645 148.946,273.116 149.086,273.170 149.158 C 273.224 149.231,273.519 149.298,273.825 149.307 C 275.976 149.376,278.686 151.798,278.686 153.652 C 278.686 154.617,279.168 155.064,281.755 156.494 C 284.259 157.879,286.498 160.062,288.277 162.853 C 294.032 171.883,294.970 172.880,300.642 176.003 C 307.856 179.975,309.683 181.770,308.615 183.836 C 308.181 184.675,306.883 185.513,305.307 185.972 L 304.842 186.108 305.085 185.299 C 305.823 182.848,303.975 180.422,300.178 178.856 C 295.545 176.947,293.373 175.563,290.590 172.748 C 289.762 171.911,289.004 171.226,288.906 171.226 C 288.589 171.226,292.057 174.612,293.435 175.647 C 295.023 176.841,296.803 177.787,299.822 179.043 C 304.558 181.013,306.640 184.999,303.733 186.530 C 302.514 187.172,301.954 186.999,301.954 185.980 C 301.954 183.410,299.552 181.551,292.185 178.418 C 285.767 175.689,282.837 173.607,280.335 169.997 C 280.307 169.956,280.234 169.973,280.174 170.033 C 280.018 170.189,281.645 172.190,282.901 173.387 C 284.910 175.302,286.892 176.439,292.314 178.789 C 301.191 182.636,303.759 185.519,300.499 187.975 C 299.332 188.855,296.768 189.381,297.080 188.677 C 297.586 187.539,297.167 185.329,296.247 184.282 C 295.577 183.519,294.347 182.921,290.573 181.527 C 277.890 176.841,275.904 175.453,271.103 167.916 C 270.934 167.651,270.889 167.639,270.881 167.860 C 270.857 168.484,273.425 172.052,275.110 173.734 C 278.144 176.767,280.818 178.213,289.028 181.267 C 294.757 183.398,295.803 183.930,296.402 185.016 C 297.273 186.595,297.247 188.582,296.351 188.927 C 296.210 188.981,296.133 189.087,296.180 189.164 C 296.477 189.644,294.137 190.729,291.302 191.428 C 284.949 192.992,278.010 190.814,272.671 185.579 C 270.063 183.021,266.025 177.696,264.751 175.133 C 263.644 172.908,263.217 172.624,260.944 172.604 C 258.806 172.585,257.194 172.771,257.194 173.037 C 257.194 173.136,257.310 173.173,257.452 173.118 C 257.594 173.064,258.533 172.968,259.539 172.906 L 261.368 172.793 260.810 173.149 C 259.316 174.104,258.586 177.550,258.283 185.080 C 258.129 188.914,257.998 189.397,256.810 190.529 C 254.634 192.603,249.168 193.453,245.085 192.354 C 244.027 192.069,243.517 190.832,243.517 188.550 C 243.517 188.125,245.942 184.949,247.523 183.304 C 249.313 181.442,250.145 179.306,251.243 173.759 C 252.514 167.340,255.383 161.093,258.624 157.687 C 259.205 157.077,259.680 156.538,259.680 156.490 C 259.680 156.442,260.218 155.862,260.874 155.200 C 261.531 154.538,261.989 153.996,261.891 153.996 C 261.794 153.996,261.121 154.593,260.396 155.323 C 257.260 158.481,253.796 156.277,256.262 152.692 C 258.467 149.488,265.943 147.675,272.122 148.847 M216.390 151.501 C 212.693 152.832,207.610 156.910,206.293 159.601 C 204.438 163.392,207.812 168.170,211.572 167.077 C 216.447 165.660,223.420 155.145,221.137 152.654 C 219.795 151.191,218.277 150.822,216.390 151.501 M219.839 152.024 C 221.490 153.220,221.638 153.997,220.679 156.429 C 218.348 162.335,212.839 167.512,209.543 166.893 C 208.124 166.627,206.274 164.017,206.081 162.009 C 205.660 157.629,216.608 149.683,219.839 152.024 M69.721 160.346 C 69.499 164.317,69.059 166.136,67.609 169.069 C 66.900 170.503,66.896 170.515,67.114 170.515 C 67.874 170.515,69.741 164.581,69.894 161.678 C 69.949 160.628,70.035 159.389,70.083 158.925 C 70.132 158.461,70.099 158.082,70.010 158.082 C 69.920 158.082,69.790 159.101,69.721 160.346 M37.591 164.127 C 38.894 165.267,44.565 169.086,48.135 171.227 C 51.243 173.091,52.579 174.020,55.202 176.142 C 56.207 176.955,57.115 177.620,57.219 177.620 C 57.328 177.620,57.357 177.753,57.288 177.931 C 56.867 179.011,56.600 180.741,56.421 183.543 L 56.217 186.743 53.819 184.508 C 48.065 179.146,41.769 171.552,37.247 164.520 C 36.792 163.812,36.453 163.233,36.494 163.233 C 36.535 163.233,37.029 163.635,37.591 164.127 M115.098 213.473 C 114.560 213.578,114.691 213.625,116.075 213.824 C 116.954 213.950,117.893 214.095,118.162 214.145 C 118.720 214.251,118.881 213.767,118.339 213.611 C 117.746 213.439,115.716 213.353,115.098 213.473 M143.162 213.854 C 143.162 214.506,143.466 214.529,146.661 214.117 C 150.341 213.643,150.062 213.328,145.959 213.324 L 143.162 213.321 143.162 213.854 M112.971 215.320 C 112.974 215.540,113.052 216.757,113.145 218.025 C 114.135 231.559,113.514 241.304,111.453 244.585 C 111.086 245.170,110.325 245.949,110.503 245.560 C 110.547 245.462,110.892 244.755,111.270 243.989 C 112.664 241.157,112.094 238.902,109.982 238.899 C 108.560 238.898,108.128 239.452,107.157 242.519 C 106.813 243.605,106.221 245.080,105.841 245.797 C 105.462 246.513,105.141 247.352,105.130 247.662 C 105.115 248.061,105.060 247.940,104.942 247.247 C 103.781 240.453,103.713 240.320,101.418 240.320 C 99.681 240.320,98.934 241.043,98.934 242.725 C 98.934 245.036,99.567 245.873,103.087 248.215 C 103.929 248.775,104.617 249.326,104.615 249.439 C 104.608 249.864,102.891 250.800,102.326 250.687 C 101.588 250.540,100.022 250.947,99.342 251.463 L 98.773 251.895 97.568 251.303 L 96.364 250.710 93.342 250.685 C 91.680 250.670,89.716 250.600,88.979 250.528 C 85.009 250.143,80.995 253.755,80.995 257.712 C 80.995 258.310,80.908 258.583,80.671 258.731 C 80.232 259.006,79.860 261.090,80.058 262.167 C 80.232 263.114,81.426 264.060,85.032 266.107 C 89.109 268.422,90.961 268.918,95.508 268.913 C 107.217 268.899,118.019 266.616,123.285 263.043 C 126.527 260.843,128.524 256.727,126.585 256.240 C 126.195 256.143,126.152 256.017,126.039 254.666 C 125.695 250.529,124.576 248.138,122.983 248.136 C 122.648 248.135,122.598 248.004,122.502 246.855 C 122.378 245.377,122.041 244.797,121.127 244.492 C 120.132 244.160,120.120 244.075,119.908 235.790 C 119.694 227.406,119.393 219.350,119.211 217.144 L 119.094 215.726 116.252 215.331 C 112.734 214.842,112.965 214.843,112.971 215.320 M146.714 215.559 C 145.688 215.692,144.441 215.847,143.943 215.903 L 143.036 216.005 142.913 226.786 C 142.772 239.021,142.831 238.526,141.457 239.084 C 140.445 239.494,139.762 240.185,139.430 241.135 C 139.277 241.570,139.144 241.657,138.585 241.686 C 136.099 241.815,134.906 243.089,134.294 246.270 C 133.947 248.073,133.926 248.135,133.664 248.135 C 131.664 248.135,131.725 251.337,133.766 253.552 C 137.498 257.600,150.960 264.563,159.576 266.901 C 168.745 269.390,172.917 269.402,178.863 266.957 C 182.532 265.449,182.412 265.517,182.410 264.920 C 182.406 264.102,182.108 262.996,181.836 262.793 C 181.680 262.677,181.513 261.886,181.377 260.615 C 180.842 255.646,178.484 252.575,175.201 252.575 C 174.981 252.575,174.253 252.460,173.584 252.319 C 171.095 251.796,167.179 251.317,165.631 251.347 C 163.839 251.381,163.516 251.287,161.943 250.264 C 161.333 249.868,160.526 249.451,160.150 249.338 C 159.681 249.198,159.337 248.933,159.063 248.501 C 158.841 248.153,158.488 247.714,158.277 247.525 L 157.893 247.182 160.533 245.909 C 165.696 243.420,166.933 241.878,165.420 239.818 C 163.017 236.546,160.325 237.096,158.504 241.230 L 157.948 242.490 157.670 241.716 C 157.517 241.290,157.340 240.393,157.276 239.723 C 156.991 236.701,155.667 234.813,153.833 234.813 C 151.142 234.813,150.741 237.535,152.920 241.015 C 153.848 242.496,154.589 244.050,154.368 244.050 C 154.290 244.050,153.537 243.603,152.693 243.056 C 150.994 241.955,150.940 241.862,150.709 239.609 C 150.644 238.974,150.323 236.856,149.996 234.902 C 148.918 228.470,148.788 227.276,148.789 223.801 C 148.789 220.892,149.109 217.210,149.494 215.676 C 149.614 215.199,149.524 215.195,146.714 215.559 M154.903 235.746 C 155.810 236.347,156.435 237.763,156.733 239.895 C 156.875 240.913,157.145 242.008,157.357 242.423 L 157.731 243.155 157.338 244.491 C 156.780 246.385,156.078 246.011,154.726 243.101 C 154.357 242.304,153.722 241.140,153.315 240.515 C 151.180 237.229,152.257 233.994,154.903 235.746 M163.247 238.710 C 166.831 241.089,166.047 242.719,159.951 245.554 C 157.419 246.732,157.407 246.731,157.895 245.493 C 158.093 244.991,158.296 244.164,158.347 243.655 C 158.476 242.358,159.804 239.682,160.736 238.840 C 161.626 238.036,162.187 238.006,163.247 238.710 M110.925 239.832 C 111.979 240.739,111.647 242.373,109.764 245.538 C 108.088 248.355,107.456 249.023,106.468 249.023 L 105.684 249.023 105.684 248.168 C 105.684 247.505,105.858 246.975,106.460 245.814 C 106.886 244.990,107.526 243.382,107.882 242.241 C 108.738 239.494,109.672 238.754,110.925 239.832 M103.000 241.279 C 103.332 241.580,103.618 242.822,104.318 247.009 L 104.560 248.458 103.834 248.003 C 99.984 245.589,98.540 243.321,99.753 241.590 C 100.306 240.800,102.263 240.612,103.000 241.279 M140.530 244.081 C 144.419 248.841,150.667 251.000,154.724 248.986 C 155.710 248.497,155.941 248.440,156.129 248.642 C 156.315 248.841,156.417 248.773,156.720 248.242 C 157.159 247.474,157.419 247.444,158.019 248.091 C 158.818 248.953,158.870 249.181,158.311 249.384 C 156.455 250.056,154.775 251.969,153.810 254.509 C 153.171 256.191,153.950 255.676,154.839 253.829 C 156.021 251.372,158.655 249.038,159.182 249.980 C 159.358 250.293,159.858 250.374,159.858 250.089 C 159.858 249.745,160.331 249.919,161.525 250.703 C 162.188 251.139,162.887 251.545,163.077 251.606 C 163.397 251.707,163.386 251.743,162.928 252.086 C 161.354 253.266,159.515 255.365,159.920 255.520 C 160.102 255.590,160.590 255.200,161.401 254.338 C 162.939 252.701,164.023 251.978,164.531 252.249 C 164.816 252.402,164.937 252.382,165.103 252.154 C 165.430 251.707,167.542 251.824,171.403 252.503 L 172.025 252.612 171.043 252.917 C 168.238 253.791,163.319 257.963,164.594 258.387 C 164.696 258.421,165.117 258.010,165.531 257.474 C 169.322 252.559,176.449 251.554,179.230 255.541 C 180.029 256.687,180.576 258.395,180.811 260.480 C 181.048 262.580,181.048 262.581,180.705 262.449 C 180.213 262.260,178.449 262.675,176.674 263.398 C 172.613 265.050,170.330 265.067,164.032 263.489 C 157.177 261.771,154.487 260.431,143.682 253.352 C 138.178 249.747,135.654 248.313,134.813 248.313 C 134.536 248.313,134.459 248.229,134.526 248.002 C 134.576 247.831,134.705 247.192,134.812 246.581 C 135.214 244.287,135.794 243.239,136.988 242.648 C 138.510 241.895,138.860 242.036,140.530 244.081 M123.889 249.253 C 124.620 249.984,125.117 251.524,125.415 253.980 C 125.672 256.099,125.687 256.069,124.116 256.487 C 121.186 257.266,119.774 257.735,114.742 259.598 C 99.274 265.327,93.105 266.122,87.142 263.157 C 81.295 260.248,80.142 256.932,83.679 253.193 C 87.534 249.116,92.470 250.693,95.485 256.964 C 96.856 259.816,97.567 260.195,96.345 257.424 C 95.087 254.569,93.927 252.890,92.494 251.852 L 91.805 251.353 92.459 251.230 C 94.451 250.856,98.224 251.690,98.224 252.504 C 98.224 252.646,98.410 252.833,98.637 252.919 C 99.097 253.094,100.120 254.915,100.614 256.439 C 100.895 257.305,101.421 257.741,101.421 257.109 C 101.421 256.609,100.518 254.436,99.877 253.390 L 99.232 252.339 99.748 251.928 C 100.549 251.289,102.069 251.002,102.382 251.430 C 102.575 251.693,102.679 251.719,102.878 251.554 C 103.575 250.975,104.602 252.343,105.777 255.417 C 106.491 257.284,106.570 257.414,106.873 257.227 C 107.023 257.134,106.836 256.483,106.217 254.938 C 105.101 252.156,104.931 251.848,104.276 251.421 C 103.606 250.984,103.605 250.950,104.244 250.572 C 104.750 250.273,104.759 250.275,104.867 250.705 C 104.942 251.002,105.063 251.109,105.247 251.038 C 105.417 250.973,105.477 250.811,105.411 250.601 C 105.352 250.416,105.389 250.266,105.494 250.266 C 105.599 250.266,105.684 250.157,105.684 250.023 C 105.684 249.261,107.245 249.798,107.945 250.799 C 109.840 253.513,113.138 253.449,118.117 250.602 C 121.897 248.442,122.854 248.218,123.889 249.253 " stroke="none" fill="#731d26" fill-rule="evenodd"></path><path id="path2" d="M125.844 1.703 C 125.453 1.740,124.014 1.857,122.647 1.962 C 101.166 3.625,79.625 11.961,62.655 25.179 C 60.397 26.938,60.452 26.757,61.946 27.528 C 64.131 28.657,65.463 30.190,66.960 33.304 C 67.665 34.769,69.025 37.567,69.982 39.520 C 74.463 48.666,74.044 52.518,67.826 59.301 C 63.836 63.655,63.335 65.129,63.056 73.357 C 62.690 84.149,61.700 85.477,52.798 87.121 C 48.286 87.955,41.816 87.494,36.767 85.980 C 35.839 85.702,34.840 85.412,34.547 85.336 C 34.254 85.260,32.176 85.185,29.929 85.169 C 27.419 85.152,25.507 85.058,24.971 84.926 C 24.328 84.767,24.065 84.763,23.974 84.910 C 23.391 85.854,21.492 98.343,21.492 101.236 C 21.492 101.934,21.508 101.952,22.217 102.066 C 24.223 102.386,31.141 108.482,33.899 112.358 C 35.372 114.427,35.931 115.562,37.768 120.206 C 40.065 126.012,42.389 130.906,42.849 130.906 C 43.659 130.906,45.371 125.538,46.632 119.040 C 48.330 110.292,49.253 107.517,51.000 105.914 C 53.179 103.914,56.870 105.238,58.671 108.665 C 60.901 112.909,60.702 117.284,57.930 124.907 C 55.141 132.581,55.912 134.171,63.807 137.018 C 66.604 138.026,66.708 138.031,66.847 137.165 C 67.430 133.518,72.931 131.949,77.981 133.989 C 82.932 135.989,85.044 138.698,83.929 141.618 L 83.615 142.439 84.414 143.328 C 86.648 145.812,86.669 148.633,84.478 151.683 C 83.888 152.504,83.879 152.545,83.797 154.810 C 83.666 158.380,82.828 160.240,80.018 163.198 L 78.419 164.880 78.221 166.262 C 77.741 169.606,76.201 171.413,70.968 174.773 C 65.817 178.080,62.173 179.234,59.160 178.511 C 58.654 178.390,58.208 178.323,58.168 178.362 C 57.651 178.879,56.980 186.474,57.406 186.987 C 59.616 189.650,70.975 197.544,78.302 201.509 C 90.134 207.911,106.947 213.273,115.513 213.376 C 118.212 213.409,118.340 213.427,118.656 213.818 C 119.344 214.668,134.049 215.234,141.075 214.681 L 142.984 214.531 142.984 213.926 L 142.984 213.321 146.006 213.321 C 147.938 213.321,149.143 213.394,149.348 213.521 C 149.902 213.867,157.010 212.512,162.589 210.997 C 204.104 199.724,235.229 166.268,242.092 125.541 L 242.610 122.469 242.195 122.025 C 241.136 120.892,239.787 117.581,239.787 116.115 C 239.787 114.890,240.155 114.663,241.901 114.808 L 243.308 114.926 243.437 113.552 C 243.577 112.061,243.410 100.796,243.235 99.887 C 243.136 99.374,243.059 99.322,242.239 99.213 C 240.588 98.994,240.105 98.672,237.909 96.333 C 234.578 92.787,232.481 91.575,229.659 91.568 L 227.967 91.563 225.796 92.617 C 222.698 94.120,222.827 93.913,222.811 97.395 C 222.765 107.278,219.800 109.387,209.680 106.733 C 204.024 105.250,202.606 105.397,200.947 107.638 C 199.214 109.979,199.613 112.680,202.212 116.212 C 203.644 118.158,204.152 118.375,209.414 119.280 C 218.865 120.905,221.436 124.286,218.995 131.881 C 217.587 136.265,215.825 138.553,210.746 142.593 C 209.574 143.526,207.889 144.871,207.002 145.583 C 200.637 150.689,198.404 154.626,196.888 163.410 C 194.850 175.217,193.158 178.592,185.349 186.422 L 182.860 188.919 178.686 190.885 C 172.917 193.603,172.749 193.652,169.401 193.577 C 166.275 193.507,166.307 193.520,163.968 191.540 C 162.865 190.607,162.585 190.280,162.734 190.100 C 162.884 189.921,162.861 189.893,162.635 189.980 C 161.857 190.278,160.051 184.747,158.708 177.948 C 155.929 163.890,152.676 160.714,140.094 159.777 C 133.808 159.309,132.341 158.571,130.923 155.166 C 129.098 150.780,129.950 148.237,134.030 145.898 C 138.861 143.128,139.037 142.915,139.973 138.728 C 140.349 137.046,141.111 134.339,141.666 132.711 C 144.036 125.765,145.098 125.191,155.470 125.242 C 163.901 125.284,165.204 124.941,170.871 121.188 C 174.397 118.853,176.323 116.421,179.351 110.480 C 182.458 104.384,182.287 101.065,178.718 98.170 C 173.218 93.707,170.645 93.314,166.770 96.346 C 163.717 98.735,161.711 98.661,158.131 96.026 C 155.924 94.401,155.276 93.065,154.504 88.544 C 153.086 80.243,151.565 79.130,143.073 80.174 C 135.521 81.104,132.328 79.901,129.606 75.102 C 126.462 69.558,126.661 61.044,130.006 58.037 C 131.033 57.114,134.142 55.719,136.101 55.302 C 137.873 54.925,139.248 55.073,143.073 56.052 C 149.628 57.731,150.880 57.426,154.343 53.306 C 157.388 49.683,159.210 48.716,163.735 48.322 C 174.135 47.414,177.573 40.191,172.655 29.580 C 168.384 20.368,169.026 16.838,175.915 11.653 L 177.303 10.608 176.085 10.088 C 167.139 6.265,155.468 3.362,144.050 2.119 C 140.783 1.764,128.255 1.478,125.844 1.703 M79.475 21.314 C 80.328 21.314,80.956 23.054,80.448 24.005 C 79.674 25.451,77.087 24.699,77.087 23.028 C 77.087 22.071,78.264 20.972,79.011 21.232 C 79.141 21.277,79.350 21.314,79.475 21.314 M113.373 23.888 C 116.949 24.512,118.404 25.256,119.614 27.079 C 123.205 32.490,121.102 40.287,115.182 43.503 C 111.900 45.286,111.219 45.886,110.000 48.069 C 103.411 59.864,90.252 60.157,86.668 48.588 C 84.390 41.236,85.024 39.579,91.735 35.347 C 94.831 33.394,96.401 32.140,99.707 28.977 C 102.331 26.467,104.229 24.980,105.429 24.494 C 107.647 23.597,110.468 23.382,113.373 23.888 M71.092 26.323 C 71.736 27.068,71.275 28.557,70.382 28.618 C 68.692 28.732,68.092 26.564,69.643 25.950 C 70.188 25.735,70.697 25.866,71.092 26.323 M151.358 33.221 C 157.452 33.831,159.313 35.703,158.433 40.339 C 157.184 46.925,146.042 51.263,139.178 47.837 C 136.959 46.729,135.995 44.892,135.979 41.740 C 135.970 39.816,136.492 38.839,138.605 36.828 C 142.021 33.576,145.387 32.624,151.358 33.221 M110.213 98.735 C 112.827 99.934,113.293 103.298,111.096 105.109 C 107.485 108.085,102.635 103.234,105.715 99.725 C 106.826 98.460,108.710 98.046,110.213 98.735 M159.511 101.958 C 162.741 103.606,164.130 110.480,161.232 110.480 C 160.134 110.480,159.947 110.178,159.946 108.407 C 159.946 106.570,159.672 105.945,158.459 105.020 C 156.749 103.716,155.734 104.387,154.362 107.726 C 153.610 109.557,153.577 109.591,152.566 109.591 C 149.071 109.591,152.144 103.233,156.359 101.745 C 157.420 101.370,158.501 101.443,159.511 101.958 M110.870 108.370 C 117.363 109.748,116.727 117.536,109.993 119.113 C 104.409 120.421,99.413 116.019,101.514 111.642 C 102.725 109.118,107.133 107.577,110.870 108.370 M129.068 108.787 C 129.274 108.931,129.787 109.868,130.210 110.869 C 131.642 114.264,133.416 115.245,135.038 113.539 C 135.492 113.062,136.412 111.395,136.412 111.049 C 136.412 110.719,137.664 109.769,138.099 109.769 C 139.546 109.769,138.818 113.568,137.027 115.359 C 133.566 118.820,127.460 115.921,127.446 110.810 C 127.441 108.767,128.016 108.050,129.068 108.787 M157.460 110.310 C 165.126 111.414,165.706 120.388,158.171 121.299 C 148.912 122.418,145.513 111.665,154.698 110.313 C 156.072 110.111,156.072 110.111,157.460 110.310 M219.872 150.966 C 222.468 152.290,222.788 154.166,221.049 157.853 C 218.034 164.246,212.417 168.811,208.966 167.672 C 207.070 167.046,205.148 163.967,205.153 161.562 C 205.162 156.816,216.020 149.001,219.872 150.966 M82.496 153.863 L 81.794 154.618 82.549 153.916 C 83.251 153.263,83.385 153.108,83.251 153.108 C 83.222 153.108,82.882 153.448,82.496 153.863 M260.918 155.195 L 259.769 156.394 260.968 155.245 C 261.627 154.613,262.167 154.073,262.167 154.046 C 262.167 153.915,261.986 154.082,260.918 155.195 M69.668 158.615 C 69.668 158.956,69.705 159.096,69.749 158.925 C 69.794 158.754,69.794 158.475,69.749 158.304 C 69.705 158.133,69.668 158.273,69.668 158.615 M260.171 172.950 C 260.392 172.992,260.711 172.991,260.881 172.946 C 261.051 172.902,260.870 172.867,260.480 172.869 C 260.089 172.871,259.950 172.907,260.171 172.950 M291.297 173.945 C 291.297 173.976,291.556 174.236,291.874 174.523 L 292.451 175.044 291.929 174.467 C 291.443 173.929,291.297 173.808,291.297 173.945 M60.790 178.275 C 60.961 178.320,61.241 178.320,61.412 178.275 C 61.583 178.231,61.443 178.194,61.101 178.194 C 60.759 178.194,60.619 178.231,60.790 178.275 " stroke="none" fill="#abebeb" fill-rule="evenodd"></path><path id="path3" d="M78.220 21.392 C 77.051 21.901,76.733 23.175,77.536 24.130 C 78.677 25.486,80.639 24.740,80.639 22.949 C 80.639 22.234,79.985 21.314,79.475 21.314 C 79.350 21.314,79.141 21.277,79.011 21.232 C 78.881 21.187,78.525 21.259,78.220 21.392 M69.643 25.950 C 68.699 26.324,68.456 27.374,69.139 28.134 C 70.010 29.103,71.403 28.581,71.403 27.284 C 71.403 26.253,70.537 25.596,69.643 25.950 M39.392 53.245 C 36.847 57.110,33.378 64.462,32.439 67.979 C 31.391 71.904,31.415 71.610,32.124 71.798 C 32.890 72.001,32.755 72.269,33.682 68.715 C 34.612 65.149,38.189 57.529,40.675 53.819 L 41.924 51.954 41.433 51.555 C 40.780 51.026,40.940 50.893,39.392 53.245 M52.128 105.754 C 50.099 106.638,48.900 109.879,47.093 119.361 C 45.382 128.339,44.034 131.259,39.100 136.667 C 37.317 138.622,37.177 138.826,37.310 139.287 C 37.457 139.802,37.082 140.046,36.882 139.565 C 36.537 138.733,34.628 142.626,34.210 145.015 C 33.989 146.276,33.570 146.835,33.570 145.869 C 33.570 144.337,34.718 141.349,35.995 139.556 L 36.602 138.704 36.228 138.180 C 35.065 136.546,31.996 138.919,30.650 142.494 C 29.349 145.950,29.167 156.517,30.413 156.257 C 30.519 156.235,30.863 156.968,31.176 157.885 C 31.775 159.638,32.142 160.096,33.098 160.287 C 34.343 160.537,34.344 160.503,33.136 158.549 C 32.510 157.536,31.972 156.565,31.940 156.391 C 31.853 155.914,32.240 155.884,32.453 156.351 C 34.861 161.637,38.264 164.733,48.436 170.895 C 51.613 172.819,53.172 173.909,55.595 175.903 C 59.242 178.903,62.812 178.929,67.963 175.993 C 74.539 172.245,77.067 169.806,77.656 166.642 C 77.908 165.286,77.814 165.180,76.962 165.855 C 75.271 167.193,70.601 169.784,70.343 169.526 C 70.229 169.412,70.827 168.991,72.074 168.309 C 74.495 166.985,77.391 165.086,77.669 164.641 C 77.787 164.453,77.975 164.298,78.086 164.298 C 78.565 164.298,81.295 161.131,82.005 159.750 C 83.073 157.678,83.642 155.202,83.368 153.830 L 83.264 153.308 81.730 154.650 C 79.149 156.908,73.643 160.571,73.318 160.245 C 73.201 160.128,73.282 159.980,73.560 159.806 C 73.790 159.661,74.770 159.049,75.736 158.447 C 79.262 156.247,83.304 152.913,83.304 152.204 C 83.304 152.017,83.417 151.865,83.556 151.865 C 84.366 151.865,85.713 148.516,85.564 146.873 C 85.406 145.134,83.557 142.404,83.094 143.227 C 82.931 143.518,80.859 146.163,80.440 146.616 C 80.342 146.723,80.224 146.723,80.122 146.616 C 80.022 146.513,80.433 145.866,81.187 144.938 C 85.061 140.172,84.555 137.880,79.014 135.088 C 73.511 132.316,67.991 133.488,67.258 137.586 C 67.165 138.108,67.200 138.150,67.905 138.357 C 68.315 138.478,69.141 138.809,69.741 139.093 C 71.080 139.726,70.604 139.741,74.020 138.959 C 75.605 138.597,76.959 138.356,77.027 138.425 C 77.528 138.925,71.139 140.306,70.305 139.877 C 69.121 139.270,67.448 138.712,67.121 138.816 C 66.936 138.875,66.785 138.847,66.785 138.754 C 66.785 138.661,65.806 138.253,64.609 137.846 C 55.650 134.802,54.534 132.855,57.321 125.133 C 60.089 117.466,60.376 113.388,58.435 109.321 C 57.033 106.384,54.269 104.821,52.128 105.754 M71.706 143.117 C 72.934 145.037,73.333 147.072,72.827 148.835 C 72.731 149.170,72.689 149.480,72.733 149.524 C 72.887 149.678,76.096 148.456,77.851 147.575 C 79.075 146.961,79.676 146.745,79.804 146.873 C 80.054 147.123,75.782 149.198,73.892 149.744 L 72.470 150.155 72.125 151.075 C 71.936 151.581,71.604 152.606,71.387 153.351 C 71.145 154.186,70.900 154.707,70.751 154.707 C 70.458 154.707,70.522 154.410,71.328 152.008 C 71.728 150.817,71.842 150.263,71.699 150.210 C 71.567 150.161,71.631 150.000,71.874 149.766 C 73.018 148.663,72.741 145.546,71.309 143.410 C 70.609 142.367,70.525 142.096,70.902 142.096 C 70.985 142.096,71.346 142.556,71.706 143.117 M265.098 148.672 C 260.438 149.149,256.299 151.559,255.585 154.213 C 255.167 155.763,255.997 156.661,257.847 156.661 L 258.874 156.661 260.340 155.202 C 262.667 152.887,262.517 153.695,260.168 156.128 C 256.930 159.482,255.626 161.494,253.549 166.341 C 252.291 169.280,252.098 169.923,251.243 174.067 C 249.998 180.095,249.641 180.932,247.000 184.000 C 246.110 185.033,244.957 186.416,244.439 187.072 L 243.496 188.265 243.708 189.737 C 244.016 191.865,244.064 191.950,245.163 192.269 C 246.235 192.581,249.015 192.876,249.929 192.775 C 256.871 192.007,258.058 190.804,258.282 184.301 C 258.489 178.270,259.069 175.109,260.233 173.661 L 260.809 172.944 258.986 173.064 C 257.557 173.157,257.179 173.135,257.237 172.959 C 257.394 172.487,263.055 172.275,263.055 172.741 C 263.055 172.853,263.241 173.029,263.467 173.133 C 263.720 173.248,264.173 173.893,264.641 174.804 C 269.802 184.863,278.826 191.841,286.679 191.846 C 290.863 191.849,296.408 190.195,295.978 189.073 C 295.909 188.895,295.991 188.810,296.229 188.810 C 297.087 188.810,297.182 186.831,296.401 185.258 C 295.722 183.892,294.964 183.521,286.590 180.457 C 280.269 178.144,276.234 175.595,273.545 172.216 C 272.613 171.045,270.693 168.087,270.693 167.824 C 270.693 167.343,271.229 167.838,271.832 168.876 C 275.095 174.491,278.630 176.974,288.721 180.738 C 294.103 182.745,295.060 183.152,295.880 183.777 C 297.084 184.695,297.844 187.299,297.246 188.455 L 296.945 189.039 297.718 188.917 C 300.004 188.555,301.599 187.355,301.599 185.995 C 301.599 183.699,299.396 181.990,292.612 179.025 C 286.918 176.537,285.330 175.652,283.178 173.771 C 281.765 172.536,279.798 170.115,280.121 170.007 C 280.250 169.964,280.640 170.280,280.986 170.709 C 283.763 174.148,285.802 175.536,292.038 178.238 C 299.531 181.485,302.043 183.362,302.043 185.716 L 302.043 186.677 302.736 186.678 C 304.293 186.679,305.449 184.696,304.748 183.226 C 303.911 181.472,302.471 180.221,300.241 179.314 C 295.591 177.421,293.652 176.219,290.808 173.467 C 289.067 171.782,288.497 171.048,288.929 171.048 C 288.994 171.048,289.978 171.959,291.116 173.073 C 293.933 175.830,296.443 177.362,301.066 179.143 C 303.979 180.266,305.968 183.374,305.151 185.524 C 304.986 185.958,305.002 185.983,305.373 185.871 C 306.534 185.519,307.523 184.965,308.070 184.359 C 310.083 182.131,308.360 180.286,300.021 175.742 C 295.647 173.359,293.332 171.031,289.968 165.631 C 286.291 159.727,285.153 158.495,281.439 156.398 C 279.261 155.169,278.686 154.651,278.685 153.919 C 278.682 152.488,277.855 151.264,276.257 150.328 C 275.141 149.674,273.749 149.175,273.621 149.382 C 273.463 149.639,273.179 149.593,273.179 149.311 C 273.179 148.814,267.840 148.391,265.098 148.672 M70.088 160.425 C 69.895 164.320,69.523 165.899,68.074 168.964 C 67.535 170.103,67.193 170.639,67.078 170.524 C 66.964 170.409,67.184 169.752,67.721 168.612 C 69.040 165.806,69.627 163.054,69.627 159.670 C 69.627 158.829,69.680 158.088,69.745 158.022 C 70.142 157.626,70.205 158.064,70.088 160.425 " stroke="none" fill="#fbfbfb" fill-rule="evenodd"></path><path id="path4" d="M124.956 0.189 C 67.957 4.174,23.734 46.787,19.900 101.421 C 19.633 105.226,19.656 110.884,19.938 110.791 C 20.101 110.737,20.194 109.668,20.289 106.735 C 20.439 102.133,20.503 101.875,21.452 102.011 C 21.816 102.063,21.974 102.066,21.803 102.017 C 21.056 101.803,22.385 91.049,23.908 84.982 C 23.999 84.620,23.952 84.547,23.629 84.547 C 23.283 84.547,23.254 84.483,23.364 83.970 C 23.528 83.205,23.585 83.126,23.977 83.126 C 24.160 83.126,24.351 82.986,24.402 82.815 C 24.453 82.644,24.703 81.745,24.959 80.817 C 30.287 61.484,41.859 43.120,57.172 29.696 C 58.820 28.252,59.020 28.012,59.055 27.441 C 59.108 26.563,59.350 26.359,60.011 26.633 C 60.520 26.844,60.595 26.806,62.196 25.534 C 91.469 2.282,132.491 -4.665,168.932 7.459 C 173.006 8.814,177.273 10.500,177.146 10.705 C 177.091 10.794,177.377 10.648,177.782 10.380 C 178.642 9.811,179.011 10.020,179.115 11.134 C 179.125 11.250,181.051 12.303,183.395 13.474 C 216.141 29.834,237.974 59.786,242.671 94.795 C 243.044 97.581,243.074 97.691,243.466 97.691 C 243.821 97.691,243.872 97.779,243.872 98.401 L 243.872 99.112 242.940 99.140 C 242.338 99.159,242.205 99.194,242.566 99.239 C 243.031 99.297,243.143 99.404,243.235 99.877 C 243.419 100.821,243.557 112.984,243.395 114.032 L 243.245 115.009 244.047 115.215 C 245.115 115.490,245.027 116.136,245.026 108.022 L 245.025 100.799 244.596 99.959 C 244.204 99.189,244.187 99.061,244.399 98.419 C 244.910 96.870,243.185 86.825,241.215 79.887 C 228.730 35.900,189.836 4.716,142.007 0.346 C 139.191 0.089,127.879 -0.016,124.956 0.189 M148.273 33.168 C 148.691 33.205,149.330 33.205,149.694 33.166 C 150.058 33.128,149.716 33.098,148.934 33.098 C 148.153 33.099,147.855 33.130,148.273 33.168 M155.850 51.554 L 155.329 52.131 155.906 51.610 C 156.223 51.323,156.483 51.063,156.483 51.032 C 156.483 50.895,156.337 51.016,155.850 51.554 M106.117 53.153 L 105.595 53.730 106.172 53.208 C 106.490 52.921,106.750 52.662,106.750 52.631 C 106.750 52.494,106.603 52.615,106.117 53.153 M62.919 75.844 C 62.919 76.186,62.955 76.325,63.000 76.155 C 63.045 75.984,63.045 75.704,63.000 75.533 C 62.955 75.362,62.919 75.502,62.919 75.844 M29.707 85.202 C 29.878 85.247,30.158 85.247,30.329 85.202 C 30.500 85.158,30.360 85.121,30.018 85.121 C 29.676 85.121,29.536 85.158,29.707 85.202 M229.174 91.419 C 229.345 91.464,229.625 91.464,229.796 91.419 C 229.967 91.374,229.827 91.338,229.485 91.338 C 229.143 91.338,229.003 91.374,229.174 91.419 M236.234 94.549 C 236.234 94.580,236.494 94.840,236.812 95.127 L 237.389 95.648 236.867 95.071 C 236.381 94.533,236.234 94.412,236.234 94.549 M222.792 98.046 C 222.792 98.681,222.824 98.941,222.864 98.623 C 222.903 98.306,222.903 97.786,222.864 97.469 C 222.824 97.151,222.792 97.411,222.792 98.046 M159.903 109.147 C 159.905 109.538,159.941 109.677,159.984 109.456 C 160.026 109.235,160.024 108.916,159.980 108.746 C 159.935 108.576,159.901 108.757,159.903 109.147 M155.817 110.247 C 155.988 110.291,156.268 110.291,156.439 110.247 C 156.610 110.202,156.470 110.166,156.128 110.166 C 155.786 110.166,155.646 110.202,155.817 110.247 M59.731 115.187 C 59.732 115.675,59.767 115.854,59.808 115.584 C 59.849 115.314,59.847 114.914,59.805 114.696 C 59.763 114.477,59.730 114.698,59.731 115.187 M20.998 122.590 C 19.927 123.661,25.663 146.013,26.888 145.543 C 27.075 145.471,26.891 144.758,26.075 142.397 C 24.067 136.584,22.692 131.210,21.713 125.352 C 21.321 123.008,21.169 122.419,20.998 122.590 M242.551 122.780 C 242.505 122.999,242.336 124.019,242.176 125.044 C 236.171 163.572,206.966 196.766,167.961 209.396 C 160.912 211.678,150.188 214.046,149.328 213.509 C 149.141 213.392,148.943 213.342,148.887 213.398 C 148.832 213.454,148.896 213.499,149.029 213.499 C 150.003 213.499,148.542 213.887,146.718 214.113 C 143.383 214.526,143.199 214.511,143.113 213.810 L 143.041 213.233 143.012 213.882 L 142.984 214.531 141.075 214.681 C 135.184 215.145,119.221 214.669,118.819 214.018 C 118.729 213.873,118.674 213.870,118.627 214.010 C 118.580 214.150,118.057 214.130,116.801 213.941 C 115.832 213.796,114.913 213.666,114.758 213.653 C 114.603 213.640,114.756 213.571,115.098 213.499 C 115.549 213.404,115.306 213.368,114.210 213.366 C 111.099 213.360,102.103 211.208,94.956 208.760 C 81.644 204.201,68.333 196.598,58.409 187.886 C 57.758 187.315,57.199 186.919,57.165 187.006 C 56.552 188.608,46.129 177.748,39.931 169.051 C 38.410 166.917,36.316 163.727,35.129 161.736 C 34.320 160.380,33.697 160.576,34.464 161.945 C 38.593 169.317,46.948 179.618,54.138 186.202 C 72.919 203.400,94.253 212.911,120.959 215.990 C 126.860 216.671,139.640 216.673,143.428 215.994 C 143.917 215.906,145.595 215.700,147.158 215.536 C 192.933 210.724,232.925 175.375,242.603 131.172 C 243.065 129.063,244.050 123.793,244.050 123.430 C 244.050 123.367,243.732 123.105,243.343 122.848 L 242.636 122.380 242.551 122.780 M155.997 125.349 C 156.267 125.390,156.667 125.389,156.885 125.347 C 157.104 125.305,156.883 125.271,156.394 125.273 C 155.906 125.274,155.727 125.309,155.997 125.349 M159.283 125.348 C 159.504 125.390,159.823 125.389,159.993 125.344 C 160.163 125.300,159.982 125.265,159.591 125.267 C 159.201 125.269,159.062 125.305,159.283 125.348 M219.761 127.442 C 219.763 127.833,219.799 127.972,219.841 127.751 C 219.884 127.530,219.882 127.210,219.838 127.041 C 219.793 126.871,219.759 127.052,219.761 127.442 M82.771 137.034 C 83.102 137.376,83.413 137.655,83.462 137.655 C 83.511 137.655,83.280 137.376,82.948 137.034 C 82.617 136.692,82.306 136.412,82.257 136.412 C 82.208 136.412,82.439 136.692,82.771 137.034 M83.141 142.851 C 83.182 142.875,83.455 143.095,83.748 143.339 L 84.281 143.783 83.850 143.295 C 83.613 143.026,83.340 142.806,83.243 142.806 C 83.146 142.806,83.100 142.826,83.141 142.851 M203.730 148.401 C 203.299 148.841,202.986 149.201,203.034 149.201 C 203.083 149.201,203.476 148.841,203.908 148.401 C 204.339 147.962,204.652 147.602,204.603 147.602 C 204.554 147.602,204.161 147.962,203.730 148.401 M260.298 155.284 L 258.881 156.750 260.386 155.329 C 261.213 154.547,261.926 153.888,261.969 153.863 C 262.013 153.839,261.973 153.819,261.882 153.819 C 261.790 153.819,261.077 154.478,260.298 155.284 M69.668 159.680 C 69.668 160.022,69.705 160.162,69.749 159.991 C 69.794 159.820,69.794 159.540,69.749 159.369 C 69.705 159.198,69.668 159.338,69.668 159.680 M70.023 159.680 C 70.023 160.022,70.060 160.162,70.105 159.991 C 70.149 159.820,70.149 159.540,70.105 159.369 C 70.060 159.198,70.023 159.338,70.023 159.680 M290.675 172.824 C 291.550 173.703,292.306 174.423,292.355 174.423 C 292.404 174.423,291.728 173.703,290.853 172.824 C 289.977 171.945,289.221 171.226,289.173 171.226 C 289.124 171.226,289.800 171.945,290.675 172.824 M289.964 172.647 C 290.643 173.330,291.238 173.890,291.287 173.890 C 291.336 173.890,290.821 173.330,290.142 172.647 C 289.463 171.963,288.868 171.403,288.819 171.403 C 288.771 171.403,289.286 171.963,289.964 172.647 M282.682 172.824 C 283.064 173.215,283.416 173.535,283.465 173.535 C 283.513 173.535,283.241 173.215,282.860 172.824 C 282.478 172.433,282.126 172.114,282.077 172.114 C 282.028 172.114,282.300 172.433,282.682 172.824 M281.883 172.524 C 281.883 172.555,282.143 172.815,282.460 173.102 L 283.037 173.623 282.516 173.046 C 282.029 172.508,281.883 172.387,281.883 172.524 M275.044 173.890 C 275.426 174.281,275.778 174.600,275.827 174.600 C 275.876 174.600,275.604 174.281,275.222 173.890 C 274.840 173.499,274.488 173.179,274.439 173.179 C 274.391 173.179,274.663 173.499,275.044 173.890 M57.235 184.902 C 57.235 185.244,57.271 185.384,57.316 185.213 C 57.361 185.042,57.361 184.762,57.316 184.591 C 57.271 184.421,57.235 184.560,57.235 184.902 " stroke="none" fill="#4cbcb3" fill-rule="evenodd"></path></g></svg>